M48
;GenerationSoftware,Autodesk,EAGLE,9.6.1*%
;CreationDate,2024-11-23T16:57:10Z*%
FMAT,2
ICI,OFF
METRIC,TZ,000.000
T5C0.229
T4C0.250
T3C0.350
T2C1.016
T1C1.500
%
G90
M71
T1
X-2540Y26035
X2540Y26035
T2
X-10954Y12382
X11430Y12859
X-10954Y17463
X-10954Y14922
T3
X-7620Y4719
X-4763Y2496
X4763Y3290
X7144Y3766
X-13017Y16784
X-13176Y13132
X-7779Y25515
X-5080Y26150
X0Y26150
X7620Y24245
X5080Y26309
X-7461Y10751
X14764Y15037
X3651Y16034
X14446Y16625
X14446Y13767
X10478Y16149
X9366Y11386
X-1905Y10116
X-6985Y13767
T4
X-3492Y5398
X-4382Y8318
X-10095Y9072
X-9664Y22403
X1537Y13343
X965Y13915
X12540Y19198
X-2629Y13404
X9751Y7654
X-6509Y4128
T5
X1659Y2848
M30