G04 EAGLE Gerber RS-274X export*
G75*
%MOMM*%
%FSLAX34Y34*%
%LPD*%
%INSilkscreen Bottom*%
%IPPOS*%
%AMOC8*
5,1,8,0,0,1.08239X$1,22.5*%
G01*
%ADD10C,0.101600*%
%ADD11C,0.152400*%
%ADD12C,0.076200*%
%ADD13C,0.254000*%
%ADD14C,0.050800*%
%ADD15C,0.304800*%
%ADD16C,0.150000*%

G36*
X-10596Y132082D02*
X-10596Y132082D01*
X-10594Y132081D01*
X-10551Y132101D01*
X-10507Y132119D01*
X-10507Y132121D01*
X-10505Y132122D01*
X-10472Y132207D01*
X-10472Y134747D01*
X-10473Y134749D01*
X-10472Y134751D01*
X-10492Y134794D01*
X-10510Y134838D01*
X-10512Y134838D01*
X-10513Y134840D01*
X-10598Y134873D01*
X-14408Y134873D01*
X-14410Y134872D01*
X-14412Y134873D01*
X-14455Y134853D01*
X-14499Y134835D01*
X-14499Y134833D01*
X-14501Y134832D01*
X-14534Y134747D01*
X-14534Y132207D01*
X-14533Y132205D01*
X-14534Y132203D01*
X-14514Y132160D01*
X-14496Y132116D01*
X-14494Y132116D01*
X-14493Y132114D01*
X-14408Y132081D01*
X-10598Y132081D01*
X-10596Y132082D01*
G37*
G36*
X-40130Y87544D02*
X-40130Y87544D01*
X-40128Y87543D01*
X-40085Y87563D01*
X-40041Y87581D01*
X-40041Y87583D01*
X-40039Y87584D01*
X-40006Y87669D01*
X-40006Y91479D01*
X-40007Y91481D01*
X-40006Y91483D01*
X-40026Y91526D01*
X-40044Y91570D01*
X-40046Y91570D01*
X-40047Y91572D01*
X-40132Y91605D01*
X-42672Y91605D01*
X-42674Y91604D01*
X-42676Y91605D01*
X-42719Y91585D01*
X-42763Y91567D01*
X-42763Y91565D01*
X-42765Y91564D01*
X-42798Y91479D01*
X-42798Y87669D01*
X-42797Y87667D01*
X-42798Y87665D01*
X-42778Y87622D01*
X-42760Y87578D01*
X-42758Y87578D01*
X-42757Y87576D01*
X-42672Y87543D01*
X-40132Y87543D01*
X-40130Y87544D01*
G37*
G36*
X42674Y72541D02*
X42674Y72541D01*
X42676Y72540D01*
X42719Y72560D01*
X42763Y72578D01*
X42763Y72580D01*
X42765Y72581D01*
X42798Y72666D01*
X42798Y76476D01*
X42797Y76478D01*
X42798Y76480D01*
X42778Y76523D01*
X42760Y76567D01*
X42758Y76567D01*
X42757Y76569D01*
X42672Y76602D01*
X40132Y76602D01*
X40130Y76601D01*
X40128Y76602D01*
X40085Y76582D01*
X40041Y76564D01*
X40041Y76562D01*
X40039Y76561D01*
X40006Y76476D01*
X40006Y72666D01*
X40007Y72664D01*
X40006Y72662D01*
X40026Y72619D01*
X40044Y72575D01*
X40046Y72575D01*
X40047Y72573D01*
X40132Y72540D01*
X42672Y72540D01*
X42674Y72541D01*
G37*
G36*
X-5595Y49278D02*
X-5595Y49278D01*
X-5593Y49277D01*
X-5550Y49297D01*
X-5506Y49315D01*
X-5506Y49317D01*
X-5504Y49318D01*
X-5471Y49403D01*
X-5471Y51943D01*
X-5472Y51945D01*
X-5471Y51947D01*
X-5491Y51990D01*
X-5509Y52034D01*
X-5511Y52034D01*
X-5512Y52036D01*
X-5597Y52069D01*
X-9407Y52069D01*
X-9409Y52068D01*
X-9411Y52069D01*
X-9454Y52049D01*
X-9498Y52031D01*
X-9498Y52029D01*
X-9500Y52028D01*
X-9533Y51943D01*
X-9533Y49403D01*
X-9532Y49401D01*
X-9533Y49399D01*
X-9513Y49356D01*
X-9495Y49312D01*
X-9493Y49312D01*
X-9492Y49310D01*
X-9407Y49277D01*
X-5597Y49277D01*
X-5595Y49278D01*
G37*
D10*
X82321Y270508D02*
X80726Y271625D01*
X77003Y266308D01*
X80193Y264074D01*
X80276Y264019D01*
X80360Y263967D01*
X80447Y263918D01*
X80535Y263872D01*
X80625Y263830D01*
X80717Y263791D01*
X80810Y263756D01*
X80904Y263724D01*
X80999Y263696D01*
X81096Y263672D01*
X81193Y263651D01*
X81291Y263635D01*
X81390Y263621D01*
X81489Y263612D01*
X81588Y263607D01*
X81688Y263605D01*
X81787Y263607D01*
X81886Y263613D01*
X81985Y263623D01*
X82084Y263636D01*
X82182Y263654D01*
X82279Y263675D01*
X82375Y263699D01*
X82471Y263728D01*
X82565Y263760D01*
X82658Y263795D01*
X82749Y263834D01*
X82839Y263877D01*
X82927Y263923D01*
X83013Y263972D01*
X83098Y264025D01*
X83180Y264081D01*
X83260Y264140D01*
X83338Y264202D01*
X83413Y264267D01*
X83486Y264334D01*
X83556Y264405D01*
X83624Y264478D01*
X83688Y264554D01*
X83750Y264632D01*
X83809Y264712D01*
X87532Y270029D01*
X87587Y270112D01*
X87639Y270196D01*
X87688Y270283D01*
X87734Y270371D01*
X87776Y270461D01*
X87815Y270553D01*
X87850Y270646D01*
X87882Y270740D01*
X87910Y270835D01*
X87934Y270932D01*
X87955Y271029D01*
X87971Y271127D01*
X87985Y271226D01*
X87994Y271325D01*
X87999Y271424D01*
X88001Y271524D01*
X87999Y271623D01*
X87993Y271722D01*
X87983Y271821D01*
X87970Y271920D01*
X87952Y272018D01*
X87931Y272115D01*
X87907Y272211D01*
X87878Y272307D01*
X87846Y272401D01*
X87811Y272494D01*
X87772Y272585D01*
X87729Y272675D01*
X87683Y272763D01*
X87634Y272849D01*
X87581Y272934D01*
X87525Y273016D01*
X87466Y273096D01*
X87404Y273174D01*
X87339Y273249D01*
X87272Y273322D01*
X87201Y273392D01*
X87128Y273460D01*
X87052Y273524D01*
X86974Y273586D01*
X86894Y273645D01*
X86895Y273645D02*
X83704Y275879D01*
X79035Y279149D02*
X72333Y269578D01*
X67016Y273301D02*
X79035Y279149D01*
X73717Y282872D02*
X67016Y273301D01*
X62346Y276571D02*
X69047Y286142D01*
X66389Y288003D01*
X66389Y288004D02*
X66295Y288067D01*
X66199Y288127D01*
X66101Y288184D01*
X66001Y288237D01*
X65899Y288287D01*
X65795Y288333D01*
X65690Y288375D01*
X65584Y288414D01*
X65476Y288449D01*
X65367Y288480D01*
X65257Y288508D01*
X65146Y288531D01*
X65035Y288551D01*
X64923Y288567D01*
X64810Y288579D01*
X64697Y288587D01*
X64584Y288591D01*
X64470Y288591D01*
X64357Y288587D01*
X64244Y288579D01*
X64131Y288567D01*
X64019Y288551D01*
X63908Y288531D01*
X63797Y288508D01*
X63687Y288480D01*
X63578Y288449D01*
X63470Y288414D01*
X63364Y288375D01*
X63259Y288333D01*
X63155Y288287D01*
X63053Y288237D01*
X62953Y288184D01*
X62855Y288127D01*
X62759Y288067D01*
X62665Y288004D01*
X62574Y287937D01*
X62484Y287868D01*
X62397Y287795D01*
X62313Y287719D01*
X62232Y287640D01*
X62153Y287559D01*
X62077Y287475D01*
X62004Y287388D01*
X61935Y287299D01*
X61868Y287207D01*
X61869Y287206D02*
X58890Y282953D01*
X58827Y282859D01*
X58767Y282763D01*
X58710Y282665D01*
X58657Y282565D01*
X58607Y282463D01*
X58561Y282359D01*
X58519Y282254D01*
X58480Y282148D01*
X58445Y282040D01*
X58414Y281931D01*
X58386Y281821D01*
X58363Y281710D01*
X58343Y281599D01*
X58327Y281487D01*
X58315Y281374D01*
X58307Y281261D01*
X58303Y281148D01*
X58303Y281034D01*
X58307Y280921D01*
X58315Y280808D01*
X58327Y280695D01*
X58343Y280583D01*
X58363Y280472D01*
X58386Y280361D01*
X58414Y280251D01*
X58445Y280142D01*
X58480Y280034D01*
X58519Y279928D01*
X58561Y279823D01*
X58607Y279719D01*
X58657Y279617D01*
X58710Y279517D01*
X58767Y279419D01*
X58827Y279323D01*
X58890Y279229D01*
X58957Y279137D01*
X59026Y279048D01*
X59099Y278961D01*
X59175Y278877D01*
X59254Y278796D01*
X59335Y278717D01*
X59419Y278641D01*
X59506Y278568D01*
X59596Y278499D01*
X59687Y278432D01*
X62346Y276571D01*
X146699Y141866D02*
X146699Y139919D01*
X146699Y141866D02*
X140208Y141866D01*
X140208Y137971D01*
X140210Y137872D01*
X140216Y137772D01*
X140225Y137673D01*
X140238Y137575D01*
X140255Y137477D01*
X140276Y137379D01*
X140301Y137283D01*
X140329Y137188D01*
X140361Y137094D01*
X140396Y137001D01*
X140435Y136909D01*
X140478Y136819D01*
X140523Y136731D01*
X140573Y136644D01*
X140625Y136560D01*
X140681Y136477D01*
X140739Y136397D01*
X140801Y136319D01*
X140866Y136244D01*
X140934Y136171D01*
X141004Y136101D01*
X141077Y136033D01*
X141152Y135968D01*
X141230Y135906D01*
X141310Y135848D01*
X141393Y135792D01*
X141477Y135740D01*
X141564Y135690D01*
X141652Y135645D01*
X141742Y135602D01*
X141834Y135563D01*
X141927Y135528D01*
X142021Y135496D01*
X142116Y135468D01*
X142212Y135443D01*
X142310Y135422D01*
X142408Y135405D01*
X142506Y135392D01*
X142605Y135383D01*
X142705Y135377D01*
X142804Y135375D01*
X149296Y135375D01*
X149395Y135377D01*
X149495Y135383D01*
X149594Y135392D01*
X149692Y135405D01*
X149790Y135422D01*
X149888Y135443D01*
X149984Y135468D01*
X150079Y135496D01*
X150173Y135528D01*
X150266Y135563D01*
X150358Y135602D01*
X150448Y135645D01*
X150536Y135690D01*
X150623Y135740D01*
X150707Y135792D01*
X150790Y135848D01*
X150870Y135906D01*
X150948Y135968D01*
X151023Y136033D01*
X151096Y136101D01*
X151166Y136171D01*
X151234Y136244D01*
X151299Y136319D01*
X151361Y136397D01*
X151419Y136477D01*
X151475Y136560D01*
X151527Y136644D01*
X151577Y136731D01*
X151622Y136819D01*
X151665Y136909D01*
X151704Y137001D01*
X151739Y137093D01*
X151771Y137188D01*
X151799Y137283D01*
X151824Y137379D01*
X151845Y137477D01*
X151862Y137575D01*
X151875Y137673D01*
X151884Y137772D01*
X151890Y137872D01*
X151892Y137971D01*
X151892Y141866D01*
X151892Y147567D02*
X140208Y147567D01*
X140208Y154058D02*
X151892Y147567D01*
X151892Y154058D02*
X140208Y154058D01*
X140208Y159759D02*
X151892Y159759D01*
X151892Y163004D01*
X151890Y163117D01*
X151884Y163230D01*
X151874Y163343D01*
X151860Y163456D01*
X151843Y163568D01*
X151821Y163679D01*
X151796Y163789D01*
X151766Y163899D01*
X151733Y164007D01*
X151696Y164114D01*
X151656Y164220D01*
X151611Y164324D01*
X151563Y164427D01*
X151512Y164528D01*
X151457Y164627D01*
X151399Y164724D01*
X151337Y164819D01*
X151272Y164912D01*
X151204Y165002D01*
X151133Y165090D01*
X151058Y165176D01*
X150981Y165259D01*
X150901Y165339D01*
X150818Y165416D01*
X150732Y165491D01*
X150644Y165562D01*
X150554Y165630D01*
X150461Y165695D01*
X150366Y165757D01*
X150269Y165815D01*
X150170Y165870D01*
X150069Y165921D01*
X149966Y165969D01*
X149862Y166014D01*
X149756Y166054D01*
X149649Y166091D01*
X149541Y166124D01*
X149431Y166154D01*
X149321Y166179D01*
X149210Y166201D01*
X149098Y166218D01*
X148985Y166232D01*
X148872Y166242D01*
X148759Y166248D01*
X148646Y166250D01*
X143454Y166250D01*
X143341Y166248D01*
X143228Y166242D01*
X143115Y166232D01*
X143002Y166218D01*
X142890Y166201D01*
X142779Y166179D01*
X142669Y166154D01*
X142559Y166124D01*
X142451Y166091D01*
X142344Y166054D01*
X142238Y166014D01*
X142134Y165969D01*
X142031Y165921D01*
X141930Y165870D01*
X141831Y165815D01*
X141734Y165757D01*
X141639Y165695D01*
X141546Y165630D01*
X141456Y165562D01*
X141368Y165491D01*
X141282Y165416D01*
X141199Y165339D01*
X141119Y165259D01*
X141042Y165176D01*
X140967Y165090D01*
X140896Y165002D01*
X140828Y164912D01*
X140763Y164819D01*
X140701Y164724D01*
X140643Y164627D01*
X140588Y164528D01*
X140537Y164427D01*
X140489Y164324D01*
X140444Y164220D01*
X140404Y164114D01*
X140367Y164007D01*
X140334Y163899D01*
X140304Y163789D01*
X140279Y163679D01*
X140257Y163568D01*
X140240Y163456D01*
X140226Y163343D01*
X140216Y163230D01*
X140210Y163117D01*
X140208Y163004D01*
X140208Y159759D01*
X81576Y32180D02*
X79981Y31063D01*
X83704Y25746D01*
X86895Y27980D01*
X86894Y27980D02*
X86974Y28039D01*
X87052Y28101D01*
X87128Y28165D01*
X87201Y28233D01*
X87272Y28303D01*
X87339Y28376D01*
X87404Y28451D01*
X87466Y28529D01*
X87525Y28609D01*
X87581Y28691D01*
X87634Y28776D01*
X87683Y28862D01*
X87729Y28950D01*
X87772Y29040D01*
X87811Y29131D01*
X87846Y29224D01*
X87878Y29318D01*
X87907Y29414D01*
X87931Y29510D01*
X87952Y29607D01*
X87970Y29705D01*
X87983Y29804D01*
X87993Y29903D01*
X87999Y30002D01*
X88001Y30101D01*
X87999Y30201D01*
X87994Y30300D01*
X87984Y30399D01*
X87971Y30498D01*
X87955Y30596D01*
X87934Y30693D01*
X87910Y30790D01*
X87882Y30885D01*
X87850Y30979D01*
X87815Y31072D01*
X87776Y31164D01*
X87734Y31254D01*
X87688Y31342D01*
X87639Y31429D01*
X87587Y31513D01*
X87532Y31596D01*
X83809Y36913D01*
X83750Y36993D01*
X83688Y37071D01*
X83624Y37147D01*
X83556Y37220D01*
X83486Y37291D01*
X83413Y37358D01*
X83338Y37423D01*
X83260Y37485D01*
X83180Y37544D01*
X83098Y37600D01*
X83013Y37653D01*
X82927Y37702D01*
X82839Y37748D01*
X82749Y37791D01*
X82658Y37830D01*
X82565Y37865D01*
X82471Y37897D01*
X82375Y37926D01*
X82279Y37950D01*
X82182Y37971D01*
X82084Y37989D01*
X81985Y38002D01*
X81886Y38012D01*
X81787Y38018D01*
X81688Y38020D01*
X81588Y38018D01*
X81489Y38013D01*
X81390Y38004D01*
X81291Y37990D01*
X81193Y37974D01*
X81096Y37953D01*
X80999Y37929D01*
X80904Y37901D01*
X80810Y37869D01*
X80717Y37834D01*
X80625Y37795D01*
X80535Y37753D01*
X80447Y37707D01*
X80360Y37658D01*
X80276Y37606D01*
X80193Y37551D01*
X77003Y35317D01*
X72333Y32047D02*
X79034Y22476D01*
X73717Y18753D02*
X72333Y32047D01*
X67016Y28324D02*
X73717Y18753D01*
X69047Y15483D02*
X62346Y25054D01*
X59687Y23192D01*
X59687Y23193D02*
X59596Y23126D01*
X59506Y23057D01*
X59419Y22984D01*
X59335Y22908D01*
X59254Y22829D01*
X59175Y22748D01*
X59099Y22664D01*
X59026Y22577D01*
X58957Y22488D01*
X58890Y22396D01*
X58827Y22302D01*
X58767Y22206D01*
X58710Y22108D01*
X58657Y22008D01*
X58607Y21906D01*
X58561Y21802D01*
X58519Y21697D01*
X58480Y21591D01*
X58445Y21483D01*
X58414Y21374D01*
X58386Y21264D01*
X58363Y21153D01*
X58343Y21042D01*
X58327Y20930D01*
X58315Y20817D01*
X58307Y20704D01*
X58303Y20591D01*
X58303Y20477D01*
X58307Y20364D01*
X58315Y20251D01*
X58327Y20138D01*
X58343Y20026D01*
X58363Y19915D01*
X58386Y19804D01*
X58414Y19694D01*
X58445Y19585D01*
X58480Y19477D01*
X58519Y19371D01*
X58561Y19266D01*
X58607Y19162D01*
X58657Y19060D01*
X58710Y18960D01*
X58767Y18862D01*
X58827Y18766D01*
X58890Y18672D01*
X61869Y14418D01*
X61868Y14418D02*
X61935Y14327D01*
X62004Y14237D01*
X62077Y14150D01*
X62153Y14066D01*
X62232Y13985D01*
X62313Y13906D01*
X62397Y13830D01*
X62484Y13757D01*
X62574Y13688D01*
X62665Y13621D01*
X62759Y13558D01*
X62855Y13498D01*
X62953Y13441D01*
X63053Y13388D01*
X63155Y13338D01*
X63259Y13292D01*
X63364Y13250D01*
X63470Y13211D01*
X63578Y13176D01*
X63687Y13145D01*
X63797Y13117D01*
X63908Y13094D01*
X64019Y13074D01*
X64131Y13058D01*
X64244Y13046D01*
X64357Y13038D01*
X64470Y13034D01*
X64584Y13034D01*
X64697Y13038D01*
X64810Y13046D01*
X64923Y13058D01*
X65035Y13074D01*
X65146Y13094D01*
X65257Y13117D01*
X65367Y13145D01*
X65476Y13176D01*
X65584Y13211D01*
X65690Y13250D01*
X65795Y13292D01*
X65899Y13338D01*
X66001Y13388D01*
X66101Y13441D01*
X66199Y13498D01*
X66295Y13558D01*
X66389Y13621D01*
X69047Y15483D01*
X-62142Y19683D02*
X-63737Y20800D01*
X-67460Y15483D01*
X-64270Y13249D01*
X-64269Y13249D02*
X-64186Y13194D01*
X-64102Y13142D01*
X-64015Y13093D01*
X-63927Y13047D01*
X-63837Y13005D01*
X-63745Y12966D01*
X-63652Y12931D01*
X-63558Y12899D01*
X-63463Y12871D01*
X-63366Y12847D01*
X-63269Y12826D01*
X-63171Y12810D01*
X-63072Y12797D01*
X-62973Y12787D01*
X-62874Y12782D01*
X-62774Y12780D01*
X-62675Y12782D01*
X-62576Y12788D01*
X-62477Y12798D01*
X-62378Y12811D01*
X-62280Y12829D01*
X-62183Y12850D01*
X-62087Y12874D01*
X-61991Y12903D01*
X-61897Y12935D01*
X-61804Y12970D01*
X-61713Y13009D01*
X-61623Y13052D01*
X-61535Y13098D01*
X-61449Y13147D01*
X-61364Y13200D01*
X-61282Y13256D01*
X-61202Y13315D01*
X-61124Y13377D01*
X-61049Y13442D01*
X-60976Y13509D01*
X-60906Y13580D01*
X-60838Y13653D01*
X-60774Y13729D01*
X-60712Y13807D01*
X-60653Y13887D01*
X-56930Y19204D01*
X-56875Y19287D01*
X-56823Y19371D01*
X-56774Y19458D01*
X-56728Y19546D01*
X-56686Y19636D01*
X-56647Y19728D01*
X-56612Y19821D01*
X-56580Y19915D01*
X-56552Y20010D01*
X-56528Y20107D01*
X-56507Y20204D01*
X-56491Y20302D01*
X-56478Y20401D01*
X-56468Y20500D01*
X-56463Y20599D01*
X-56461Y20699D01*
X-56463Y20798D01*
X-56469Y20897D01*
X-56479Y20996D01*
X-56492Y21095D01*
X-56510Y21193D01*
X-56531Y21290D01*
X-56555Y21386D01*
X-56584Y21482D01*
X-56616Y21576D01*
X-56651Y21669D01*
X-56690Y21760D01*
X-56733Y21850D01*
X-56779Y21938D01*
X-56828Y22024D01*
X-56881Y22109D01*
X-56937Y22191D01*
X-56996Y22271D01*
X-57058Y22349D01*
X-57123Y22424D01*
X-57190Y22497D01*
X-57261Y22567D01*
X-57334Y22635D01*
X-57410Y22699D01*
X-57488Y22761D01*
X-57568Y22820D01*
X-60758Y25054D01*
X-65428Y28324D02*
X-72130Y18753D01*
X-77447Y22476D02*
X-65428Y28324D01*
X-70745Y32047D02*
X-77447Y22476D01*
X-82117Y25746D02*
X-75415Y35317D01*
X-78074Y37178D01*
X-78074Y37179D02*
X-78168Y37242D01*
X-78264Y37302D01*
X-78362Y37359D01*
X-78462Y37412D01*
X-78564Y37462D01*
X-78668Y37508D01*
X-78773Y37550D01*
X-78879Y37589D01*
X-78987Y37624D01*
X-79096Y37655D01*
X-79206Y37683D01*
X-79317Y37706D01*
X-79428Y37726D01*
X-79540Y37742D01*
X-79653Y37754D01*
X-79766Y37762D01*
X-79879Y37766D01*
X-79993Y37766D01*
X-80106Y37762D01*
X-80219Y37754D01*
X-80332Y37742D01*
X-80444Y37726D01*
X-80555Y37706D01*
X-80666Y37683D01*
X-80776Y37655D01*
X-80885Y37624D01*
X-80993Y37589D01*
X-81099Y37550D01*
X-81204Y37508D01*
X-81308Y37462D01*
X-81410Y37412D01*
X-81510Y37359D01*
X-81608Y37302D01*
X-81704Y37242D01*
X-81798Y37179D01*
X-81889Y37112D01*
X-81979Y37043D01*
X-82066Y36970D01*
X-82150Y36894D01*
X-82231Y36815D01*
X-82310Y36734D01*
X-82386Y36650D01*
X-82459Y36563D01*
X-82528Y36474D01*
X-82595Y36382D01*
X-82594Y36381D02*
X-85573Y32128D01*
X-85636Y32034D01*
X-85696Y31938D01*
X-85753Y31840D01*
X-85806Y31740D01*
X-85856Y31638D01*
X-85902Y31534D01*
X-85944Y31429D01*
X-85983Y31323D01*
X-86018Y31215D01*
X-86049Y31106D01*
X-86077Y30996D01*
X-86100Y30885D01*
X-86120Y30774D01*
X-86136Y30662D01*
X-86148Y30549D01*
X-86156Y30436D01*
X-86160Y30323D01*
X-86160Y30209D01*
X-86156Y30096D01*
X-86148Y29983D01*
X-86136Y29870D01*
X-86120Y29758D01*
X-86100Y29647D01*
X-86077Y29536D01*
X-86049Y29426D01*
X-86018Y29317D01*
X-85983Y29209D01*
X-85944Y29103D01*
X-85902Y28998D01*
X-85856Y28894D01*
X-85806Y28792D01*
X-85753Y28692D01*
X-85696Y28594D01*
X-85636Y28498D01*
X-85573Y28404D01*
X-85506Y28312D01*
X-85437Y28223D01*
X-85364Y28136D01*
X-85288Y28052D01*
X-85209Y27971D01*
X-85128Y27892D01*
X-85044Y27816D01*
X-84957Y27743D01*
X-84867Y27674D01*
X-84776Y27607D01*
X-82117Y25746D01*
X-143813Y139919D02*
X-143813Y141866D01*
X-150305Y141866D01*
X-150305Y137971D01*
X-150304Y137971D02*
X-150302Y137872D01*
X-150296Y137772D01*
X-150287Y137673D01*
X-150274Y137575D01*
X-150257Y137477D01*
X-150236Y137379D01*
X-150211Y137283D01*
X-150183Y137188D01*
X-150151Y137094D01*
X-150116Y137001D01*
X-150077Y136909D01*
X-150034Y136819D01*
X-149989Y136731D01*
X-149939Y136644D01*
X-149887Y136560D01*
X-149831Y136477D01*
X-149773Y136397D01*
X-149711Y136319D01*
X-149646Y136244D01*
X-149578Y136171D01*
X-149508Y136101D01*
X-149435Y136033D01*
X-149360Y135968D01*
X-149282Y135906D01*
X-149202Y135848D01*
X-149119Y135792D01*
X-149035Y135740D01*
X-148948Y135690D01*
X-148860Y135645D01*
X-148770Y135602D01*
X-148678Y135563D01*
X-148585Y135528D01*
X-148491Y135496D01*
X-148396Y135468D01*
X-148300Y135443D01*
X-148202Y135422D01*
X-148104Y135405D01*
X-148006Y135392D01*
X-147907Y135383D01*
X-147807Y135377D01*
X-147708Y135375D01*
X-141217Y135375D01*
X-141118Y135377D01*
X-141018Y135383D01*
X-140919Y135392D01*
X-140821Y135405D01*
X-140723Y135423D01*
X-140625Y135443D01*
X-140529Y135468D01*
X-140433Y135496D01*
X-140339Y135528D01*
X-140246Y135563D01*
X-140155Y135602D01*
X-140065Y135645D01*
X-139976Y135690D01*
X-139890Y135740D01*
X-139805Y135792D01*
X-139723Y135848D01*
X-139643Y135907D01*
X-139565Y135968D01*
X-139489Y136033D01*
X-139416Y136101D01*
X-139346Y136171D01*
X-139278Y136244D01*
X-139213Y136320D01*
X-139152Y136398D01*
X-139093Y136478D01*
X-139037Y136560D01*
X-138985Y136645D01*
X-138936Y136731D01*
X-138890Y136820D01*
X-138847Y136910D01*
X-138808Y137001D01*
X-138773Y137094D01*
X-138741Y137188D01*
X-138713Y137284D01*
X-138688Y137380D01*
X-138668Y137478D01*
X-138650Y137576D01*
X-138637Y137674D01*
X-138628Y137773D01*
X-138622Y137872D01*
X-138620Y137972D01*
X-138621Y137971D02*
X-138621Y141866D01*
X-138621Y147567D02*
X-150305Y147567D01*
X-150305Y154058D02*
X-138621Y147567D01*
X-138621Y154058D02*
X-150305Y154058D01*
X-150305Y159759D02*
X-138621Y159759D01*
X-138621Y163004D01*
X-138620Y163004D02*
X-138622Y163117D01*
X-138628Y163230D01*
X-138638Y163343D01*
X-138652Y163456D01*
X-138669Y163568D01*
X-138691Y163679D01*
X-138716Y163789D01*
X-138746Y163899D01*
X-138779Y164007D01*
X-138816Y164114D01*
X-138856Y164220D01*
X-138901Y164324D01*
X-138949Y164427D01*
X-139000Y164528D01*
X-139055Y164627D01*
X-139113Y164724D01*
X-139175Y164819D01*
X-139240Y164912D01*
X-139308Y165002D01*
X-139379Y165090D01*
X-139454Y165176D01*
X-139531Y165259D01*
X-139611Y165339D01*
X-139694Y165416D01*
X-139780Y165491D01*
X-139868Y165562D01*
X-139958Y165630D01*
X-140051Y165695D01*
X-140146Y165757D01*
X-140243Y165815D01*
X-140342Y165870D01*
X-140443Y165921D01*
X-140546Y165969D01*
X-140650Y166014D01*
X-140756Y166054D01*
X-140863Y166091D01*
X-140971Y166124D01*
X-141081Y166154D01*
X-141191Y166179D01*
X-141302Y166201D01*
X-141414Y166218D01*
X-141527Y166232D01*
X-141640Y166242D01*
X-141753Y166248D01*
X-141866Y166250D01*
X-147059Y166250D01*
X-147059Y166251D02*
X-147172Y166249D01*
X-147285Y166243D01*
X-147398Y166233D01*
X-147511Y166219D01*
X-147623Y166202D01*
X-147734Y166180D01*
X-147844Y166155D01*
X-147954Y166125D01*
X-148062Y166092D01*
X-148169Y166055D01*
X-148275Y166015D01*
X-148379Y165970D01*
X-148482Y165922D01*
X-148583Y165871D01*
X-148682Y165816D01*
X-148779Y165758D01*
X-148874Y165696D01*
X-148967Y165631D01*
X-149057Y165563D01*
X-149145Y165492D01*
X-149231Y165417D01*
X-149314Y165340D01*
X-149394Y165260D01*
X-149471Y165177D01*
X-149546Y165091D01*
X-149617Y165003D01*
X-149685Y164913D01*
X-149750Y164820D01*
X-149812Y164725D01*
X-149870Y164628D01*
X-149925Y164529D01*
X-149976Y164428D01*
X-150024Y164325D01*
X-150069Y164221D01*
X-150109Y164115D01*
X-150146Y164008D01*
X-150179Y163900D01*
X-150209Y163790D01*
X-150234Y163680D01*
X-150256Y163569D01*
X-150273Y163457D01*
X-150287Y163344D01*
X-150297Y163231D01*
X-150303Y163118D01*
X-150305Y163005D01*
X-150305Y163004D02*
X-150305Y159759D01*
X-64481Y281888D02*
X-62886Y283005D01*
X-64481Y281888D02*
X-60758Y276571D01*
X-57568Y278805D01*
X-57488Y278864D01*
X-57410Y278926D01*
X-57334Y278990D01*
X-57261Y279058D01*
X-57190Y279128D01*
X-57123Y279201D01*
X-57058Y279276D01*
X-56996Y279354D01*
X-56937Y279434D01*
X-56881Y279516D01*
X-56828Y279601D01*
X-56779Y279687D01*
X-56733Y279775D01*
X-56690Y279865D01*
X-56651Y279956D01*
X-56616Y280049D01*
X-56584Y280143D01*
X-56555Y280239D01*
X-56531Y280335D01*
X-56510Y280432D01*
X-56492Y280530D01*
X-56479Y280629D01*
X-56469Y280728D01*
X-56463Y280827D01*
X-56461Y280926D01*
X-56463Y281026D01*
X-56468Y281125D01*
X-56478Y281224D01*
X-56491Y281323D01*
X-56507Y281421D01*
X-56528Y281518D01*
X-56552Y281615D01*
X-56580Y281710D01*
X-56612Y281804D01*
X-56647Y281897D01*
X-56686Y281989D01*
X-56728Y282079D01*
X-56774Y282167D01*
X-56823Y282254D01*
X-56875Y282338D01*
X-56930Y282421D01*
X-60654Y287738D01*
X-60653Y287738D02*
X-60712Y287818D01*
X-60774Y287896D01*
X-60838Y287972D01*
X-60906Y288045D01*
X-60976Y288116D01*
X-61049Y288183D01*
X-61124Y288248D01*
X-61202Y288310D01*
X-61282Y288369D01*
X-61364Y288425D01*
X-61449Y288478D01*
X-61535Y288527D01*
X-61623Y288573D01*
X-61713Y288616D01*
X-61804Y288655D01*
X-61897Y288690D01*
X-61991Y288722D01*
X-62087Y288751D01*
X-62183Y288775D01*
X-62280Y288796D01*
X-62378Y288814D01*
X-62477Y288827D01*
X-62576Y288837D01*
X-62675Y288843D01*
X-62774Y288845D01*
X-62874Y288843D01*
X-62973Y288838D01*
X-63072Y288828D01*
X-63171Y288815D01*
X-63269Y288799D01*
X-63366Y288778D01*
X-63463Y288754D01*
X-63558Y288726D01*
X-63652Y288694D01*
X-63745Y288659D01*
X-63837Y288620D01*
X-63927Y288578D01*
X-64015Y288532D01*
X-64102Y288483D01*
X-64186Y288431D01*
X-64269Y288376D01*
X-64270Y288376D02*
X-67460Y286142D01*
X-72130Y282872D02*
X-65428Y273301D01*
X-70745Y269578D02*
X-72130Y282872D01*
X-77447Y279149D02*
X-70745Y269578D01*
X-75415Y266308D02*
X-82117Y275879D01*
X-84776Y274017D01*
X-84776Y274018D02*
X-84867Y273951D01*
X-84957Y273882D01*
X-85044Y273809D01*
X-85128Y273733D01*
X-85209Y273654D01*
X-85288Y273573D01*
X-85364Y273489D01*
X-85437Y273402D01*
X-85506Y273312D01*
X-85573Y273221D01*
X-85636Y273127D01*
X-85696Y273031D01*
X-85753Y272933D01*
X-85806Y272833D01*
X-85856Y272731D01*
X-85902Y272627D01*
X-85944Y272522D01*
X-85983Y272416D01*
X-86018Y272308D01*
X-86049Y272199D01*
X-86077Y272089D01*
X-86100Y271978D01*
X-86120Y271867D01*
X-86136Y271755D01*
X-86148Y271642D01*
X-86156Y271529D01*
X-86160Y271416D01*
X-86160Y271302D01*
X-86156Y271189D01*
X-86148Y271076D01*
X-86136Y270963D01*
X-86120Y270851D01*
X-86100Y270740D01*
X-86077Y270629D01*
X-86049Y270519D01*
X-86018Y270410D01*
X-85983Y270302D01*
X-85944Y270196D01*
X-85902Y270091D01*
X-85856Y269987D01*
X-85806Y269885D01*
X-85753Y269785D01*
X-85696Y269687D01*
X-85636Y269591D01*
X-85573Y269497D01*
X-82594Y265243D01*
X-82595Y265243D02*
X-82528Y265152D01*
X-82459Y265062D01*
X-82386Y264975D01*
X-82310Y264891D01*
X-82231Y264810D01*
X-82150Y264731D01*
X-82066Y264655D01*
X-81979Y264582D01*
X-81889Y264513D01*
X-81798Y264446D01*
X-81704Y264383D01*
X-81608Y264323D01*
X-81510Y264266D01*
X-81410Y264213D01*
X-81308Y264163D01*
X-81204Y264117D01*
X-81099Y264075D01*
X-80993Y264036D01*
X-80885Y264001D01*
X-80776Y263970D01*
X-80666Y263942D01*
X-80555Y263919D01*
X-80444Y263899D01*
X-80332Y263883D01*
X-80219Y263871D01*
X-80106Y263863D01*
X-79993Y263859D01*
X-79879Y263859D01*
X-79766Y263863D01*
X-79653Y263871D01*
X-79540Y263883D01*
X-79428Y263899D01*
X-79317Y263919D01*
X-79206Y263942D01*
X-79096Y263970D01*
X-78987Y264001D01*
X-78879Y264036D01*
X-78773Y264075D01*
X-78668Y264117D01*
X-78564Y264163D01*
X-78462Y264213D01*
X-78362Y264266D01*
X-78264Y264323D01*
X-78168Y264383D01*
X-78074Y264446D01*
X-75415Y266308D01*
D11*
X128824Y205740D02*
X128824Y187960D01*
X128824Y205740D02*
X123885Y205740D01*
X123745Y205738D01*
X123606Y205732D01*
X123466Y205722D01*
X123327Y205708D01*
X123188Y205691D01*
X123050Y205669D01*
X122913Y205643D01*
X122776Y205614D01*
X122640Y205581D01*
X122506Y205544D01*
X122372Y205503D01*
X122240Y205458D01*
X122108Y205409D01*
X121979Y205357D01*
X121851Y205302D01*
X121724Y205242D01*
X121599Y205179D01*
X121476Y205113D01*
X121355Y205043D01*
X121236Y204970D01*
X121119Y204893D01*
X121005Y204813D01*
X120892Y204730D01*
X120782Y204644D01*
X120675Y204554D01*
X120570Y204462D01*
X120468Y204367D01*
X120368Y204269D01*
X120271Y204168D01*
X120177Y204064D01*
X120087Y203958D01*
X119999Y203849D01*
X119914Y203738D01*
X119833Y203624D01*
X119754Y203509D01*
X119679Y203391D01*
X119608Y203271D01*
X119540Y203148D01*
X119475Y203025D01*
X119414Y202899D01*
X119356Y202771D01*
X119302Y202643D01*
X119252Y202512D01*
X119205Y202380D01*
X119162Y202247D01*
X119123Y202113D01*
X119088Y201978D01*
X119057Y201842D01*
X119029Y201704D01*
X119006Y201567D01*
X118986Y201428D01*
X118970Y201289D01*
X118958Y201150D01*
X118950Y201011D01*
X118946Y200871D01*
X118946Y200731D01*
X118950Y200591D01*
X118958Y200452D01*
X118970Y200313D01*
X118986Y200174D01*
X119006Y200035D01*
X119029Y199898D01*
X119057Y199760D01*
X119088Y199624D01*
X119123Y199489D01*
X119162Y199355D01*
X119205Y199222D01*
X119252Y199090D01*
X119302Y198959D01*
X119356Y198831D01*
X119414Y198703D01*
X119475Y198577D01*
X119540Y198454D01*
X119608Y198331D01*
X119679Y198211D01*
X119754Y198093D01*
X119833Y197978D01*
X119914Y197864D01*
X119999Y197753D01*
X120087Y197644D01*
X120177Y197538D01*
X120271Y197434D01*
X120368Y197333D01*
X120468Y197235D01*
X120570Y197140D01*
X120675Y197048D01*
X120782Y196958D01*
X120892Y196872D01*
X121005Y196789D01*
X121119Y196709D01*
X121236Y196632D01*
X121355Y196559D01*
X121476Y196489D01*
X121599Y196423D01*
X121724Y196360D01*
X121851Y196300D01*
X121979Y196245D01*
X122108Y196193D01*
X122240Y196144D01*
X122372Y196099D01*
X122506Y196058D01*
X122640Y196021D01*
X122776Y195988D01*
X122913Y195959D01*
X123050Y195933D01*
X123188Y195911D01*
X123327Y195894D01*
X123466Y195880D01*
X123606Y195870D01*
X123745Y195864D01*
X123885Y195862D01*
X128824Y195862D01*
X112829Y201789D02*
X107890Y205740D01*
X107890Y187960D01*
X112829Y187960D02*
X102951Y187960D01*
X101645Y101144D02*
X117043Y92254D01*
X101645Y101144D02*
X99176Y96867D01*
X99176Y96868D02*
X99108Y96745D01*
X99043Y96622D01*
X98982Y96496D01*
X98924Y96368D01*
X98870Y96240D01*
X98820Y96109D01*
X98773Y95977D01*
X98730Y95844D01*
X98691Y95710D01*
X98656Y95575D01*
X98625Y95439D01*
X98597Y95301D01*
X98574Y95164D01*
X98554Y95025D01*
X98538Y94886D01*
X98526Y94747D01*
X98518Y94608D01*
X98514Y94468D01*
X98514Y94328D01*
X98518Y94188D01*
X98526Y94049D01*
X98538Y93910D01*
X98554Y93771D01*
X98574Y93632D01*
X98597Y93495D01*
X98625Y93357D01*
X98656Y93221D01*
X98691Y93086D01*
X98730Y92952D01*
X98773Y92819D01*
X98820Y92687D01*
X98870Y92556D01*
X98924Y92428D01*
X98982Y92300D01*
X99043Y92174D01*
X99108Y92051D01*
X99176Y91928D01*
X99247Y91808D01*
X99322Y91690D01*
X99401Y91575D01*
X99482Y91461D01*
X99567Y91350D01*
X99655Y91241D01*
X99745Y91135D01*
X99839Y91031D01*
X99936Y90930D01*
X100036Y90832D01*
X100138Y90737D01*
X100243Y90645D01*
X100350Y90555D01*
X100460Y90469D01*
X100573Y90386D01*
X100687Y90306D01*
X100804Y90229D01*
X100923Y90156D01*
X101044Y90086D01*
X101167Y90020D01*
X101292Y89957D01*
X101419Y89897D01*
X101547Y89842D01*
X101677Y89790D01*
X101808Y89741D01*
X101940Y89696D01*
X102074Y89655D01*
X102208Y89618D01*
X102344Y89585D01*
X102481Y89556D01*
X102618Y89530D01*
X102756Y89508D01*
X102895Y89491D01*
X103034Y89477D01*
X103174Y89467D01*
X103313Y89461D01*
X103453Y89459D01*
X103593Y89461D01*
X103732Y89467D01*
X103872Y89477D01*
X104011Y89491D01*
X104150Y89508D01*
X104288Y89530D01*
X104425Y89556D01*
X104562Y89585D01*
X104698Y89618D01*
X104832Y89656D01*
X104966Y89696D01*
X105098Y89741D01*
X105230Y89790D01*
X105359Y89842D01*
X105487Y89897D01*
X105614Y89957D01*
X105739Y90020D01*
X105862Y90086D01*
X105983Y90156D01*
X106102Y90229D01*
X106219Y90306D01*
X106333Y90386D01*
X106446Y90469D01*
X106556Y90555D01*
X106663Y90645D01*
X106768Y90737D01*
X106870Y90832D01*
X106970Y90930D01*
X107067Y91031D01*
X107161Y91135D01*
X107251Y91241D01*
X107339Y91350D01*
X107424Y91461D01*
X107505Y91575D01*
X107584Y91690D01*
X107659Y91808D01*
X107730Y91929D01*
X107730Y91928D02*
X110199Y96206D01*
X90932Y82588D02*
X90867Y82472D01*
X90807Y82356D01*
X90749Y82237D01*
X90696Y82117D01*
X90646Y81995D01*
X90599Y81872D01*
X90556Y81747D01*
X90517Y81621D01*
X90482Y81494D01*
X90450Y81366D01*
X90422Y81238D01*
X90399Y81108D01*
X90378Y80978D01*
X90362Y80847D01*
X90350Y80716D01*
X90341Y80585D01*
X90337Y80453D01*
X90336Y80321D01*
X90339Y80189D01*
X90347Y80058D01*
X90358Y79927D01*
X90373Y79796D01*
X90391Y79665D01*
X90414Y79536D01*
X90441Y79407D01*
X90471Y79278D01*
X90505Y79151D01*
X90543Y79025D01*
X90584Y78900D01*
X90630Y78776D01*
X90679Y78654D01*
X90731Y78533D01*
X90787Y78414D01*
X90847Y78296D01*
X90910Y78181D01*
X90976Y78067D01*
X91046Y77955D01*
X91119Y77846D01*
X91195Y77738D01*
X91275Y77633D01*
X91357Y77530D01*
X91443Y77430D01*
X91531Y77332D01*
X91622Y77237D01*
X91716Y77145D01*
X91813Y77056D01*
X91913Y76969D01*
X92015Y76886D01*
X92119Y76805D01*
X92225Y76728D01*
X92334Y76654D01*
X92445Y76583D01*
X92559Y76516D01*
X90931Y82588D02*
X91008Y82716D01*
X91088Y82843D01*
X91171Y82967D01*
X91257Y83089D01*
X91347Y83209D01*
X91439Y83327D01*
X91535Y83442D01*
X91634Y83554D01*
X91735Y83664D01*
X91840Y83771D01*
X91947Y83876D01*
X92057Y83977D01*
X92169Y84076D01*
X92284Y84171D01*
X92402Y84264D01*
X92522Y84353D01*
X92644Y84440D01*
X92768Y84523D01*
X92895Y84603D01*
X93024Y84679D01*
X93154Y84752D01*
X93287Y84822D01*
X93421Y84888D01*
X93557Y84950D01*
X93694Y85009D01*
X93833Y85065D01*
X93974Y85116D01*
X94115Y85164D01*
X94258Y85209D01*
X94402Y85249D01*
X94547Y85286D01*
X94693Y85319D01*
X94840Y85348D01*
X94987Y85373D01*
X95136Y85395D01*
X95284Y85412D01*
X95433Y85426D01*
X95582Y85435D01*
X95732Y85441D01*
X95882Y85443D01*
X96031Y85441D01*
X96181Y85435D01*
X96330Y85425D01*
X96479Y85411D01*
X96627Y85393D01*
X96776Y85372D01*
X96923Y85346D01*
X97070Y85317D01*
X96293Y76070D02*
X96164Y76034D01*
X96035Y76002D01*
X95905Y75973D01*
X95774Y75948D01*
X95642Y75927D01*
X95510Y75910D01*
X95377Y75896D01*
X95245Y75885D01*
X95111Y75879D01*
X94978Y75876D01*
X94845Y75877D01*
X94712Y75882D01*
X94579Y75890D01*
X94446Y75902D01*
X94313Y75918D01*
X94182Y75937D01*
X94050Y75961D01*
X93920Y75987D01*
X93790Y76018D01*
X93661Y76052D01*
X93533Y76090D01*
X93406Y76131D01*
X93281Y76175D01*
X93157Y76224D01*
X93034Y76275D01*
X92912Y76330D01*
X92792Y76389D01*
X92674Y76451D01*
X92558Y76516D01*
X96293Y76070D02*
X109045Y78402D01*
X104106Y69848D01*
X91933Y62593D02*
X86801Y65556D01*
X91933Y62593D02*
X94054Y57376D01*
X91933Y62593D02*
X97512Y63364D01*
X91933Y62593D02*
X87506Y58875D01*
X91933Y62593D02*
X92939Y68285D01*
X12936Y37465D02*
X12936Y19685D01*
X12936Y37465D02*
X7998Y37465D01*
X7858Y37463D01*
X7719Y37457D01*
X7579Y37447D01*
X7440Y37433D01*
X7301Y37416D01*
X7163Y37394D01*
X7026Y37368D01*
X6889Y37339D01*
X6753Y37306D01*
X6619Y37269D01*
X6485Y37228D01*
X6353Y37183D01*
X6221Y37134D01*
X6092Y37082D01*
X5964Y37027D01*
X5837Y36967D01*
X5712Y36904D01*
X5589Y36838D01*
X5468Y36768D01*
X5349Y36695D01*
X5232Y36618D01*
X5118Y36538D01*
X5005Y36455D01*
X4895Y36369D01*
X4788Y36279D01*
X4683Y36187D01*
X4581Y36092D01*
X4481Y35994D01*
X4384Y35893D01*
X4290Y35789D01*
X4200Y35683D01*
X4112Y35574D01*
X4027Y35463D01*
X3946Y35349D01*
X3867Y35234D01*
X3792Y35116D01*
X3721Y34995D01*
X3653Y34873D01*
X3588Y34750D01*
X3527Y34624D01*
X3469Y34496D01*
X3415Y34368D01*
X3365Y34237D01*
X3318Y34105D01*
X3275Y33972D01*
X3236Y33838D01*
X3201Y33703D01*
X3170Y33567D01*
X3142Y33429D01*
X3119Y33292D01*
X3099Y33153D01*
X3083Y33014D01*
X3071Y32875D01*
X3063Y32736D01*
X3059Y32596D01*
X3059Y32456D01*
X3063Y32316D01*
X3071Y32177D01*
X3083Y32038D01*
X3099Y31899D01*
X3119Y31760D01*
X3142Y31623D01*
X3170Y31485D01*
X3201Y31349D01*
X3236Y31214D01*
X3275Y31080D01*
X3318Y30947D01*
X3365Y30815D01*
X3415Y30684D01*
X3469Y30556D01*
X3527Y30428D01*
X3588Y30302D01*
X3653Y30179D01*
X3721Y30056D01*
X3792Y29936D01*
X3867Y29818D01*
X3946Y29703D01*
X4027Y29589D01*
X4112Y29478D01*
X4200Y29369D01*
X4290Y29263D01*
X4384Y29159D01*
X4481Y29058D01*
X4581Y28960D01*
X4683Y28865D01*
X4788Y28773D01*
X4895Y28683D01*
X5005Y28597D01*
X5118Y28514D01*
X5232Y28434D01*
X5349Y28357D01*
X5468Y28284D01*
X5589Y28214D01*
X5712Y28148D01*
X5837Y28085D01*
X5964Y28025D01*
X6092Y27970D01*
X6221Y27918D01*
X6353Y27869D01*
X6485Y27824D01*
X6619Y27783D01*
X6753Y27746D01*
X6889Y27713D01*
X7026Y27684D01*
X7163Y27658D01*
X7301Y27636D01*
X7440Y27619D01*
X7579Y27605D01*
X7719Y27595D01*
X7858Y27589D01*
X7998Y27587D01*
X12936Y27587D01*
X-3059Y19685D02*
X-7998Y19685D01*
X-8138Y19687D01*
X-8277Y19693D01*
X-8417Y19703D01*
X-8556Y19717D01*
X-8695Y19734D01*
X-8833Y19756D01*
X-8970Y19782D01*
X-9107Y19811D01*
X-9243Y19844D01*
X-9377Y19881D01*
X-9511Y19922D01*
X-9643Y19967D01*
X-9775Y20016D01*
X-9904Y20068D01*
X-10032Y20123D01*
X-10159Y20183D01*
X-10284Y20246D01*
X-10407Y20312D01*
X-10528Y20382D01*
X-10647Y20455D01*
X-10764Y20532D01*
X-10878Y20612D01*
X-10991Y20695D01*
X-11101Y20781D01*
X-11208Y20871D01*
X-11313Y20963D01*
X-11415Y21058D01*
X-11515Y21156D01*
X-11612Y21257D01*
X-11706Y21361D01*
X-11796Y21467D01*
X-11884Y21576D01*
X-11969Y21687D01*
X-12050Y21801D01*
X-12129Y21916D01*
X-12204Y22034D01*
X-12275Y22154D01*
X-12343Y22277D01*
X-12408Y22400D01*
X-12469Y22526D01*
X-12527Y22654D01*
X-12581Y22782D01*
X-12631Y22913D01*
X-12678Y23045D01*
X-12721Y23178D01*
X-12760Y23312D01*
X-12795Y23447D01*
X-12826Y23583D01*
X-12854Y23721D01*
X-12877Y23858D01*
X-12897Y23997D01*
X-12913Y24136D01*
X-12925Y24275D01*
X-12933Y24414D01*
X-12937Y24554D01*
X-12937Y24694D01*
X-12933Y24834D01*
X-12925Y24973D01*
X-12913Y25112D01*
X-12897Y25251D01*
X-12877Y25390D01*
X-12854Y25527D01*
X-12826Y25665D01*
X-12795Y25801D01*
X-12760Y25936D01*
X-12721Y26070D01*
X-12678Y26203D01*
X-12631Y26335D01*
X-12581Y26466D01*
X-12527Y26594D01*
X-12469Y26722D01*
X-12408Y26848D01*
X-12343Y26971D01*
X-12275Y27093D01*
X-12204Y27214D01*
X-12129Y27332D01*
X-12050Y27447D01*
X-11969Y27561D01*
X-11884Y27672D01*
X-11796Y27781D01*
X-11706Y27887D01*
X-11612Y27991D01*
X-11515Y28092D01*
X-11415Y28190D01*
X-11313Y28285D01*
X-11208Y28377D01*
X-11101Y28467D01*
X-10991Y28553D01*
X-10878Y28636D01*
X-10764Y28716D01*
X-10647Y28793D01*
X-10528Y28866D01*
X-10407Y28936D01*
X-10284Y29002D01*
X-10159Y29065D01*
X-10032Y29125D01*
X-9904Y29180D01*
X-9775Y29232D01*
X-9643Y29281D01*
X-9511Y29326D01*
X-9377Y29367D01*
X-9243Y29404D01*
X-9107Y29437D01*
X-8970Y29466D01*
X-8833Y29492D01*
X-8695Y29514D01*
X-8556Y29531D01*
X-8417Y29545D01*
X-8277Y29555D01*
X-8138Y29561D01*
X-7998Y29563D01*
X-8985Y37465D02*
X-3059Y37465D01*
X-8985Y37465D02*
X-9109Y37463D01*
X-9233Y37457D01*
X-9357Y37447D01*
X-9480Y37434D01*
X-9603Y37416D01*
X-9725Y37395D01*
X-9847Y37370D01*
X-9968Y37341D01*
X-10087Y37308D01*
X-10206Y37272D01*
X-10323Y37231D01*
X-10439Y37188D01*
X-10554Y37140D01*
X-10667Y37089D01*
X-10779Y37034D01*
X-10888Y36976D01*
X-10996Y36915D01*
X-11102Y36850D01*
X-11206Y36782D01*
X-11307Y36710D01*
X-11407Y36636D01*
X-11503Y36558D01*
X-11598Y36478D01*
X-11690Y36394D01*
X-11779Y36308D01*
X-11865Y36219D01*
X-11949Y36127D01*
X-12029Y36032D01*
X-12107Y35936D01*
X-12181Y35836D01*
X-12253Y35735D01*
X-12321Y35631D01*
X-12386Y35525D01*
X-12447Y35417D01*
X-12505Y35308D01*
X-12560Y35196D01*
X-12611Y35083D01*
X-12659Y34968D01*
X-12702Y34852D01*
X-12743Y34735D01*
X-12779Y34616D01*
X-12812Y34497D01*
X-12841Y34376D01*
X-12866Y34254D01*
X-12887Y34132D01*
X-12905Y34009D01*
X-12918Y33886D01*
X-12928Y33762D01*
X-12934Y33638D01*
X-12936Y33514D01*
X-12934Y33390D01*
X-12928Y33266D01*
X-12918Y33142D01*
X-12905Y33019D01*
X-12887Y32896D01*
X-12866Y32774D01*
X-12841Y32652D01*
X-12812Y32531D01*
X-12779Y32412D01*
X-12743Y32293D01*
X-12702Y32176D01*
X-12659Y32060D01*
X-12611Y31945D01*
X-12560Y31832D01*
X-12505Y31720D01*
X-12447Y31611D01*
X-12386Y31503D01*
X-12321Y31397D01*
X-12253Y31293D01*
X-12181Y31192D01*
X-12107Y31092D01*
X-12029Y30996D01*
X-11949Y30901D01*
X-11865Y30809D01*
X-11779Y30720D01*
X-11690Y30634D01*
X-11598Y30550D01*
X-11503Y30470D01*
X-11407Y30392D01*
X-11307Y30318D01*
X-11206Y30246D01*
X-11102Y30178D01*
X-10996Y30113D01*
X-10888Y30052D01*
X-10779Y29994D01*
X-10667Y29939D01*
X-10554Y29888D01*
X-10439Y29840D01*
X-10323Y29797D01*
X-10206Y29756D01*
X-10087Y29720D01*
X-9968Y29687D01*
X-9847Y29658D01*
X-9725Y29633D01*
X-9603Y29612D01*
X-9480Y29594D01*
X-9357Y29581D01*
X-9233Y29571D01*
X-9109Y29565D01*
X-8985Y29563D01*
X-5034Y29563D01*
X-86157Y72845D02*
X-101555Y63955D01*
X-86157Y72845D02*
X-88627Y77123D01*
X-88698Y77243D01*
X-88773Y77361D01*
X-88852Y77476D01*
X-88933Y77590D01*
X-89018Y77701D01*
X-89106Y77810D01*
X-89196Y77916D01*
X-89290Y78020D01*
X-89387Y78121D01*
X-89487Y78219D01*
X-89589Y78314D01*
X-89694Y78406D01*
X-89801Y78496D01*
X-89911Y78582D01*
X-90024Y78665D01*
X-90138Y78745D01*
X-90255Y78822D01*
X-90374Y78895D01*
X-90495Y78965D01*
X-90618Y79031D01*
X-90743Y79094D01*
X-90870Y79154D01*
X-90998Y79209D01*
X-91128Y79261D01*
X-91259Y79310D01*
X-91391Y79355D01*
X-91525Y79396D01*
X-91659Y79433D01*
X-91795Y79466D01*
X-91932Y79495D01*
X-92069Y79521D01*
X-92207Y79543D01*
X-92346Y79560D01*
X-92485Y79574D01*
X-92625Y79584D01*
X-92764Y79590D01*
X-92904Y79592D01*
X-93044Y79590D01*
X-93183Y79584D01*
X-93323Y79574D01*
X-93462Y79560D01*
X-93601Y79543D01*
X-93739Y79521D01*
X-93876Y79495D01*
X-94013Y79466D01*
X-94149Y79433D01*
X-94283Y79395D01*
X-94417Y79355D01*
X-94549Y79310D01*
X-94681Y79261D01*
X-94810Y79209D01*
X-94938Y79154D01*
X-95065Y79094D01*
X-95190Y79031D01*
X-95313Y78965D01*
X-95434Y78895D01*
X-95553Y78822D01*
X-95670Y78745D01*
X-95784Y78665D01*
X-95897Y78582D01*
X-96007Y78496D01*
X-96114Y78406D01*
X-96219Y78314D01*
X-96321Y78219D01*
X-96421Y78121D01*
X-96518Y78020D01*
X-96612Y77916D01*
X-96702Y77810D01*
X-96790Y77701D01*
X-96875Y77590D01*
X-96956Y77476D01*
X-97035Y77361D01*
X-97110Y77243D01*
X-97181Y77122D01*
X-97249Y77000D01*
X-97314Y76877D01*
X-97375Y76751D01*
X-97433Y76623D01*
X-97487Y76495D01*
X-97537Y76364D01*
X-97584Y76232D01*
X-97627Y76099D01*
X-97666Y75965D01*
X-97701Y75830D01*
X-97732Y75694D01*
X-97760Y75556D01*
X-97783Y75419D01*
X-97803Y75280D01*
X-97819Y75141D01*
X-97831Y75002D01*
X-97839Y74863D01*
X-97843Y74723D01*
X-97843Y74583D01*
X-97839Y74443D01*
X-97831Y74304D01*
X-97819Y74165D01*
X-97803Y74026D01*
X-97783Y73887D01*
X-97760Y73749D01*
X-97732Y73612D01*
X-97701Y73476D01*
X-97666Y73341D01*
X-97627Y73207D01*
X-97584Y73074D01*
X-97537Y72942D01*
X-97487Y72811D01*
X-97433Y72682D01*
X-97375Y72555D01*
X-97314Y72429D01*
X-97249Y72306D01*
X-97181Y72183D01*
X-97181Y72184D02*
X-94712Y67907D01*
X-106131Y79783D02*
X-96130Y90119D01*
X-106131Y79783D02*
X-111070Y88337D01*
X-113010Y83796D02*
X-106166Y87747D01*
X-114688Y100532D02*
X-109556Y103495D01*
X-114688Y100532D02*
X-120267Y101303D01*
X-114688Y100532D02*
X-116809Y95315D01*
X-114688Y100532D02*
X-115694Y106224D01*
X-114688Y100532D02*
X-110261Y96815D01*
X-106126Y187960D02*
X-106126Y205740D01*
X-111065Y205740D01*
X-111205Y205738D01*
X-111344Y205732D01*
X-111484Y205722D01*
X-111623Y205708D01*
X-111762Y205691D01*
X-111900Y205669D01*
X-112037Y205643D01*
X-112174Y205614D01*
X-112310Y205581D01*
X-112444Y205544D01*
X-112578Y205503D01*
X-112710Y205458D01*
X-112842Y205409D01*
X-112971Y205357D01*
X-113099Y205302D01*
X-113226Y205242D01*
X-113351Y205179D01*
X-113474Y205113D01*
X-113595Y205043D01*
X-113714Y204970D01*
X-113831Y204893D01*
X-113945Y204813D01*
X-114058Y204730D01*
X-114168Y204644D01*
X-114275Y204554D01*
X-114380Y204462D01*
X-114482Y204367D01*
X-114582Y204269D01*
X-114679Y204168D01*
X-114773Y204064D01*
X-114863Y203958D01*
X-114951Y203849D01*
X-115036Y203738D01*
X-115117Y203624D01*
X-115196Y203509D01*
X-115271Y203391D01*
X-115342Y203271D01*
X-115410Y203148D01*
X-115475Y203025D01*
X-115536Y202899D01*
X-115594Y202771D01*
X-115648Y202643D01*
X-115698Y202512D01*
X-115745Y202380D01*
X-115788Y202247D01*
X-115827Y202113D01*
X-115862Y201978D01*
X-115893Y201842D01*
X-115921Y201704D01*
X-115944Y201567D01*
X-115964Y201428D01*
X-115980Y201289D01*
X-115992Y201150D01*
X-116000Y201011D01*
X-116004Y200871D01*
X-116004Y200731D01*
X-116000Y200591D01*
X-115992Y200452D01*
X-115980Y200313D01*
X-115964Y200174D01*
X-115944Y200035D01*
X-115921Y199898D01*
X-115893Y199760D01*
X-115862Y199624D01*
X-115827Y199489D01*
X-115788Y199355D01*
X-115745Y199222D01*
X-115698Y199090D01*
X-115648Y198959D01*
X-115594Y198831D01*
X-115536Y198703D01*
X-115475Y198577D01*
X-115410Y198454D01*
X-115342Y198331D01*
X-115271Y198211D01*
X-115196Y198093D01*
X-115117Y197978D01*
X-115036Y197864D01*
X-114951Y197753D01*
X-114863Y197644D01*
X-114773Y197538D01*
X-114679Y197434D01*
X-114582Y197333D01*
X-114482Y197235D01*
X-114380Y197140D01*
X-114275Y197048D01*
X-114168Y196958D01*
X-114058Y196872D01*
X-113945Y196789D01*
X-113831Y196709D01*
X-113714Y196632D01*
X-113595Y196559D01*
X-113474Y196489D01*
X-113351Y196423D01*
X-113226Y196360D01*
X-113099Y196300D01*
X-112971Y196245D01*
X-112842Y196193D01*
X-112710Y196144D01*
X-112578Y196099D01*
X-112444Y196058D01*
X-112310Y196021D01*
X-112174Y195988D01*
X-112037Y195959D01*
X-111900Y195933D01*
X-111762Y195911D01*
X-111623Y195894D01*
X-111484Y195880D01*
X-111344Y195870D01*
X-111205Y195864D01*
X-111065Y195862D01*
X-106126Y195862D01*
X-122121Y187960D02*
X-128048Y187960D01*
X-128172Y187962D01*
X-128296Y187968D01*
X-128420Y187978D01*
X-128543Y187991D01*
X-128666Y188009D01*
X-128788Y188030D01*
X-128910Y188055D01*
X-129031Y188084D01*
X-129150Y188117D01*
X-129269Y188153D01*
X-129386Y188194D01*
X-129502Y188237D01*
X-129617Y188285D01*
X-129730Y188336D01*
X-129842Y188391D01*
X-129951Y188449D01*
X-130059Y188510D01*
X-130165Y188575D01*
X-130269Y188643D01*
X-130370Y188715D01*
X-130470Y188789D01*
X-130566Y188867D01*
X-130661Y188947D01*
X-130753Y189031D01*
X-130842Y189117D01*
X-130928Y189206D01*
X-131012Y189298D01*
X-131092Y189393D01*
X-131170Y189489D01*
X-131244Y189589D01*
X-131316Y189690D01*
X-131384Y189794D01*
X-131449Y189900D01*
X-131510Y190008D01*
X-131568Y190117D01*
X-131623Y190229D01*
X-131674Y190342D01*
X-131722Y190457D01*
X-131765Y190573D01*
X-131806Y190690D01*
X-131842Y190809D01*
X-131875Y190928D01*
X-131904Y191049D01*
X-131929Y191171D01*
X-131950Y191293D01*
X-131968Y191416D01*
X-131981Y191539D01*
X-131991Y191663D01*
X-131997Y191787D01*
X-131999Y191911D01*
X-131999Y193887D01*
X-131997Y194011D01*
X-131991Y194135D01*
X-131981Y194259D01*
X-131968Y194382D01*
X-131950Y194505D01*
X-131929Y194627D01*
X-131904Y194749D01*
X-131875Y194870D01*
X-131842Y194989D01*
X-131806Y195108D01*
X-131765Y195225D01*
X-131722Y195341D01*
X-131674Y195456D01*
X-131623Y195569D01*
X-131568Y195681D01*
X-131510Y195790D01*
X-131449Y195898D01*
X-131384Y196004D01*
X-131316Y196108D01*
X-131244Y196209D01*
X-131170Y196309D01*
X-131092Y196405D01*
X-131012Y196500D01*
X-130928Y196592D01*
X-130842Y196681D01*
X-130753Y196767D01*
X-130661Y196851D01*
X-130566Y196931D01*
X-130470Y197009D01*
X-130370Y197083D01*
X-130269Y197155D01*
X-130165Y197223D01*
X-130059Y197288D01*
X-129951Y197349D01*
X-129842Y197407D01*
X-129730Y197462D01*
X-129617Y197513D01*
X-129502Y197561D01*
X-129386Y197604D01*
X-129269Y197645D01*
X-129150Y197681D01*
X-129031Y197714D01*
X-128910Y197743D01*
X-128788Y197768D01*
X-128666Y197789D01*
X-128543Y197807D01*
X-128420Y197820D01*
X-128296Y197830D01*
X-128172Y197836D01*
X-128048Y197838D01*
X-122121Y197838D01*
X-122121Y205740D01*
X-131999Y205740D01*
X6657Y183515D02*
X6657Y165735D01*
X6657Y175613D02*
X-3221Y175613D01*
X-3221Y183515D02*
X-3221Y165735D01*
X-10652Y179564D02*
X-15591Y183515D01*
X-15591Y165735D01*
X-10652Y165735D02*
X-20530Y165735D01*
X-27961Y165735D02*
X-27961Y183515D01*
X-32900Y183515D01*
X-33039Y183513D01*
X-33177Y183507D01*
X-33315Y183498D01*
X-33453Y183484D01*
X-33590Y183467D01*
X-33727Y183445D01*
X-33864Y183420D01*
X-33999Y183391D01*
X-34134Y183358D01*
X-34267Y183322D01*
X-34400Y183282D01*
X-34531Y183238D01*
X-34661Y183190D01*
X-34790Y183139D01*
X-34917Y183084D01*
X-35043Y183026D01*
X-35167Y182964D01*
X-35289Y182899D01*
X-35409Y182830D01*
X-35528Y182758D01*
X-35644Y182683D01*
X-35758Y182604D01*
X-35870Y182522D01*
X-35979Y182437D01*
X-36087Y182350D01*
X-36191Y182259D01*
X-36293Y182165D01*
X-36392Y182068D01*
X-36489Y181969D01*
X-36583Y181867D01*
X-36674Y181763D01*
X-36761Y181655D01*
X-36846Y181546D01*
X-36928Y181434D01*
X-37007Y181320D01*
X-37082Y181204D01*
X-37154Y181085D01*
X-37223Y180965D01*
X-37288Y180843D01*
X-37350Y180719D01*
X-37408Y180593D01*
X-37463Y180466D01*
X-37514Y180337D01*
X-37562Y180207D01*
X-37606Y180076D01*
X-37646Y179943D01*
X-37682Y179810D01*
X-37715Y179675D01*
X-37744Y179540D01*
X-37769Y179403D01*
X-37791Y179266D01*
X-37808Y179129D01*
X-37822Y178991D01*
X-37831Y178853D01*
X-37837Y178715D01*
X-37839Y178576D01*
X-37839Y170674D01*
X-37837Y170535D01*
X-37831Y170397D01*
X-37822Y170259D01*
X-37808Y170121D01*
X-37791Y169984D01*
X-37769Y169847D01*
X-37744Y169710D01*
X-37715Y169575D01*
X-37682Y169440D01*
X-37646Y169307D01*
X-37606Y169174D01*
X-37562Y169043D01*
X-37514Y168913D01*
X-37463Y168784D01*
X-37408Y168657D01*
X-37350Y168531D01*
X-37288Y168407D01*
X-37223Y168285D01*
X-37154Y168165D01*
X-37082Y168046D01*
X-37007Y167930D01*
X-36928Y167816D01*
X-36846Y167704D01*
X-36761Y167595D01*
X-36674Y167487D01*
X-36583Y167383D01*
X-36489Y167281D01*
X-36392Y167182D01*
X-36293Y167085D01*
X-36191Y166991D01*
X-36087Y166900D01*
X-35979Y166813D01*
X-35870Y166728D01*
X-35758Y166646D01*
X-35644Y166567D01*
X-35528Y166492D01*
X-35409Y166420D01*
X-35289Y166351D01*
X-35167Y166286D01*
X-35043Y166224D01*
X-34917Y166166D01*
X-34790Y166111D01*
X-34661Y166060D01*
X-34531Y166012D01*
X-34400Y165968D01*
X-34267Y165928D01*
X-34134Y165892D01*
X-33999Y165859D01*
X-33864Y165830D01*
X-33727Y165805D01*
X-33590Y165783D01*
X-33453Y165766D01*
X-33315Y165752D01*
X-33177Y165743D01*
X-33039Y165737D01*
X-32900Y165735D01*
X-27961Y165735D01*
X-45914Y165735D02*
X-45914Y183515D01*
X-50852Y183515D01*
X-50992Y183513D01*
X-51131Y183507D01*
X-51271Y183497D01*
X-51410Y183483D01*
X-51549Y183466D01*
X-51687Y183444D01*
X-51824Y183418D01*
X-51961Y183389D01*
X-52097Y183356D01*
X-52231Y183319D01*
X-52365Y183278D01*
X-52497Y183233D01*
X-52629Y183184D01*
X-52758Y183132D01*
X-52886Y183077D01*
X-53013Y183017D01*
X-53138Y182954D01*
X-53261Y182888D01*
X-53382Y182818D01*
X-53501Y182745D01*
X-53618Y182668D01*
X-53732Y182588D01*
X-53845Y182505D01*
X-53955Y182419D01*
X-54062Y182329D01*
X-54167Y182237D01*
X-54269Y182142D01*
X-54369Y182044D01*
X-54466Y181943D01*
X-54560Y181839D01*
X-54650Y181733D01*
X-54738Y181624D01*
X-54823Y181513D01*
X-54904Y181399D01*
X-54983Y181284D01*
X-55058Y181166D01*
X-55129Y181046D01*
X-55197Y180923D01*
X-55262Y180800D01*
X-55323Y180674D01*
X-55381Y180546D01*
X-55435Y180418D01*
X-55485Y180287D01*
X-55532Y180155D01*
X-55575Y180022D01*
X-55614Y179888D01*
X-55649Y179753D01*
X-55680Y179617D01*
X-55708Y179479D01*
X-55731Y179342D01*
X-55751Y179203D01*
X-55767Y179064D01*
X-55779Y178925D01*
X-55787Y178786D01*
X-55791Y178646D01*
X-55791Y178506D01*
X-55787Y178366D01*
X-55779Y178227D01*
X-55767Y178088D01*
X-55751Y177949D01*
X-55731Y177810D01*
X-55708Y177673D01*
X-55680Y177535D01*
X-55649Y177399D01*
X-55614Y177264D01*
X-55575Y177130D01*
X-55532Y176997D01*
X-55485Y176865D01*
X-55435Y176734D01*
X-55381Y176606D01*
X-55323Y176478D01*
X-55262Y176352D01*
X-55197Y176229D01*
X-55129Y176106D01*
X-55058Y175986D01*
X-54983Y175868D01*
X-54904Y175753D01*
X-54823Y175639D01*
X-54738Y175528D01*
X-54650Y175419D01*
X-54560Y175313D01*
X-54466Y175209D01*
X-54369Y175108D01*
X-54269Y175010D01*
X-54167Y174915D01*
X-54062Y174823D01*
X-53955Y174733D01*
X-53845Y174647D01*
X-53732Y174564D01*
X-53618Y174484D01*
X-53501Y174407D01*
X-53382Y174334D01*
X-53261Y174264D01*
X-53138Y174198D01*
X-53013Y174135D01*
X-52886Y174075D01*
X-52758Y174020D01*
X-52629Y173968D01*
X-52497Y173919D01*
X-52365Y173874D01*
X-52231Y173833D01*
X-52097Y173796D01*
X-51961Y173763D01*
X-51824Y173734D01*
X-51687Y173708D01*
X-51549Y173686D01*
X-51410Y173669D01*
X-51271Y173655D01*
X-51131Y173645D01*
X-50992Y173639D01*
X-50852Y173637D01*
X-45914Y173637D01*
X-51840Y173637D02*
X-55791Y165735D01*
X-62578Y179564D02*
X-67517Y183515D01*
X-67517Y165735D01*
X-62578Y165735D02*
X-72456Y165735D01*
X-79329Y179564D02*
X-84268Y183515D01*
X-84268Y165735D01*
X-79329Y165735D02*
X-89207Y165735D01*
X-20505Y278257D02*
X-20505Y294513D01*
X-15990Y294513D02*
X-25021Y294513D01*
X-35094Y294513D02*
X-29676Y278257D01*
X-40513Y278257D02*
X-35094Y294513D01*
X-39158Y282321D02*
X-31030Y282321D01*
X34886Y278257D02*
X34886Y294513D01*
X30371Y294513D02*
X39402Y294513D01*
X24081Y287288D02*
X19565Y287288D01*
X19565Y287289D02*
X19432Y287287D01*
X19300Y287281D01*
X19168Y287271D01*
X19036Y287258D01*
X18904Y287240D01*
X18774Y287219D01*
X18643Y287194D01*
X18514Y287165D01*
X18386Y287132D01*
X18258Y287096D01*
X18132Y287056D01*
X18007Y287012D01*
X17883Y286964D01*
X17761Y286913D01*
X17640Y286858D01*
X17521Y286800D01*
X17403Y286738D01*
X17288Y286673D01*
X17174Y286604D01*
X17063Y286533D01*
X16954Y286457D01*
X16847Y286379D01*
X16742Y286298D01*
X16640Y286213D01*
X16540Y286126D01*
X16443Y286036D01*
X16348Y285943D01*
X16257Y285847D01*
X16168Y285749D01*
X16082Y285648D01*
X15999Y285544D01*
X15919Y285438D01*
X15843Y285330D01*
X15769Y285220D01*
X15699Y285107D01*
X15632Y284993D01*
X15569Y284876D01*
X15509Y284758D01*
X15452Y284638D01*
X15399Y284516D01*
X15350Y284393D01*
X15304Y284269D01*
X15262Y284143D01*
X15224Y284016D01*
X15189Y283888D01*
X15158Y283759D01*
X15131Y283630D01*
X15108Y283499D01*
X15088Y283368D01*
X15073Y283236D01*
X15061Y283104D01*
X15053Y282972D01*
X15049Y282839D01*
X15049Y282707D01*
X15053Y282574D01*
X15061Y282442D01*
X15073Y282310D01*
X15088Y282178D01*
X15108Y282047D01*
X15131Y281916D01*
X15158Y281787D01*
X15189Y281658D01*
X15224Y281530D01*
X15262Y281403D01*
X15304Y281277D01*
X15350Y281153D01*
X15399Y281030D01*
X15452Y280908D01*
X15509Y280788D01*
X15569Y280670D01*
X15632Y280553D01*
X15699Y280439D01*
X15769Y280326D01*
X15843Y280216D01*
X15919Y280108D01*
X15999Y280002D01*
X16082Y279898D01*
X16168Y279797D01*
X16257Y279699D01*
X16348Y279603D01*
X16443Y279510D01*
X16540Y279420D01*
X16640Y279333D01*
X16742Y279248D01*
X16847Y279167D01*
X16954Y279089D01*
X17063Y279013D01*
X17174Y278942D01*
X17288Y278873D01*
X17403Y278808D01*
X17521Y278746D01*
X17640Y278688D01*
X17761Y278633D01*
X17883Y278582D01*
X18007Y278534D01*
X18132Y278490D01*
X18258Y278450D01*
X18386Y278414D01*
X18514Y278381D01*
X18643Y278352D01*
X18774Y278327D01*
X18904Y278306D01*
X19036Y278288D01*
X19168Y278275D01*
X19300Y278265D01*
X19432Y278259D01*
X19565Y278257D01*
X24081Y278257D01*
X24081Y294513D01*
X19565Y294513D01*
X19446Y294511D01*
X19326Y294505D01*
X19207Y294495D01*
X19089Y294481D01*
X18970Y294464D01*
X18853Y294442D01*
X18736Y294417D01*
X18621Y294387D01*
X18506Y294354D01*
X18392Y294317D01*
X18280Y294277D01*
X18169Y294232D01*
X18060Y294184D01*
X17952Y294133D01*
X17846Y294078D01*
X17742Y294019D01*
X17640Y293957D01*
X17540Y293892D01*
X17442Y293823D01*
X17346Y293751D01*
X17253Y293676D01*
X17163Y293599D01*
X17075Y293518D01*
X16990Y293434D01*
X16908Y293347D01*
X16828Y293258D01*
X16752Y293166D01*
X16678Y293072D01*
X16608Y292975D01*
X16541Y292877D01*
X16477Y292776D01*
X16417Y292672D01*
X16360Y292567D01*
X16307Y292460D01*
X16257Y292352D01*
X16211Y292242D01*
X16169Y292130D01*
X16130Y292017D01*
X16095Y291903D01*
X16064Y291788D01*
X16036Y291671D01*
X16013Y291554D01*
X15993Y291437D01*
X15977Y291318D01*
X15965Y291199D01*
X15957Y291080D01*
X15953Y290961D01*
X15953Y290841D01*
X15957Y290722D01*
X15965Y290603D01*
X15977Y290484D01*
X15993Y290365D01*
X16013Y290248D01*
X16036Y290131D01*
X16064Y290014D01*
X16095Y289899D01*
X16130Y289785D01*
X16169Y289672D01*
X16211Y289560D01*
X16257Y289450D01*
X16307Y289342D01*
X16360Y289235D01*
X16417Y289130D01*
X16477Y289026D01*
X16541Y288925D01*
X16608Y288827D01*
X16678Y288730D01*
X16752Y288636D01*
X16828Y288544D01*
X16908Y288455D01*
X16990Y288368D01*
X17075Y288284D01*
X17163Y288203D01*
X17253Y288126D01*
X17346Y288051D01*
X17442Y287979D01*
X17540Y287910D01*
X17640Y287845D01*
X17742Y287783D01*
X17846Y287724D01*
X17952Y287669D01*
X18060Y287618D01*
X18169Y287570D01*
X18280Y287525D01*
X18392Y287485D01*
X18506Y287448D01*
X18621Y287415D01*
X18736Y287385D01*
X18853Y287360D01*
X18970Y287338D01*
X19089Y287321D01*
X19207Y287307D01*
X19326Y287297D01*
X19446Y287291D01*
X19565Y287289D01*
D12*
X-45699Y229997D02*
X-43244Y222631D01*
X-48154Y222631D02*
X-45699Y229997D01*
X-47540Y224473D02*
X-43857Y224473D01*
X-52582Y222631D02*
X-54219Y222631D01*
X-52582Y222631D02*
X-52504Y222633D01*
X-52426Y222638D01*
X-52349Y222648D01*
X-52272Y222661D01*
X-52196Y222677D01*
X-52121Y222697D01*
X-52047Y222721D01*
X-51974Y222748D01*
X-51902Y222779D01*
X-51832Y222813D01*
X-51763Y222850D01*
X-51697Y222891D01*
X-51632Y222935D01*
X-51570Y222981D01*
X-51510Y223031D01*
X-51452Y223083D01*
X-51397Y223138D01*
X-51345Y223196D01*
X-51295Y223256D01*
X-51249Y223318D01*
X-51205Y223383D01*
X-51164Y223450D01*
X-51127Y223518D01*
X-51093Y223588D01*
X-51062Y223660D01*
X-51035Y223733D01*
X-51011Y223807D01*
X-50991Y223882D01*
X-50975Y223958D01*
X-50962Y224035D01*
X-50952Y224112D01*
X-50947Y224190D01*
X-50945Y224268D01*
X-50945Y228360D01*
X-50947Y228440D01*
X-50953Y228520D01*
X-50963Y228600D01*
X-50976Y228679D01*
X-50994Y228758D01*
X-51015Y228835D01*
X-51041Y228911D01*
X-51070Y228986D01*
X-51102Y229060D01*
X-51138Y229132D01*
X-51178Y229202D01*
X-51221Y229269D01*
X-51267Y229335D01*
X-51317Y229398D01*
X-51369Y229459D01*
X-51424Y229518D01*
X-51483Y229573D01*
X-51543Y229625D01*
X-51607Y229675D01*
X-51673Y229721D01*
X-51740Y229764D01*
X-51810Y229804D01*
X-51882Y229840D01*
X-51956Y229872D01*
X-52030Y229901D01*
X-52107Y229927D01*
X-52184Y229948D01*
X-52263Y229966D01*
X-52342Y229979D01*
X-52422Y229989D01*
X-52502Y229995D01*
X-52582Y229997D01*
X-54219Y229997D01*
X-62524Y229997D02*
X-62524Y222631D01*
X-60478Y229997D02*
X-64570Y229997D01*
X-68454Y222631D02*
X-70500Y222631D01*
X-68454Y222631D02*
X-68385Y222633D01*
X-68317Y222639D01*
X-68248Y222648D01*
X-68181Y222662D01*
X-68114Y222679D01*
X-68048Y222700D01*
X-67984Y222724D01*
X-67921Y222753D01*
X-67860Y222784D01*
X-67801Y222819D01*
X-67743Y222857D01*
X-67688Y222899D01*
X-67636Y222943D01*
X-67586Y222991D01*
X-67538Y223041D01*
X-67494Y223093D01*
X-67452Y223148D01*
X-67414Y223206D01*
X-67379Y223265D01*
X-67348Y223326D01*
X-67319Y223389D01*
X-67295Y223453D01*
X-67274Y223519D01*
X-67257Y223586D01*
X-67243Y223653D01*
X-67234Y223722D01*
X-67228Y223790D01*
X-67226Y223859D01*
X-67227Y223859D02*
X-67227Y225905D01*
X-67229Y225984D01*
X-67235Y226063D01*
X-67244Y226142D01*
X-67257Y226220D01*
X-67275Y226297D01*
X-67295Y226373D01*
X-67320Y226448D01*
X-67348Y226522D01*
X-67379Y226595D01*
X-67415Y226666D01*
X-67453Y226735D01*
X-67495Y226802D01*
X-67540Y226867D01*
X-67588Y226930D01*
X-67639Y226991D01*
X-67693Y227048D01*
X-67749Y227104D01*
X-67808Y227156D01*
X-67870Y227206D01*
X-67934Y227252D01*
X-68000Y227296D01*
X-68068Y227336D01*
X-68138Y227372D01*
X-68210Y227406D01*
X-68284Y227436D01*
X-68358Y227462D01*
X-68434Y227485D01*
X-68511Y227503D01*
X-68588Y227519D01*
X-68667Y227530D01*
X-68745Y227538D01*
X-68824Y227542D01*
X-68904Y227542D01*
X-68983Y227538D01*
X-69061Y227530D01*
X-69140Y227519D01*
X-69217Y227503D01*
X-69294Y227485D01*
X-69370Y227462D01*
X-69444Y227436D01*
X-69518Y227406D01*
X-69590Y227372D01*
X-69660Y227336D01*
X-69728Y227296D01*
X-69794Y227252D01*
X-69858Y227206D01*
X-69920Y227156D01*
X-69979Y227104D01*
X-70035Y227048D01*
X-70089Y226991D01*
X-70140Y226930D01*
X-70188Y226867D01*
X-70233Y226802D01*
X-70275Y226735D01*
X-70313Y226666D01*
X-70349Y226595D01*
X-70380Y226522D01*
X-70408Y226448D01*
X-70433Y226373D01*
X-70453Y226297D01*
X-70471Y226220D01*
X-70484Y226142D01*
X-70493Y226063D01*
X-70499Y225984D01*
X-70501Y225905D01*
X-70500Y225905D02*
X-70500Y225086D01*
X-67227Y225086D01*
X-73856Y222631D02*
X-73856Y227542D01*
X-76312Y227542D01*
X-76312Y226723D01*
X-79088Y227542D02*
X-79088Y222631D01*
X-79088Y227542D02*
X-82771Y227542D01*
X-82840Y227540D01*
X-82908Y227534D01*
X-82977Y227525D01*
X-83044Y227511D01*
X-83111Y227494D01*
X-83177Y227473D01*
X-83241Y227449D01*
X-83304Y227420D01*
X-83365Y227389D01*
X-83424Y227354D01*
X-83482Y227316D01*
X-83537Y227274D01*
X-83589Y227230D01*
X-83639Y227182D01*
X-83687Y227132D01*
X-83731Y227080D01*
X-83773Y227025D01*
X-83811Y226967D01*
X-83846Y226908D01*
X-83877Y226847D01*
X-83906Y226784D01*
X-83930Y226720D01*
X-83951Y226654D01*
X-83968Y226587D01*
X-83982Y226520D01*
X-83991Y226451D01*
X-83997Y226383D01*
X-83999Y226314D01*
X-83999Y222631D01*
X-81543Y222631D02*
X-81543Y227542D01*
X85421Y233553D02*
X85421Y240919D01*
X83375Y240919D01*
X83286Y240917D01*
X83197Y240911D01*
X83108Y240901D01*
X83020Y240888D01*
X82932Y240871D01*
X82845Y240849D01*
X82760Y240824D01*
X82675Y240796D01*
X82592Y240763D01*
X82510Y240727D01*
X82430Y240688D01*
X82352Y240645D01*
X82276Y240599D01*
X82201Y240549D01*
X82129Y240496D01*
X82060Y240440D01*
X81993Y240381D01*
X81928Y240320D01*
X81867Y240255D01*
X81808Y240188D01*
X81752Y240119D01*
X81699Y240047D01*
X81649Y239972D01*
X81603Y239896D01*
X81560Y239818D01*
X81521Y239738D01*
X81485Y239656D01*
X81452Y239573D01*
X81424Y239488D01*
X81399Y239403D01*
X81377Y239316D01*
X81360Y239228D01*
X81347Y239140D01*
X81337Y239051D01*
X81331Y238962D01*
X81329Y238873D01*
X81328Y238873D02*
X81328Y235599D01*
X81329Y235599D02*
X81331Y235510D01*
X81337Y235421D01*
X81347Y235332D01*
X81360Y235244D01*
X81377Y235156D01*
X81399Y235069D01*
X81424Y234984D01*
X81452Y234899D01*
X81485Y234816D01*
X81521Y234734D01*
X81560Y234654D01*
X81603Y234576D01*
X81649Y234500D01*
X81699Y234425D01*
X81752Y234353D01*
X81808Y234284D01*
X81867Y234217D01*
X81928Y234152D01*
X81993Y234091D01*
X82060Y234032D01*
X82129Y233976D01*
X82201Y233923D01*
X82276Y233873D01*
X82352Y233827D01*
X82430Y233784D01*
X82510Y233745D01*
X82592Y233709D01*
X82675Y233676D01*
X82760Y233648D01*
X82845Y233623D01*
X82932Y233601D01*
X83020Y233584D01*
X83108Y233571D01*
X83197Y233561D01*
X83286Y233555D01*
X83375Y233553D01*
X85421Y233553D01*
X76248Y233553D02*
X74611Y233553D01*
X76248Y233553D02*
X76326Y233555D01*
X76404Y233560D01*
X76481Y233570D01*
X76558Y233583D01*
X76634Y233599D01*
X76709Y233619D01*
X76783Y233643D01*
X76856Y233670D01*
X76928Y233701D01*
X76998Y233735D01*
X77067Y233772D01*
X77133Y233813D01*
X77198Y233857D01*
X77260Y233903D01*
X77320Y233953D01*
X77378Y234005D01*
X77433Y234060D01*
X77485Y234118D01*
X77535Y234178D01*
X77581Y234240D01*
X77625Y234305D01*
X77666Y234372D01*
X77703Y234440D01*
X77737Y234510D01*
X77768Y234582D01*
X77795Y234655D01*
X77819Y234729D01*
X77839Y234804D01*
X77855Y234880D01*
X77868Y234957D01*
X77878Y235034D01*
X77883Y235112D01*
X77885Y235190D01*
X77885Y239282D01*
X77883Y239360D01*
X77878Y239438D01*
X77868Y239515D01*
X77855Y239592D01*
X77839Y239668D01*
X77819Y239743D01*
X77795Y239817D01*
X77768Y239890D01*
X77737Y239962D01*
X77703Y240032D01*
X77666Y240101D01*
X77625Y240167D01*
X77581Y240232D01*
X77535Y240294D01*
X77485Y240354D01*
X77433Y240412D01*
X77378Y240467D01*
X77320Y240519D01*
X77260Y240569D01*
X77198Y240615D01*
X77133Y240659D01*
X77067Y240700D01*
X76998Y240737D01*
X76928Y240771D01*
X76856Y240802D01*
X76783Y240829D01*
X76709Y240853D01*
X76634Y240873D01*
X76558Y240889D01*
X76481Y240902D01*
X76404Y240912D01*
X76326Y240917D01*
X76248Y240919D01*
X74611Y240919D01*
X66306Y240919D02*
X66306Y233553D01*
X68352Y240919D02*
X64260Y240919D01*
X60375Y233553D02*
X58329Y233553D01*
X60375Y233553D02*
X60444Y233555D01*
X60512Y233561D01*
X60581Y233570D01*
X60648Y233584D01*
X60715Y233601D01*
X60781Y233622D01*
X60845Y233646D01*
X60908Y233675D01*
X60969Y233706D01*
X61028Y233741D01*
X61086Y233779D01*
X61141Y233821D01*
X61193Y233865D01*
X61243Y233913D01*
X61291Y233963D01*
X61335Y234015D01*
X61377Y234070D01*
X61415Y234128D01*
X61450Y234187D01*
X61481Y234248D01*
X61510Y234311D01*
X61534Y234375D01*
X61555Y234441D01*
X61572Y234508D01*
X61586Y234575D01*
X61595Y234644D01*
X61601Y234712D01*
X61603Y234781D01*
X61603Y236827D01*
X61601Y236906D01*
X61595Y236985D01*
X61586Y237064D01*
X61573Y237142D01*
X61555Y237219D01*
X61535Y237295D01*
X61510Y237370D01*
X61482Y237444D01*
X61451Y237517D01*
X61415Y237588D01*
X61377Y237657D01*
X61335Y237724D01*
X61290Y237789D01*
X61242Y237852D01*
X61191Y237913D01*
X61137Y237970D01*
X61081Y238026D01*
X61022Y238078D01*
X60960Y238128D01*
X60896Y238174D01*
X60830Y238218D01*
X60762Y238258D01*
X60692Y238294D01*
X60620Y238328D01*
X60546Y238358D01*
X60472Y238384D01*
X60396Y238407D01*
X60319Y238425D01*
X60242Y238441D01*
X60163Y238452D01*
X60085Y238460D01*
X60006Y238464D01*
X59926Y238464D01*
X59847Y238460D01*
X59769Y238452D01*
X59690Y238441D01*
X59613Y238425D01*
X59536Y238407D01*
X59460Y238384D01*
X59386Y238358D01*
X59312Y238328D01*
X59240Y238294D01*
X59170Y238258D01*
X59102Y238218D01*
X59036Y238174D01*
X58972Y238128D01*
X58910Y238078D01*
X58851Y238026D01*
X58795Y237970D01*
X58741Y237913D01*
X58690Y237852D01*
X58642Y237789D01*
X58597Y237724D01*
X58555Y237657D01*
X58517Y237588D01*
X58481Y237517D01*
X58450Y237444D01*
X58422Y237370D01*
X58397Y237295D01*
X58377Y237219D01*
X58359Y237142D01*
X58346Y237064D01*
X58337Y236985D01*
X58331Y236906D01*
X58329Y236827D01*
X58329Y236008D01*
X61603Y236008D01*
X54973Y233553D02*
X54973Y238464D01*
X52518Y238464D01*
X52518Y237645D01*
X49742Y238464D02*
X49742Y233553D01*
X49742Y238464D02*
X46059Y238464D01*
X45990Y238462D01*
X45922Y238456D01*
X45853Y238447D01*
X45786Y238433D01*
X45719Y238416D01*
X45653Y238395D01*
X45589Y238371D01*
X45526Y238342D01*
X45465Y238311D01*
X45406Y238276D01*
X45348Y238238D01*
X45293Y238196D01*
X45241Y238152D01*
X45191Y238104D01*
X45143Y238054D01*
X45099Y238002D01*
X45058Y237947D01*
X45019Y237889D01*
X44984Y237830D01*
X44953Y237769D01*
X44924Y237706D01*
X44900Y237642D01*
X44879Y237576D01*
X44862Y237509D01*
X44848Y237442D01*
X44839Y237374D01*
X44833Y237305D01*
X44831Y237236D01*
X44831Y233553D01*
X47286Y233553D02*
X47286Y238464D01*
D10*
X34022Y129596D02*
X34022Y125702D01*
X31750Y122781D01*
X34022Y125702D02*
X36294Y122781D01*
X34022Y125702D02*
X30452Y127000D01*
X34022Y125702D02*
X37592Y127000D01*
D13*
X-22098Y236538D02*
X-28702Y236538D01*
D12*
X-21752Y211201D02*
X-20115Y211201D01*
X-20037Y211203D01*
X-19959Y211208D01*
X-19882Y211218D01*
X-19805Y211231D01*
X-19729Y211247D01*
X-19654Y211267D01*
X-19580Y211291D01*
X-19507Y211318D01*
X-19435Y211349D01*
X-19365Y211383D01*
X-19296Y211420D01*
X-19230Y211461D01*
X-19165Y211505D01*
X-19103Y211551D01*
X-19043Y211601D01*
X-18985Y211653D01*
X-18930Y211708D01*
X-18878Y211766D01*
X-18828Y211826D01*
X-18782Y211888D01*
X-18738Y211953D01*
X-18697Y212020D01*
X-18660Y212088D01*
X-18626Y212158D01*
X-18595Y212230D01*
X-18568Y212303D01*
X-18544Y212377D01*
X-18524Y212452D01*
X-18508Y212528D01*
X-18495Y212605D01*
X-18485Y212682D01*
X-18480Y212760D01*
X-18478Y212838D01*
X-18479Y212838D02*
X-18479Y216930D01*
X-18478Y216930D02*
X-18480Y217010D01*
X-18486Y217090D01*
X-18496Y217170D01*
X-18509Y217249D01*
X-18527Y217328D01*
X-18548Y217405D01*
X-18574Y217481D01*
X-18603Y217556D01*
X-18635Y217630D01*
X-18671Y217702D01*
X-18711Y217772D01*
X-18754Y217839D01*
X-18800Y217905D01*
X-18850Y217968D01*
X-18902Y218029D01*
X-18957Y218088D01*
X-19016Y218143D01*
X-19076Y218195D01*
X-19140Y218245D01*
X-19206Y218291D01*
X-19273Y218334D01*
X-19343Y218374D01*
X-19415Y218410D01*
X-19489Y218442D01*
X-19563Y218471D01*
X-19640Y218497D01*
X-19717Y218518D01*
X-19796Y218536D01*
X-19875Y218549D01*
X-19955Y218559D01*
X-20035Y218565D01*
X-20115Y218567D01*
X-21752Y218567D01*
X-24598Y216930D02*
X-26644Y218567D01*
X-26644Y211201D01*
X-24598Y211201D02*
X-28690Y211201D01*
X-36006Y216726D02*
X-36004Y216811D01*
X-35998Y216896D01*
X-35988Y216980D01*
X-35975Y217064D01*
X-35957Y217148D01*
X-35936Y217230D01*
X-35911Y217311D01*
X-35882Y217391D01*
X-35849Y217470D01*
X-35813Y217547D01*
X-35773Y217622D01*
X-35730Y217696D01*
X-35684Y217767D01*
X-35634Y217836D01*
X-35581Y217903D01*
X-35525Y217967D01*
X-35466Y218028D01*
X-35405Y218087D01*
X-35341Y218143D01*
X-35274Y218196D01*
X-35205Y218246D01*
X-35134Y218292D01*
X-35060Y218335D01*
X-34985Y218375D01*
X-34908Y218411D01*
X-34829Y218444D01*
X-34749Y218473D01*
X-34668Y218498D01*
X-34586Y218519D01*
X-34502Y218537D01*
X-34418Y218550D01*
X-34334Y218560D01*
X-34249Y218566D01*
X-34164Y218568D01*
X-34164Y218567D02*
X-34068Y218565D01*
X-33972Y218559D01*
X-33877Y218549D01*
X-33782Y218536D01*
X-33687Y218518D01*
X-33594Y218497D01*
X-33501Y218472D01*
X-33410Y218443D01*
X-33319Y218411D01*
X-33230Y218375D01*
X-33143Y218335D01*
X-33057Y218292D01*
X-32973Y218246D01*
X-32891Y218196D01*
X-32811Y218142D01*
X-32734Y218086D01*
X-32659Y218026D01*
X-32586Y217964D01*
X-32516Y217898D01*
X-32448Y217830D01*
X-32383Y217759D01*
X-32322Y217686D01*
X-32263Y217610D01*
X-32207Y217531D01*
X-32155Y217451D01*
X-32106Y217368D01*
X-32060Y217284D01*
X-32018Y217198D01*
X-31980Y217110D01*
X-31945Y217021D01*
X-31913Y216930D01*
X-35391Y215294D02*
X-35451Y215353D01*
X-35508Y215415D01*
X-35563Y215479D01*
X-35614Y215546D01*
X-35663Y215615D01*
X-35709Y215685D01*
X-35752Y215758D01*
X-35792Y215832D01*
X-35828Y215908D01*
X-35861Y215986D01*
X-35891Y216065D01*
X-35918Y216145D01*
X-35941Y216226D01*
X-35960Y216308D01*
X-35976Y216390D01*
X-35989Y216474D01*
X-35998Y216558D01*
X-36003Y216642D01*
X-36005Y216726D01*
X-35391Y215293D02*
X-31913Y211201D01*
X-36005Y211201D01*
D13*
X-28702Y227013D02*
X-22352Y227013D01*
D12*
X-22357Y207259D02*
X-22357Y199893D01*
X-22357Y207259D02*
X-24403Y207259D01*
X-24492Y207257D01*
X-24581Y207251D01*
X-24670Y207241D01*
X-24758Y207228D01*
X-24846Y207211D01*
X-24933Y207189D01*
X-25018Y207164D01*
X-25103Y207136D01*
X-25186Y207103D01*
X-25268Y207067D01*
X-25348Y207028D01*
X-25426Y206985D01*
X-25502Y206939D01*
X-25577Y206889D01*
X-25649Y206836D01*
X-25718Y206780D01*
X-25785Y206721D01*
X-25850Y206660D01*
X-25911Y206595D01*
X-25970Y206528D01*
X-26026Y206459D01*
X-26079Y206387D01*
X-26129Y206312D01*
X-26175Y206236D01*
X-26218Y206158D01*
X-26257Y206078D01*
X-26293Y205996D01*
X-26326Y205913D01*
X-26354Y205828D01*
X-26379Y205743D01*
X-26401Y205656D01*
X-26418Y205568D01*
X-26431Y205480D01*
X-26441Y205391D01*
X-26447Y205302D01*
X-26449Y205213D01*
X-26447Y205124D01*
X-26441Y205035D01*
X-26431Y204946D01*
X-26418Y204858D01*
X-26401Y204770D01*
X-26379Y204683D01*
X-26354Y204598D01*
X-26326Y204513D01*
X-26293Y204430D01*
X-26257Y204348D01*
X-26218Y204268D01*
X-26175Y204190D01*
X-26129Y204114D01*
X-26079Y204039D01*
X-26026Y203967D01*
X-25970Y203898D01*
X-25911Y203831D01*
X-25850Y203766D01*
X-25785Y203705D01*
X-25718Y203646D01*
X-25649Y203590D01*
X-25577Y203537D01*
X-25502Y203487D01*
X-25426Y203441D01*
X-25348Y203398D01*
X-25268Y203359D01*
X-25186Y203323D01*
X-25103Y203290D01*
X-25018Y203262D01*
X-24933Y203237D01*
X-24846Y203215D01*
X-24758Y203198D01*
X-24670Y203185D01*
X-24581Y203175D01*
X-24492Y203169D01*
X-24403Y203167D01*
X-22357Y203167D01*
X-24812Y203167D02*
X-26449Y199893D01*
X-29621Y206440D02*
X-29621Y207259D01*
X-33713Y207259D01*
X-31667Y199893D01*
D13*
X25273Y236538D02*
X31623Y236538D01*
D12*
X35986Y228415D02*
X35986Y221049D01*
X35986Y228415D02*
X33940Y228415D01*
X33940Y228414D02*
X33851Y228412D01*
X33762Y228406D01*
X33673Y228396D01*
X33585Y228383D01*
X33497Y228366D01*
X33410Y228344D01*
X33325Y228319D01*
X33240Y228291D01*
X33157Y228258D01*
X33075Y228222D01*
X32995Y228183D01*
X32917Y228140D01*
X32841Y228094D01*
X32766Y228044D01*
X32694Y227991D01*
X32625Y227935D01*
X32558Y227876D01*
X32493Y227815D01*
X32432Y227750D01*
X32373Y227683D01*
X32317Y227614D01*
X32264Y227542D01*
X32214Y227467D01*
X32168Y227391D01*
X32125Y227313D01*
X32086Y227233D01*
X32050Y227151D01*
X32017Y227068D01*
X31989Y226983D01*
X31964Y226898D01*
X31942Y226811D01*
X31925Y226723D01*
X31912Y226635D01*
X31902Y226546D01*
X31896Y226457D01*
X31894Y226368D01*
X31896Y226279D01*
X31902Y226190D01*
X31912Y226101D01*
X31925Y226013D01*
X31942Y225925D01*
X31964Y225838D01*
X31989Y225753D01*
X32017Y225668D01*
X32050Y225585D01*
X32086Y225503D01*
X32125Y225423D01*
X32168Y225345D01*
X32214Y225269D01*
X32264Y225194D01*
X32317Y225122D01*
X32373Y225053D01*
X32432Y224986D01*
X32493Y224921D01*
X32558Y224860D01*
X32625Y224801D01*
X32694Y224745D01*
X32766Y224692D01*
X32841Y224642D01*
X32917Y224596D01*
X32995Y224553D01*
X33075Y224514D01*
X33157Y224478D01*
X33240Y224445D01*
X33325Y224417D01*
X33410Y224392D01*
X33497Y224370D01*
X33585Y224353D01*
X33673Y224340D01*
X33762Y224330D01*
X33851Y224324D01*
X33940Y224322D01*
X35986Y224322D01*
X33531Y224322D02*
X31894Y221049D01*
X28722Y221049D02*
X26266Y221049D01*
X26186Y221051D01*
X26106Y221057D01*
X26026Y221067D01*
X25947Y221080D01*
X25868Y221098D01*
X25791Y221119D01*
X25715Y221145D01*
X25640Y221174D01*
X25566Y221206D01*
X25494Y221242D01*
X25424Y221282D01*
X25357Y221325D01*
X25291Y221371D01*
X25228Y221421D01*
X25167Y221473D01*
X25108Y221528D01*
X25053Y221587D01*
X25001Y221647D01*
X24951Y221711D01*
X24905Y221776D01*
X24862Y221844D01*
X24822Y221914D01*
X24786Y221986D01*
X24754Y222060D01*
X24725Y222134D01*
X24700Y222211D01*
X24678Y222288D01*
X24660Y222367D01*
X24647Y222446D01*
X24637Y222525D01*
X24631Y222606D01*
X24629Y222686D01*
X24630Y222685D02*
X24630Y223504D01*
X24629Y223504D02*
X24631Y223582D01*
X24636Y223660D01*
X24646Y223737D01*
X24659Y223814D01*
X24675Y223890D01*
X24695Y223965D01*
X24719Y224039D01*
X24746Y224112D01*
X24777Y224184D01*
X24811Y224254D01*
X24848Y224323D01*
X24889Y224389D01*
X24933Y224454D01*
X24979Y224516D01*
X25029Y224576D01*
X25081Y224634D01*
X25136Y224689D01*
X25194Y224741D01*
X25254Y224791D01*
X25316Y224837D01*
X25381Y224881D01*
X25448Y224922D01*
X25516Y224959D01*
X25586Y224993D01*
X25658Y225024D01*
X25731Y225051D01*
X25805Y225075D01*
X25880Y225095D01*
X25956Y225111D01*
X26033Y225124D01*
X26110Y225134D01*
X26188Y225139D01*
X26266Y225141D01*
X28722Y225141D01*
X28722Y228415D01*
X24630Y228415D01*
D13*
X4636Y236538D02*
X-1715Y236538D01*
D12*
X7361Y229050D02*
X7361Y221684D01*
X7361Y229050D02*
X5315Y229050D01*
X5315Y229049D02*
X5226Y229047D01*
X5137Y229041D01*
X5048Y229031D01*
X4960Y229018D01*
X4872Y229001D01*
X4785Y228979D01*
X4700Y228954D01*
X4615Y228926D01*
X4532Y228893D01*
X4450Y228857D01*
X4370Y228818D01*
X4292Y228775D01*
X4216Y228729D01*
X4141Y228679D01*
X4069Y228626D01*
X4000Y228570D01*
X3933Y228511D01*
X3868Y228450D01*
X3807Y228385D01*
X3748Y228318D01*
X3692Y228249D01*
X3639Y228177D01*
X3589Y228102D01*
X3543Y228026D01*
X3500Y227948D01*
X3461Y227868D01*
X3425Y227786D01*
X3392Y227703D01*
X3364Y227618D01*
X3339Y227533D01*
X3317Y227446D01*
X3300Y227358D01*
X3287Y227270D01*
X3277Y227181D01*
X3271Y227092D01*
X3269Y227003D01*
X3271Y226914D01*
X3277Y226825D01*
X3287Y226736D01*
X3300Y226648D01*
X3317Y226560D01*
X3339Y226473D01*
X3364Y226388D01*
X3392Y226303D01*
X3425Y226220D01*
X3461Y226138D01*
X3500Y226058D01*
X3543Y225980D01*
X3589Y225904D01*
X3639Y225829D01*
X3692Y225757D01*
X3748Y225688D01*
X3807Y225621D01*
X3868Y225556D01*
X3933Y225495D01*
X4000Y225436D01*
X4069Y225380D01*
X4141Y225327D01*
X4216Y225277D01*
X4292Y225231D01*
X4370Y225188D01*
X4450Y225149D01*
X4532Y225113D01*
X4615Y225080D01*
X4700Y225052D01*
X4785Y225027D01*
X4872Y225005D01*
X4960Y224988D01*
X5048Y224975D01*
X5137Y224965D01*
X5226Y224959D01*
X5315Y224957D01*
X7361Y224957D01*
X4906Y224957D02*
X3269Y221684D01*
X97Y223320D02*
X-1540Y229050D01*
X97Y223320D02*
X-3995Y223320D01*
X-2768Y224957D02*
X-2768Y221684D01*
D13*
X47371Y169736D02*
X47371Y162878D01*
D12*
X38354Y158026D02*
X30988Y158026D01*
X38354Y158026D02*
X38354Y161300D01*
X35080Y161300D02*
X35080Y158026D01*
X35080Y164468D02*
X35080Y166514D01*
X35078Y166603D01*
X35072Y166692D01*
X35062Y166781D01*
X35049Y166869D01*
X35032Y166957D01*
X35010Y167044D01*
X34985Y167129D01*
X34957Y167214D01*
X34924Y167297D01*
X34888Y167379D01*
X34849Y167459D01*
X34806Y167537D01*
X34760Y167613D01*
X34710Y167688D01*
X34657Y167760D01*
X34601Y167829D01*
X34542Y167896D01*
X34481Y167961D01*
X34416Y168022D01*
X34349Y168081D01*
X34280Y168137D01*
X34208Y168190D01*
X34133Y168240D01*
X34057Y168286D01*
X33979Y168329D01*
X33899Y168368D01*
X33817Y168404D01*
X33734Y168437D01*
X33649Y168465D01*
X33564Y168490D01*
X33477Y168512D01*
X33389Y168529D01*
X33301Y168542D01*
X33212Y168552D01*
X33123Y168558D01*
X33034Y168560D01*
X32945Y168558D01*
X32856Y168552D01*
X32767Y168542D01*
X32679Y168529D01*
X32591Y168512D01*
X32504Y168490D01*
X32419Y168465D01*
X32334Y168437D01*
X32251Y168404D01*
X32169Y168368D01*
X32089Y168329D01*
X32011Y168286D01*
X31935Y168240D01*
X31860Y168190D01*
X31788Y168137D01*
X31719Y168081D01*
X31652Y168022D01*
X31587Y167961D01*
X31526Y167896D01*
X31467Y167829D01*
X31411Y167760D01*
X31358Y167688D01*
X31308Y167613D01*
X31262Y167537D01*
X31219Y167459D01*
X31180Y167379D01*
X31144Y167297D01*
X31111Y167214D01*
X31083Y167129D01*
X31058Y167044D01*
X31036Y166957D01*
X31019Y166869D01*
X31006Y166781D01*
X30996Y166692D01*
X30990Y166603D01*
X30988Y166514D01*
X30988Y164468D01*
X38354Y164468D01*
X38354Y166514D01*
X38352Y166593D01*
X38346Y166672D01*
X38337Y166751D01*
X38324Y166829D01*
X38306Y166906D01*
X38286Y166982D01*
X38261Y167057D01*
X38233Y167131D01*
X38202Y167204D01*
X38166Y167275D01*
X38128Y167344D01*
X38086Y167411D01*
X38041Y167476D01*
X37993Y167539D01*
X37942Y167600D01*
X37888Y167657D01*
X37832Y167713D01*
X37773Y167765D01*
X37711Y167815D01*
X37647Y167861D01*
X37581Y167905D01*
X37513Y167945D01*
X37443Y167981D01*
X37371Y168015D01*
X37297Y168045D01*
X37223Y168071D01*
X37147Y168094D01*
X37070Y168112D01*
X36993Y168128D01*
X36914Y168139D01*
X36836Y168147D01*
X36757Y168151D01*
X36677Y168151D01*
X36598Y168147D01*
X36520Y168139D01*
X36441Y168128D01*
X36364Y168112D01*
X36287Y168094D01*
X36211Y168071D01*
X36137Y168045D01*
X36063Y168015D01*
X35991Y167981D01*
X35921Y167945D01*
X35853Y167905D01*
X35787Y167861D01*
X35723Y167815D01*
X35661Y167765D01*
X35602Y167713D01*
X35546Y167657D01*
X35492Y167600D01*
X35441Y167539D01*
X35393Y167476D01*
X35348Y167411D01*
X35306Y167344D01*
X35268Y167275D01*
X35232Y167204D01*
X35201Y167131D01*
X35173Y167057D01*
X35148Y166982D01*
X35128Y166906D01*
X35110Y166829D01*
X35097Y166751D01*
X35088Y166672D01*
X35082Y166593D01*
X35080Y166514D01*
X36717Y171422D02*
X38354Y173468D01*
X30988Y173468D01*
X30988Y171422D02*
X30988Y175514D01*
D13*
X66675Y169736D02*
X66675Y163386D01*
D12*
X75438Y160348D02*
X82804Y160348D01*
X82804Y162394D01*
X82802Y162483D01*
X82796Y162572D01*
X82786Y162661D01*
X82773Y162749D01*
X82756Y162837D01*
X82734Y162924D01*
X82709Y163009D01*
X82681Y163094D01*
X82648Y163177D01*
X82612Y163259D01*
X82573Y163339D01*
X82530Y163417D01*
X82484Y163493D01*
X82434Y163568D01*
X82381Y163640D01*
X82325Y163709D01*
X82266Y163776D01*
X82205Y163841D01*
X82140Y163902D01*
X82073Y163961D01*
X82004Y164017D01*
X81932Y164070D01*
X81857Y164120D01*
X81781Y164166D01*
X81703Y164209D01*
X81623Y164248D01*
X81541Y164284D01*
X81458Y164317D01*
X81373Y164345D01*
X81288Y164370D01*
X81201Y164392D01*
X81113Y164409D01*
X81025Y164422D01*
X80936Y164432D01*
X80847Y164438D01*
X80758Y164440D01*
X80669Y164438D01*
X80580Y164432D01*
X80491Y164422D01*
X80403Y164409D01*
X80315Y164392D01*
X80228Y164370D01*
X80143Y164345D01*
X80058Y164317D01*
X79975Y164284D01*
X79893Y164248D01*
X79813Y164209D01*
X79735Y164166D01*
X79659Y164120D01*
X79584Y164070D01*
X79512Y164017D01*
X79443Y163961D01*
X79376Y163902D01*
X79311Y163841D01*
X79250Y163776D01*
X79191Y163709D01*
X79135Y163640D01*
X79082Y163568D01*
X79032Y163493D01*
X78986Y163417D01*
X78943Y163339D01*
X78904Y163259D01*
X78868Y163177D01*
X78835Y163094D01*
X78807Y163009D01*
X78782Y162924D01*
X78760Y162837D01*
X78743Y162749D01*
X78730Y162661D01*
X78720Y162572D01*
X78714Y162483D01*
X78712Y162394D01*
X78712Y160348D01*
X78712Y162803D02*
X75438Y164440D01*
X80963Y171705D02*
X81048Y171703D01*
X81133Y171697D01*
X81217Y171687D01*
X81301Y171674D01*
X81385Y171656D01*
X81467Y171635D01*
X81548Y171610D01*
X81628Y171581D01*
X81707Y171548D01*
X81784Y171512D01*
X81859Y171472D01*
X81933Y171429D01*
X82004Y171383D01*
X82073Y171333D01*
X82140Y171280D01*
X82204Y171224D01*
X82265Y171165D01*
X82324Y171104D01*
X82380Y171040D01*
X82433Y170973D01*
X82483Y170904D01*
X82529Y170833D01*
X82572Y170759D01*
X82612Y170684D01*
X82648Y170607D01*
X82681Y170528D01*
X82710Y170448D01*
X82735Y170367D01*
X82756Y170285D01*
X82774Y170201D01*
X82787Y170117D01*
X82797Y170033D01*
X82803Y169948D01*
X82805Y169863D01*
X82804Y169863D02*
X82802Y169767D01*
X82796Y169671D01*
X82786Y169576D01*
X82773Y169481D01*
X82755Y169386D01*
X82734Y169293D01*
X82709Y169200D01*
X82680Y169109D01*
X82648Y169018D01*
X82612Y168929D01*
X82572Y168842D01*
X82529Y168756D01*
X82483Y168672D01*
X82433Y168590D01*
X82379Y168510D01*
X82323Y168433D01*
X82263Y168358D01*
X82201Y168285D01*
X82135Y168215D01*
X82067Y168147D01*
X81996Y168082D01*
X81923Y168021D01*
X81847Y167962D01*
X81768Y167906D01*
X81688Y167854D01*
X81605Y167805D01*
X81521Y167759D01*
X81435Y167717D01*
X81347Y167679D01*
X81258Y167644D01*
X81167Y167612D01*
X79531Y171090D02*
X79590Y171150D01*
X79652Y171207D01*
X79716Y171262D01*
X79783Y171313D01*
X79852Y171362D01*
X79922Y171408D01*
X79995Y171451D01*
X80069Y171491D01*
X80145Y171527D01*
X80223Y171560D01*
X80302Y171590D01*
X80382Y171617D01*
X80463Y171640D01*
X80545Y171659D01*
X80627Y171675D01*
X80711Y171688D01*
X80795Y171697D01*
X80879Y171702D01*
X80963Y171704D01*
X79530Y171090D02*
X75438Y167612D01*
X75438Y171704D01*
X73152Y85302D02*
X65786Y80391D01*
X65786Y85302D02*
X73152Y80391D01*
X71515Y88115D02*
X73152Y90162D01*
X65786Y90162D01*
X65786Y92208D02*
X65786Y88115D01*
X33992Y121519D02*
X33992Y125498D01*
X33992Y121519D02*
X31671Y118534D01*
X33992Y121519D02*
X36314Y118534D01*
X33992Y121519D02*
X30345Y122845D01*
X33992Y121519D02*
X37640Y122845D01*
D14*
X25664Y136730D02*
X25664Y143701D01*
X25663Y136730D02*
X25661Y136627D01*
X25655Y136525D01*
X25645Y136423D01*
X25632Y136321D01*
X25614Y136220D01*
X25592Y136119D01*
X25567Y136020D01*
X25538Y135921D01*
X25505Y135824D01*
X25469Y135728D01*
X25428Y135633D01*
X25385Y135540D01*
X25337Y135449D01*
X25287Y135360D01*
X25232Y135273D01*
X25175Y135188D01*
X25114Y135105D01*
X25050Y135024D01*
X24984Y134946D01*
X24914Y134871D01*
X24841Y134798D01*
X24766Y134728D01*
X24688Y134662D01*
X24607Y134598D01*
X24524Y134537D01*
X24439Y134480D01*
X24352Y134425D01*
X24263Y134375D01*
X24172Y134327D01*
X24079Y134284D01*
X23984Y134243D01*
X23888Y134207D01*
X23791Y134174D01*
X23692Y134145D01*
X23593Y134120D01*
X23492Y134098D01*
X23391Y134080D01*
X23289Y134067D01*
X23187Y134057D01*
X23085Y134051D01*
X22982Y134049D01*
X22879Y134051D01*
X22777Y134057D01*
X22675Y134067D01*
X22573Y134080D01*
X22472Y134098D01*
X22371Y134120D01*
X22272Y134145D01*
X22173Y134174D01*
X22076Y134207D01*
X21980Y134243D01*
X21885Y134284D01*
X21792Y134327D01*
X21701Y134375D01*
X21612Y134425D01*
X21525Y134480D01*
X21440Y134537D01*
X21357Y134598D01*
X21276Y134662D01*
X21198Y134728D01*
X21123Y134798D01*
X21050Y134871D01*
X20980Y134946D01*
X20914Y135024D01*
X20850Y135105D01*
X20789Y135188D01*
X20732Y135273D01*
X20677Y135360D01*
X20627Y135449D01*
X20579Y135540D01*
X20536Y135633D01*
X20495Y135728D01*
X20459Y135824D01*
X20426Y135921D01*
X20397Y136020D01*
X20372Y136119D01*
X20350Y136220D01*
X20332Y136321D01*
X20319Y136423D01*
X20309Y136525D01*
X20303Y136627D01*
X20301Y136730D01*
X20301Y143701D01*
X16215Y141556D02*
X13534Y143701D01*
X13534Y134049D01*
X16215Y134049D02*
X10853Y134049D01*
D13*
X-47625Y133223D02*
X-47625Y126873D01*
D12*
X-44514Y101928D02*
X-51880Y101928D01*
X-44514Y101928D02*
X-44514Y103974D01*
X-44516Y104063D01*
X-44522Y104152D01*
X-44532Y104241D01*
X-44545Y104329D01*
X-44562Y104417D01*
X-44584Y104504D01*
X-44609Y104589D01*
X-44637Y104674D01*
X-44670Y104757D01*
X-44706Y104839D01*
X-44745Y104919D01*
X-44788Y104997D01*
X-44834Y105073D01*
X-44884Y105148D01*
X-44937Y105220D01*
X-44993Y105289D01*
X-45052Y105356D01*
X-45113Y105421D01*
X-45178Y105482D01*
X-45245Y105541D01*
X-45314Y105597D01*
X-45386Y105650D01*
X-45461Y105700D01*
X-45537Y105746D01*
X-45615Y105789D01*
X-45695Y105828D01*
X-45777Y105864D01*
X-45860Y105897D01*
X-45945Y105925D01*
X-46030Y105950D01*
X-46117Y105972D01*
X-46205Y105989D01*
X-46293Y106002D01*
X-46382Y106012D01*
X-46471Y106018D01*
X-46560Y106020D01*
X-46649Y106018D01*
X-46738Y106012D01*
X-46827Y106002D01*
X-46915Y105989D01*
X-47003Y105972D01*
X-47090Y105950D01*
X-47175Y105925D01*
X-47260Y105897D01*
X-47343Y105864D01*
X-47425Y105828D01*
X-47505Y105789D01*
X-47583Y105746D01*
X-47659Y105700D01*
X-47734Y105650D01*
X-47806Y105597D01*
X-47875Y105541D01*
X-47942Y105482D01*
X-48007Y105421D01*
X-48068Y105356D01*
X-48127Y105289D01*
X-48183Y105220D01*
X-48236Y105148D01*
X-48286Y105073D01*
X-48332Y104997D01*
X-48375Y104919D01*
X-48414Y104839D01*
X-48450Y104757D01*
X-48483Y104674D01*
X-48511Y104589D01*
X-48536Y104504D01*
X-48558Y104417D01*
X-48575Y104329D01*
X-48588Y104241D01*
X-48598Y104152D01*
X-48604Y104063D01*
X-48606Y103974D01*
X-48606Y101928D01*
X-48606Y104383D02*
X-51880Y106020D01*
X-51880Y109192D02*
X-51880Y111238D01*
X-51879Y111238D02*
X-51877Y111327D01*
X-51871Y111416D01*
X-51861Y111505D01*
X-51848Y111593D01*
X-51831Y111681D01*
X-51809Y111768D01*
X-51784Y111853D01*
X-51756Y111938D01*
X-51723Y112021D01*
X-51687Y112103D01*
X-51648Y112183D01*
X-51605Y112261D01*
X-51559Y112337D01*
X-51509Y112412D01*
X-51456Y112484D01*
X-51400Y112553D01*
X-51341Y112620D01*
X-51280Y112685D01*
X-51215Y112746D01*
X-51148Y112805D01*
X-51079Y112861D01*
X-51007Y112914D01*
X-50932Y112964D01*
X-50856Y113010D01*
X-50778Y113053D01*
X-50698Y113092D01*
X-50616Y113128D01*
X-50533Y113161D01*
X-50448Y113189D01*
X-50363Y113214D01*
X-50276Y113236D01*
X-50188Y113253D01*
X-50100Y113266D01*
X-50011Y113276D01*
X-49922Y113282D01*
X-49833Y113284D01*
X-49744Y113282D01*
X-49655Y113276D01*
X-49566Y113266D01*
X-49478Y113253D01*
X-49390Y113236D01*
X-49303Y113214D01*
X-49218Y113189D01*
X-49133Y113161D01*
X-49050Y113128D01*
X-48968Y113092D01*
X-48888Y113053D01*
X-48810Y113010D01*
X-48734Y112964D01*
X-48659Y112914D01*
X-48587Y112861D01*
X-48518Y112805D01*
X-48451Y112746D01*
X-48386Y112685D01*
X-48325Y112620D01*
X-48266Y112553D01*
X-48210Y112484D01*
X-48157Y112412D01*
X-48107Y112337D01*
X-48061Y112261D01*
X-48018Y112183D01*
X-47979Y112103D01*
X-47943Y112021D01*
X-47910Y111938D01*
X-47882Y111853D01*
X-47857Y111768D01*
X-47835Y111681D01*
X-47818Y111593D01*
X-47805Y111505D01*
X-47795Y111416D01*
X-47789Y111327D01*
X-47787Y111238D01*
X-44514Y111647D02*
X-44514Y109192D01*
X-44513Y111647D02*
X-44515Y111726D01*
X-44521Y111805D01*
X-44530Y111884D01*
X-44543Y111962D01*
X-44561Y112039D01*
X-44581Y112115D01*
X-44606Y112190D01*
X-44634Y112264D01*
X-44665Y112337D01*
X-44701Y112408D01*
X-44739Y112477D01*
X-44781Y112544D01*
X-44826Y112609D01*
X-44874Y112672D01*
X-44925Y112733D01*
X-44979Y112790D01*
X-45035Y112846D01*
X-45094Y112898D01*
X-45156Y112948D01*
X-45220Y112994D01*
X-45286Y113038D01*
X-45354Y113078D01*
X-45424Y113114D01*
X-45496Y113148D01*
X-45570Y113178D01*
X-45644Y113204D01*
X-45720Y113227D01*
X-45797Y113245D01*
X-45874Y113261D01*
X-45953Y113272D01*
X-46031Y113280D01*
X-46110Y113284D01*
X-46190Y113284D01*
X-46269Y113280D01*
X-46347Y113272D01*
X-46426Y113261D01*
X-46503Y113245D01*
X-46580Y113227D01*
X-46656Y113204D01*
X-46730Y113178D01*
X-46804Y113148D01*
X-46876Y113114D01*
X-46946Y113078D01*
X-47014Y113038D01*
X-47080Y112994D01*
X-47144Y112948D01*
X-47206Y112898D01*
X-47265Y112846D01*
X-47321Y112790D01*
X-47375Y112733D01*
X-47426Y112672D01*
X-47474Y112609D01*
X-47519Y112544D01*
X-47561Y112477D01*
X-47599Y112408D01*
X-47635Y112337D01*
X-47666Y112264D01*
X-47694Y112190D01*
X-47719Y112115D01*
X-47739Y112039D01*
X-47757Y111962D01*
X-47770Y111884D01*
X-47779Y111805D01*
X-47785Y111726D01*
X-47787Y111647D01*
X-47787Y110010D01*
D13*
X-41402Y36513D02*
X-35052Y36513D01*
D12*
X-31496Y27750D02*
X-31496Y20384D01*
X-31496Y27750D02*
X-33542Y27750D01*
X-33542Y27749D02*
X-33631Y27747D01*
X-33720Y27741D01*
X-33809Y27731D01*
X-33897Y27718D01*
X-33985Y27701D01*
X-34072Y27679D01*
X-34157Y27654D01*
X-34242Y27626D01*
X-34325Y27593D01*
X-34407Y27557D01*
X-34487Y27518D01*
X-34565Y27475D01*
X-34641Y27429D01*
X-34716Y27379D01*
X-34788Y27326D01*
X-34857Y27270D01*
X-34924Y27211D01*
X-34989Y27150D01*
X-35050Y27085D01*
X-35109Y27018D01*
X-35165Y26949D01*
X-35218Y26877D01*
X-35268Y26802D01*
X-35314Y26726D01*
X-35357Y26648D01*
X-35396Y26568D01*
X-35432Y26486D01*
X-35465Y26403D01*
X-35493Y26318D01*
X-35518Y26233D01*
X-35540Y26146D01*
X-35557Y26058D01*
X-35570Y25970D01*
X-35580Y25881D01*
X-35586Y25792D01*
X-35588Y25703D01*
X-35586Y25614D01*
X-35580Y25525D01*
X-35570Y25436D01*
X-35557Y25348D01*
X-35540Y25260D01*
X-35518Y25173D01*
X-35493Y25088D01*
X-35465Y25003D01*
X-35432Y24920D01*
X-35396Y24838D01*
X-35357Y24758D01*
X-35314Y24680D01*
X-35268Y24604D01*
X-35218Y24529D01*
X-35165Y24457D01*
X-35109Y24388D01*
X-35050Y24321D01*
X-34989Y24256D01*
X-34924Y24195D01*
X-34857Y24136D01*
X-34788Y24080D01*
X-34716Y24027D01*
X-34641Y23977D01*
X-34565Y23931D01*
X-34487Y23888D01*
X-34407Y23849D01*
X-34325Y23813D01*
X-34242Y23780D01*
X-34157Y23752D01*
X-34072Y23727D01*
X-33985Y23705D01*
X-33897Y23688D01*
X-33809Y23675D01*
X-33720Y23665D01*
X-33631Y23659D01*
X-33542Y23657D01*
X-31496Y23657D01*
X-33951Y23657D02*
X-35588Y20384D01*
X-38760Y26113D02*
X-40806Y27750D01*
X-40806Y20384D01*
X-38760Y20384D02*
X-42852Y20384D01*
D13*
X114300Y149098D02*
X114300Y155702D01*
D12*
X122746Y150796D02*
X122746Y149160D01*
X122745Y149160D02*
X122747Y149082D01*
X122752Y149004D01*
X122762Y148927D01*
X122775Y148850D01*
X122791Y148774D01*
X122811Y148699D01*
X122835Y148625D01*
X122862Y148552D01*
X122893Y148480D01*
X122927Y148410D01*
X122964Y148342D01*
X123005Y148275D01*
X123049Y148210D01*
X123095Y148148D01*
X123145Y148088D01*
X123197Y148030D01*
X123252Y147975D01*
X123310Y147923D01*
X123370Y147873D01*
X123432Y147827D01*
X123497Y147783D01*
X123564Y147742D01*
X123632Y147705D01*
X123702Y147671D01*
X123774Y147640D01*
X123847Y147613D01*
X123921Y147589D01*
X123996Y147569D01*
X124072Y147553D01*
X124149Y147540D01*
X124226Y147530D01*
X124304Y147525D01*
X124382Y147523D01*
X128475Y147523D01*
X128553Y147525D01*
X128631Y147530D01*
X128708Y147540D01*
X128785Y147553D01*
X128861Y147569D01*
X128936Y147589D01*
X129010Y147613D01*
X129083Y147640D01*
X129155Y147671D01*
X129225Y147705D01*
X129294Y147742D01*
X129360Y147783D01*
X129425Y147827D01*
X129487Y147873D01*
X129547Y147923D01*
X129605Y147975D01*
X129660Y148030D01*
X129712Y148088D01*
X129762Y148148D01*
X129808Y148210D01*
X129852Y148275D01*
X129893Y148342D01*
X129930Y148410D01*
X129964Y148480D01*
X129995Y148552D01*
X130022Y148625D01*
X130046Y148699D01*
X130066Y148774D01*
X130082Y148850D01*
X130095Y148927D01*
X130105Y149004D01*
X130110Y149082D01*
X130112Y149160D01*
X130112Y150796D01*
X122746Y153642D02*
X122746Y155688D01*
X122748Y155777D01*
X122754Y155866D01*
X122764Y155955D01*
X122777Y156043D01*
X122794Y156131D01*
X122816Y156218D01*
X122841Y156303D01*
X122869Y156388D01*
X122902Y156471D01*
X122938Y156553D01*
X122977Y156633D01*
X123020Y156711D01*
X123066Y156787D01*
X123116Y156862D01*
X123169Y156934D01*
X123225Y157003D01*
X123284Y157070D01*
X123345Y157135D01*
X123410Y157196D01*
X123477Y157255D01*
X123546Y157311D01*
X123618Y157364D01*
X123693Y157414D01*
X123769Y157460D01*
X123847Y157503D01*
X123927Y157542D01*
X124009Y157578D01*
X124092Y157611D01*
X124177Y157639D01*
X124262Y157664D01*
X124349Y157686D01*
X124437Y157703D01*
X124525Y157716D01*
X124614Y157726D01*
X124703Y157732D01*
X124792Y157734D01*
X124881Y157732D01*
X124970Y157726D01*
X125059Y157716D01*
X125147Y157703D01*
X125235Y157686D01*
X125322Y157664D01*
X125407Y157639D01*
X125492Y157611D01*
X125575Y157578D01*
X125657Y157542D01*
X125737Y157503D01*
X125815Y157460D01*
X125891Y157414D01*
X125966Y157364D01*
X126038Y157311D01*
X126107Y157255D01*
X126174Y157196D01*
X126239Y157135D01*
X126300Y157070D01*
X126359Y157003D01*
X126415Y156934D01*
X126468Y156862D01*
X126518Y156787D01*
X126564Y156711D01*
X126607Y156633D01*
X126646Y156553D01*
X126682Y156471D01*
X126715Y156388D01*
X126743Y156303D01*
X126768Y156218D01*
X126790Y156131D01*
X126807Y156043D01*
X126820Y155955D01*
X126830Y155866D01*
X126836Y155777D01*
X126838Y155688D01*
X130112Y156097D02*
X130112Y153642D01*
X130112Y156097D02*
X130110Y156176D01*
X130104Y156255D01*
X130095Y156334D01*
X130082Y156412D01*
X130064Y156489D01*
X130044Y156565D01*
X130019Y156640D01*
X129991Y156714D01*
X129960Y156787D01*
X129924Y156858D01*
X129886Y156927D01*
X129844Y156994D01*
X129799Y157059D01*
X129751Y157122D01*
X129700Y157183D01*
X129646Y157240D01*
X129590Y157296D01*
X129531Y157348D01*
X129469Y157398D01*
X129405Y157444D01*
X129339Y157488D01*
X129271Y157528D01*
X129201Y157564D01*
X129129Y157598D01*
X129055Y157628D01*
X128981Y157654D01*
X128905Y157677D01*
X128828Y157695D01*
X128751Y157711D01*
X128672Y157722D01*
X128594Y157730D01*
X128515Y157734D01*
X128435Y157734D01*
X128356Y157730D01*
X128278Y157722D01*
X128199Y157711D01*
X128122Y157695D01*
X128045Y157677D01*
X127969Y157654D01*
X127895Y157628D01*
X127821Y157598D01*
X127749Y157564D01*
X127679Y157528D01*
X127611Y157488D01*
X127545Y157444D01*
X127481Y157398D01*
X127419Y157348D01*
X127360Y157296D01*
X127304Y157240D01*
X127250Y157183D01*
X127199Y157122D01*
X127151Y157059D01*
X127106Y156994D01*
X127064Y156927D01*
X127026Y156858D01*
X126990Y156787D01*
X126959Y156714D01*
X126931Y156640D01*
X126906Y156565D01*
X126886Y156489D01*
X126868Y156412D01*
X126855Y156334D01*
X126846Y156255D01*
X126840Y156176D01*
X126838Y156097D01*
X126838Y154460D01*
D13*
X60452Y111125D02*
X53848Y111125D01*
D12*
X82249Y105918D02*
X83885Y105918D01*
X83963Y105920D01*
X84041Y105925D01*
X84118Y105935D01*
X84195Y105948D01*
X84271Y105964D01*
X84346Y105984D01*
X84420Y106008D01*
X84493Y106035D01*
X84565Y106066D01*
X84635Y106100D01*
X84704Y106137D01*
X84770Y106178D01*
X84835Y106222D01*
X84897Y106268D01*
X84957Y106318D01*
X85015Y106370D01*
X85070Y106425D01*
X85122Y106483D01*
X85172Y106543D01*
X85218Y106605D01*
X85262Y106670D01*
X85303Y106737D01*
X85340Y106805D01*
X85374Y106875D01*
X85405Y106947D01*
X85432Y107020D01*
X85456Y107094D01*
X85476Y107169D01*
X85492Y107245D01*
X85505Y107322D01*
X85515Y107399D01*
X85520Y107477D01*
X85522Y107555D01*
X85522Y111647D01*
X85520Y111725D01*
X85515Y111803D01*
X85505Y111880D01*
X85492Y111957D01*
X85476Y112033D01*
X85456Y112108D01*
X85432Y112182D01*
X85405Y112255D01*
X85374Y112327D01*
X85340Y112397D01*
X85303Y112466D01*
X85262Y112532D01*
X85218Y112597D01*
X85172Y112659D01*
X85122Y112719D01*
X85070Y112777D01*
X85015Y112832D01*
X84957Y112884D01*
X84897Y112934D01*
X84835Y112980D01*
X84770Y113024D01*
X84704Y113065D01*
X84635Y113102D01*
X84565Y113136D01*
X84493Y113167D01*
X84420Y113194D01*
X84346Y113218D01*
X84271Y113238D01*
X84195Y113254D01*
X84118Y113267D01*
X84041Y113277D01*
X83963Y113282D01*
X83885Y113284D01*
X82249Y113284D01*
X79403Y105918D02*
X76948Y105918D01*
X76868Y105920D01*
X76788Y105926D01*
X76708Y105936D01*
X76629Y105949D01*
X76550Y105967D01*
X76473Y105988D01*
X76397Y106014D01*
X76322Y106043D01*
X76248Y106075D01*
X76176Y106111D01*
X76106Y106151D01*
X76039Y106194D01*
X75973Y106240D01*
X75910Y106290D01*
X75849Y106342D01*
X75790Y106397D01*
X75735Y106456D01*
X75683Y106516D01*
X75633Y106580D01*
X75587Y106645D01*
X75544Y106713D01*
X75504Y106783D01*
X75468Y106855D01*
X75436Y106929D01*
X75407Y107003D01*
X75382Y107080D01*
X75360Y107157D01*
X75342Y107236D01*
X75329Y107315D01*
X75319Y107394D01*
X75313Y107475D01*
X75311Y107555D01*
X75311Y108373D01*
X75313Y108451D01*
X75318Y108529D01*
X75328Y108606D01*
X75341Y108683D01*
X75357Y108759D01*
X75377Y108834D01*
X75401Y108908D01*
X75428Y108981D01*
X75459Y109053D01*
X75493Y109123D01*
X75530Y109192D01*
X75571Y109258D01*
X75615Y109323D01*
X75661Y109385D01*
X75711Y109445D01*
X75763Y109503D01*
X75818Y109558D01*
X75876Y109610D01*
X75936Y109660D01*
X75998Y109706D01*
X76063Y109750D01*
X76130Y109791D01*
X76198Y109828D01*
X76268Y109862D01*
X76340Y109893D01*
X76413Y109920D01*
X76487Y109944D01*
X76562Y109964D01*
X76638Y109980D01*
X76715Y109993D01*
X76792Y110003D01*
X76870Y110008D01*
X76948Y110010D01*
X79403Y110010D01*
X79403Y113284D01*
X75311Y113284D01*
D13*
X60452Y120650D02*
X53848Y120650D01*
D12*
X82249Y116713D02*
X83885Y116713D01*
X83963Y116715D01*
X84041Y116720D01*
X84118Y116730D01*
X84195Y116743D01*
X84271Y116759D01*
X84346Y116779D01*
X84420Y116803D01*
X84493Y116830D01*
X84565Y116861D01*
X84635Y116895D01*
X84704Y116932D01*
X84770Y116973D01*
X84835Y117017D01*
X84897Y117063D01*
X84957Y117113D01*
X85015Y117165D01*
X85070Y117220D01*
X85122Y117278D01*
X85172Y117338D01*
X85218Y117400D01*
X85262Y117465D01*
X85303Y117532D01*
X85340Y117600D01*
X85374Y117670D01*
X85405Y117742D01*
X85432Y117815D01*
X85456Y117889D01*
X85476Y117964D01*
X85492Y118040D01*
X85505Y118117D01*
X85515Y118194D01*
X85520Y118272D01*
X85522Y118350D01*
X85522Y122442D01*
X85520Y122520D01*
X85515Y122598D01*
X85505Y122675D01*
X85492Y122752D01*
X85476Y122828D01*
X85456Y122903D01*
X85432Y122977D01*
X85405Y123050D01*
X85374Y123122D01*
X85340Y123192D01*
X85303Y123261D01*
X85262Y123327D01*
X85218Y123392D01*
X85172Y123454D01*
X85122Y123514D01*
X85070Y123572D01*
X85015Y123627D01*
X84957Y123679D01*
X84897Y123729D01*
X84835Y123775D01*
X84770Y123819D01*
X84704Y123860D01*
X84635Y123897D01*
X84565Y123931D01*
X84493Y123962D01*
X84420Y123989D01*
X84346Y124013D01*
X84271Y124033D01*
X84195Y124049D01*
X84118Y124062D01*
X84041Y124072D01*
X83963Y124077D01*
X83885Y124079D01*
X82249Y124079D01*
X79403Y120805D02*
X76948Y120805D01*
X76868Y120803D01*
X76788Y120797D01*
X76708Y120787D01*
X76629Y120774D01*
X76550Y120756D01*
X76473Y120735D01*
X76397Y120709D01*
X76322Y120680D01*
X76248Y120648D01*
X76176Y120612D01*
X76106Y120572D01*
X76039Y120529D01*
X75973Y120483D01*
X75910Y120433D01*
X75849Y120381D01*
X75790Y120326D01*
X75735Y120267D01*
X75683Y120207D01*
X75633Y120143D01*
X75587Y120077D01*
X75544Y120010D01*
X75504Y119940D01*
X75468Y119868D01*
X75436Y119794D01*
X75407Y119720D01*
X75381Y119643D01*
X75360Y119566D01*
X75342Y119487D01*
X75329Y119408D01*
X75319Y119328D01*
X75313Y119248D01*
X75311Y119168D01*
X75311Y118759D01*
X75313Y118670D01*
X75319Y118581D01*
X75329Y118492D01*
X75342Y118404D01*
X75359Y118316D01*
X75381Y118229D01*
X75406Y118144D01*
X75434Y118059D01*
X75467Y117976D01*
X75503Y117894D01*
X75542Y117814D01*
X75585Y117736D01*
X75631Y117660D01*
X75681Y117585D01*
X75734Y117513D01*
X75790Y117444D01*
X75849Y117377D01*
X75910Y117312D01*
X75975Y117251D01*
X76042Y117192D01*
X76111Y117136D01*
X76183Y117083D01*
X76258Y117033D01*
X76334Y116987D01*
X76412Y116944D01*
X76492Y116905D01*
X76574Y116869D01*
X76657Y116836D01*
X76742Y116808D01*
X76827Y116783D01*
X76914Y116761D01*
X77002Y116744D01*
X77090Y116731D01*
X77179Y116721D01*
X77268Y116715D01*
X77357Y116713D01*
X77446Y116715D01*
X77535Y116721D01*
X77624Y116731D01*
X77712Y116744D01*
X77800Y116761D01*
X77887Y116783D01*
X77972Y116808D01*
X78057Y116836D01*
X78140Y116869D01*
X78222Y116905D01*
X78302Y116944D01*
X78380Y116987D01*
X78456Y117033D01*
X78531Y117083D01*
X78603Y117136D01*
X78672Y117192D01*
X78739Y117251D01*
X78804Y117312D01*
X78865Y117377D01*
X78924Y117444D01*
X78980Y117513D01*
X79033Y117585D01*
X79083Y117660D01*
X79129Y117736D01*
X79172Y117814D01*
X79211Y117894D01*
X79247Y117976D01*
X79280Y118059D01*
X79308Y118144D01*
X79333Y118229D01*
X79355Y118316D01*
X79372Y118404D01*
X79385Y118492D01*
X79395Y118581D01*
X79401Y118670D01*
X79403Y118759D01*
X79403Y120805D01*
X79401Y120917D01*
X79395Y121028D01*
X79386Y121140D01*
X79373Y121251D01*
X79355Y121361D01*
X79335Y121471D01*
X79310Y121580D01*
X79282Y121688D01*
X79250Y121795D01*
X79214Y121901D01*
X79175Y122006D01*
X79132Y122109D01*
X79086Y122211D01*
X79036Y122311D01*
X78983Y122410D01*
X78926Y122506D01*
X78867Y122601D01*
X78804Y122693D01*
X78738Y122783D01*
X78669Y122871D01*
X78597Y122957D01*
X78522Y123040D01*
X78444Y123120D01*
X78364Y123198D01*
X78281Y123273D01*
X78195Y123345D01*
X78107Y123414D01*
X78017Y123480D01*
X77925Y123543D01*
X77830Y123602D01*
X77734Y123659D01*
X77635Y123712D01*
X77535Y123762D01*
X77433Y123808D01*
X77330Y123851D01*
X77225Y123890D01*
X77119Y123926D01*
X77012Y123958D01*
X76904Y123986D01*
X76795Y124011D01*
X76685Y124031D01*
X76575Y124049D01*
X76464Y124062D01*
X76352Y124071D01*
X76241Y124077D01*
X76129Y124079D01*
D15*
X64770Y132017D02*
X51054Y132017D01*
D12*
X83519Y127826D02*
X85155Y127826D01*
X85155Y127825D02*
X85233Y127827D01*
X85311Y127832D01*
X85388Y127842D01*
X85465Y127855D01*
X85541Y127871D01*
X85616Y127891D01*
X85690Y127915D01*
X85763Y127942D01*
X85835Y127973D01*
X85905Y128007D01*
X85974Y128044D01*
X86040Y128085D01*
X86105Y128129D01*
X86167Y128175D01*
X86227Y128225D01*
X86285Y128277D01*
X86340Y128332D01*
X86392Y128390D01*
X86442Y128450D01*
X86488Y128512D01*
X86532Y128577D01*
X86573Y128644D01*
X86610Y128712D01*
X86644Y128782D01*
X86675Y128854D01*
X86702Y128927D01*
X86726Y129001D01*
X86746Y129076D01*
X86762Y129152D01*
X86775Y129229D01*
X86785Y129306D01*
X86790Y129384D01*
X86792Y129462D01*
X86792Y133555D01*
X86790Y133633D01*
X86785Y133711D01*
X86775Y133788D01*
X86762Y133865D01*
X86746Y133941D01*
X86726Y134016D01*
X86702Y134090D01*
X86675Y134163D01*
X86644Y134235D01*
X86610Y134305D01*
X86573Y134374D01*
X86532Y134440D01*
X86488Y134505D01*
X86442Y134567D01*
X86392Y134627D01*
X86340Y134685D01*
X86285Y134740D01*
X86227Y134792D01*
X86167Y134842D01*
X86105Y134888D01*
X86040Y134932D01*
X85974Y134973D01*
X85905Y135010D01*
X85835Y135044D01*
X85763Y135075D01*
X85690Y135102D01*
X85616Y135126D01*
X85541Y135146D01*
X85465Y135162D01*
X85388Y135175D01*
X85311Y135185D01*
X85233Y135190D01*
X85155Y135192D01*
X83519Y135192D01*
X79036Y135192D02*
X80673Y129462D01*
X76581Y129462D01*
X77809Y127826D02*
X77809Y131099D01*
D15*
X64770Y146304D02*
X51054Y146304D01*
D12*
X83519Y140843D02*
X85155Y140843D01*
X85233Y140845D01*
X85311Y140850D01*
X85388Y140860D01*
X85465Y140873D01*
X85541Y140889D01*
X85616Y140909D01*
X85690Y140933D01*
X85763Y140960D01*
X85835Y140991D01*
X85905Y141025D01*
X85974Y141062D01*
X86040Y141103D01*
X86105Y141147D01*
X86167Y141193D01*
X86227Y141243D01*
X86285Y141295D01*
X86340Y141350D01*
X86392Y141408D01*
X86442Y141468D01*
X86488Y141530D01*
X86532Y141595D01*
X86573Y141662D01*
X86610Y141730D01*
X86644Y141800D01*
X86675Y141872D01*
X86702Y141945D01*
X86726Y142019D01*
X86746Y142094D01*
X86762Y142170D01*
X86775Y142247D01*
X86785Y142324D01*
X86790Y142402D01*
X86792Y142480D01*
X86792Y146572D01*
X86790Y146650D01*
X86785Y146728D01*
X86775Y146805D01*
X86762Y146882D01*
X86746Y146958D01*
X86726Y147033D01*
X86702Y147107D01*
X86675Y147180D01*
X86644Y147252D01*
X86610Y147322D01*
X86573Y147391D01*
X86532Y147457D01*
X86488Y147522D01*
X86442Y147584D01*
X86392Y147644D01*
X86340Y147702D01*
X86285Y147757D01*
X86227Y147809D01*
X86167Y147859D01*
X86105Y147905D01*
X86040Y147949D01*
X85974Y147990D01*
X85905Y148027D01*
X85835Y148061D01*
X85763Y148092D01*
X85690Y148119D01*
X85616Y148143D01*
X85541Y148163D01*
X85465Y148179D01*
X85388Y148192D01*
X85311Y148202D01*
X85233Y148207D01*
X85155Y148209D01*
X83519Y148209D01*
X78423Y148210D02*
X78338Y148208D01*
X78253Y148202D01*
X78169Y148192D01*
X78085Y148179D01*
X78001Y148161D01*
X77919Y148140D01*
X77838Y148115D01*
X77758Y148086D01*
X77679Y148053D01*
X77602Y148017D01*
X77527Y147977D01*
X77453Y147934D01*
X77382Y147888D01*
X77313Y147838D01*
X77246Y147785D01*
X77182Y147729D01*
X77121Y147670D01*
X77062Y147609D01*
X77006Y147545D01*
X76953Y147478D01*
X76903Y147409D01*
X76857Y147338D01*
X76814Y147264D01*
X76774Y147189D01*
X76738Y147112D01*
X76705Y147033D01*
X76676Y146953D01*
X76651Y146872D01*
X76630Y146790D01*
X76612Y146706D01*
X76599Y146622D01*
X76589Y146538D01*
X76583Y146453D01*
X76581Y146368D01*
X78423Y148209D02*
X78519Y148207D01*
X78615Y148201D01*
X78710Y148191D01*
X78805Y148178D01*
X78900Y148160D01*
X78993Y148139D01*
X79086Y148114D01*
X79177Y148085D01*
X79268Y148053D01*
X79357Y148017D01*
X79444Y147977D01*
X79530Y147934D01*
X79614Y147888D01*
X79696Y147838D01*
X79776Y147784D01*
X79853Y147728D01*
X79928Y147668D01*
X80001Y147606D01*
X80071Y147540D01*
X80139Y147472D01*
X80204Y147401D01*
X80265Y147328D01*
X80324Y147252D01*
X80380Y147173D01*
X80432Y147093D01*
X80481Y147010D01*
X80527Y146926D01*
X80569Y146840D01*
X80607Y146752D01*
X80642Y146663D01*
X80674Y146572D01*
X77195Y144936D02*
X77135Y144995D01*
X77078Y145057D01*
X77023Y145121D01*
X76972Y145188D01*
X76923Y145257D01*
X76877Y145327D01*
X76834Y145400D01*
X76794Y145474D01*
X76758Y145550D01*
X76725Y145628D01*
X76695Y145707D01*
X76668Y145787D01*
X76645Y145868D01*
X76626Y145950D01*
X76610Y146032D01*
X76597Y146116D01*
X76588Y146200D01*
X76583Y146284D01*
X76581Y146368D01*
X77195Y144935D02*
X80673Y140843D01*
X76581Y140843D01*
D16*
X64313Y195413D02*
X46813Y195413D01*
X46813Y182413D02*
X64313Y182413D01*
D12*
X61207Y198653D02*
X61207Y206019D01*
X59161Y206019D01*
X59072Y206017D01*
X58983Y206011D01*
X58894Y206001D01*
X58806Y205988D01*
X58718Y205971D01*
X58631Y205949D01*
X58546Y205924D01*
X58461Y205896D01*
X58378Y205863D01*
X58296Y205827D01*
X58216Y205788D01*
X58138Y205745D01*
X58062Y205699D01*
X57987Y205649D01*
X57915Y205596D01*
X57846Y205540D01*
X57779Y205481D01*
X57714Y205420D01*
X57653Y205355D01*
X57594Y205288D01*
X57538Y205219D01*
X57485Y205147D01*
X57435Y205072D01*
X57389Y204996D01*
X57346Y204918D01*
X57307Y204838D01*
X57271Y204756D01*
X57238Y204673D01*
X57210Y204588D01*
X57185Y204503D01*
X57163Y204416D01*
X57146Y204328D01*
X57133Y204240D01*
X57123Y204151D01*
X57117Y204062D01*
X57115Y203973D01*
X57115Y200699D01*
X57117Y200610D01*
X57123Y200521D01*
X57133Y200432D01*
X57146Y200344D01*
X57163Y200256D01*
X57185Y200169D01*
X57210Y200084D01*
X57238Y199999D01*
X57271Y199916D01*
X57307Y199834D01*
X57346Y199754D01*
X57389Y199676D01*
X57435Y199600D01*
X57485Y199525D01*
X57538Y199453D01*
X57594Y199384D01*
X57653Y199317D01*
X57714Y199252D01*
X57779Y199191D01*
X57846Y199132D01*
X57915Y199076D01*
X57987Y199023D01*
X58062Y198973D01*
X58138Y198927D01*
X58216Y198884D01*
X58296Y198845D01*
X58378Y198809D01*
X58461Y198776D01*
X58546Y198748D01*
X58631Y198723D01*
X58718Y198701D01*
X58806Y198684D01*
X58894Y198671D01*
X58983Y198661D01*
X59072Y198655D01*
X59161Y198653D01*
X61207Y198653D01*
X53648Y198653D02*
X51193Y198653D01*
X51113Y198655D01*
X51033Y198661D01*
X50953Y198671D01*
X50874Y198684D01*
X50795Y198702D01*
X50718Y198723D01*
X50642Y198749D01*
X50567Y198778D01*
X50493Y198810D01*
X50421Y198846D01*
X50351Y198886D01*
X50284Y198929D01*
X50218Y198975D01*
X50155Y199025D01*
X50094Y199077D01*
X50035Y199132D01*
X49980Y199191D01*
X49928Y199251D01*
X49878Y199315D01*
X49832Y199380D01*
X49789Y199448D01*
X49749Y199518D01*
X49713Y199590D01*
X49681Y199664D01*
X49652Y199738D01*
X49627Y199815D01*
X49605Y199892D01*
X49587Y199971D01*
X49574Y200050D01*
X49564Y200129D01*
X49558Y200210D01*
X49556Y200290D01*
X49556Y201108D01*
X49558Y201186D01*
X49563Y201264D01*
X49573Y201341D01*
X49586Y201418D01*
X49602Y201494D01*
X49622Y201569D01*
X49646Y201643D01*
X49673Y201716D01*
X49704Y201788D01*
X49738Y201858D01*
X49775Y201927D01*
X49816Y201993D01*
X49860Y202058D01*
X49906Y202120D01*
X49956Y202180D01*
X50008Y202238D01*
X50063Y202293D01*
X50121Y202345D01*
X50181Y202395D01*
X50243Y202441D01*
X50308Y202485D01*
X50375Y202526D01*
X50443Y202563D01*
X50513Y202597D01*
X50585Y202628D01*
X50658Y202655D01*
X50732Y202679D01*
X50807Y202699D01*
X50883Y202715D01*
X50960Y202728D01*
X51037Y202738D01*
X51115Y202743D01*
X51193Y202745D01*
X53648Y202745D01*
X53648Y206019D01*
X49556Y206019D01*
D13*
X-53975Y80836D02*
X-53975Y74486D01*
D12*
X-62738Y73089D02*
X-70104Y73089D01*
X-62738Y73089D02*
X-62738Y75135D01*
X-62740Y75224D01*
X-62746Y75313D01*
X-62756Y75402D01*
X-62769Y75490D01*
X-62786Y75578D01*
X-62808Y75665D01*
X-62833Y75750D01*
X-62861Y75835D01*
X-62894Y75918D01*
X-62930Y76000D01*
X-62969Y76080D01*
X-63012Y76158D01*
X-63058Y76234D01*
X-63108Y76309D01*
X-63161Y76381D01*
X-63217Y76450D01*
X-63276Y76517D01*
X-63337Y76582D01*
X-63402Y76643D01*
X-63469Y76702D01*
X-63538Y76758D01*
X-63610Y76811D01*
X-63685Y76861D01*
X-63761Y76907D01*
X-63839Y76950D01*
X-63919Y76989D01*
X-64001Y77025D01*
X-64084Y77058D01*
X-64169Y77086D01*
X-64254Y77111D01*
X-64341Y77133D01*
X-64429Y77150D01*
X-64517Y77163D01*
X-64606Y77173D01*
X-64695Y77179D01*
X-64784Y77181D01*
X-64873Y77179D01*
X-64962Y77173D01*
X-65051Y77163D01*
X-65139Y77150D01*
X-65227Y77133D01*
X-65314Y77111D01*
X-65399Y77086D01*
X-65484Y77058D01*
X-65567Y77025D01*
X-65649Y76989D01*
X-65729Y76950D01*
X-65807Y76907D01*
X-65883Y76861D01*
X-65958Y76811D01*
X-66030Y76758D01*
X-66099Y76702D01*
X-66166Y76643D01*
X-66231Y76582D01*
X-66292Y76517D01*
X-66351Y76450D01*
X-66407Y76381D01*
X-66460Y76309D01*
X-66510Y76234D01*
X-66556Y76158D01*
X-66599Y76080D01*
X-66638Y76000D01*
X-66674Y75918D01*
X-66707Y75835D01*
X-66735Y75750D01*
X-66760Y75665D01*
X-66782Y75578D01*
X-66799Y75490D01*
X-66812Y75402D01*
X-66822Y75313D01*
X-66828Y75224D01*
X-66830Y75135D01*
X-66830Y73089D01*
X-66830Y75544D02*
X-70104Y77181D01*
X-68058Y80353D02*
X-67969Y80355D01*
X-67880Y80361D01*
X-67791Y80371D01*
X-67703Y80384D01*
X-67615Y80401D01*
X-67528Y80423D01*
X-67443Y80448D01*
X-67358Y80476D01*
X-67275Y80509D01*
X-67193Y80545D01*
X-67113Y80584D01*
X-67035Y80627D01*
X-66959Y80673D01*
X-66884Y80723D01*
X-66812Y80776D01*
X-66743Y80832D01*
X-66676Y80891D01*
X-66611Y80952D01*
X-66550Y81017D01*
X-66491Y81084D01*
X-66435Y81153D01*
X-66382Y81225D01*
X-66332Y81300D01*
X-66286Y81376D01*
X-66243Y81454D01*
X-66204Y81534D01*
X-66168Y81616D01*
X-66135Y81699D01*
X-66107Y81784D01*
X-66082Y81869D01*
X-66060Y81956D01*
X-66043Y82044D01*
X-66030Y82132D01*
X-66020Y82221D01*
X-66014Y82310D01*
X-66012Y82399D01*
X-66014Y82488D01*
X-66020Y82577D01*
X-66030Y82666D01*
X-66043Y82754D01*
X-66060Y82842D01*
X-66082Y82929D01*
X-66107Y83014D01*
X-66135Y83099D01*
X-66168Y83182D01*
X-66204Y83264D01*
X-66243Y83344D01*
X-66286Y83422D01*
X-66332Y83498D01*
X-66382Y83573D01*
X-66435Y83645D01*
X-66491Y83714D01*
X-66550Y83781D01*
X-66611Y83846D01*
X-66676Y83907D01*
X-66743Y83966D01*
X-66812Y84022D01*
X-66884Y84075D01*
X-66959Y84125D01*
X-67035Y84171D01*
X-67113Y84214D01*
X-67193Y84253D01*
X-67275Y84289D01*
X-67358Y84322D01*
X-67443Y84350D01*
X-67528Y84375D01*
X-67615Y84397D01*
X-67703Y84414D01*
X-67791Y84427D01*
X-67880Y84437D01*
X-67969Y84443D01*
X-68058Y84445D01*
X-68147Y84443D01*
X-68236Y84437D01*
X-68325Y84427D01*
X-68413Y84414D01*
X-68501Y84397D01*
X-68588Y84375D01*
X-68673Y84350D01*
X-68758Y84322D01*
X-68841Y84289D01*
X-68923Y84253D01*
X-69003Y84214D01*
X-69081Y84171D01*
X-69157Y84125D01*
X-69232Y84075D01*
X-69304Y84022D01*
X-69373Y83966D01*
X-69440Y83907D01*
X-69505Y83846D01*
X-69566Y83781D01*
X-69625Y83714D01*
X-69681Y83645D01*
X-69734Y83573D01*
X-69784Y83498D01*
X-69830Y83422D01*
X-69873Y83344D01*
X-69912Y83264D01*
X-69948Y83182D01*
X-69981Y83099D01*
X-70009Y83014D01*
X-70034Y82929D01*
X-70056Y82842D01*
X-70073Y82754D01*
X-70086Y82666D01*
X-70096Y82577D01*
X-70102Y82488D01*
X-70104Y82399D01*
X-70102Y82310D01*
X-70096Y82221D01*
X-70086Y82132D01*
X-70073Y82044D01*
X-70056Y81956D01*
X-70034Y81869D01*
X-70009Y81784D01*
X-69981Y81699D01*
X-69948Y81616D01*
X-69912Y81534D01*
X-69873Y81454D01*
X-69830Y81376D01*
X-69784Y81300D01*
X-69734Y81225D01*
X-69681Y81153D01*
X-69625Y81084D01*
X-69566Y81017D01*
X-69505Y80952D01*
X-69440Y80891D01*
X-69373Y80832D01*
X-69304Y80776D01*
X-69232Y80723D01*
X-69157Y80673D01*
X-69081Y80627D01*
X-69003Y80584D01*
X-68923Y80545D01*
X-68841Y80509D01*
X-68758Y80476D01*
X-68673Y80448D01*
X-68588Y80423D01*
X-68501Y80401D01*
X-68413Y80384D01*
X-68325Y80371D01*
X-68236Y80361D01*
X-68147Y80355D01*
X-68058Y80353D01*
X-64375Y80762D02*
X-64296Y80764D01*
X-64217Y80770D01*
X-64138Y80779D01*
X-64060Y80792D01*
X-63983Y80810D01*
X-63907Y80830D01*
X-63832Y80855D01*
X-63758Y80883D01*
X-63685Y80914D01*
X-63614Y80950D01*
X-63545Y80988D01*
X-63478Y81030D01*
X-63413Y81075D01*
X-63350Y81123D01*
X-63289Y81174D01*
X-63232Y81228D01*
X-63176Y81284D01*
X-63124Y81343D01*
X-63074Y81405D01*
X-63028Y81469D01*
X-62984Y81535D01*
X-62944Y81603D01*
X-62908Y81673D01*
X-62874Y81745D01*
X-62844Y81819D01*
X-62818Y81893D01*
X-62795Y81969D01*
X-62777Y82046D01*
X-62761Y82123D01*
X-62750Y82202D01*
X-62742Y82280D01*
X-62738Y82359D01*
X-62738Y82439D01*
X-62742Y82518D01*
X-62750Y82596D01*
X-62761Y82675D01*
X-62777Y82752D01*
X-62795Y82829D01*
X-62818Y82905D01*
X-62844Y82979D01*
X-62874Y83053D01*
X-62908Y83125D01*
X-62944Y83195D01*
X-62984Y83263D01*
X-63028Y83329D01*
X-63074Y83393D01*
X-63124Y83455D01*
X-63176Y83514D01*
X-63232Y83570D01*
X-63289Y83624D01*
X-63350Y83675D01*
X-63413Y83723D01*
X-63478Y83768D01*
X-63545Y83810D01*
X-63614Y83848D01*
X-63685Y83884D01*
X-63758Y83915D01*
X-63832Y83943D01*
X-63907Y83968D01*
X-63983Y83988D01*
X-64060Y84006D01*
X-64138Y84019D01*
X-64217Y84028D01*
X-64296Y84034D01*
X-64375Y84036D01*
X-64454Y84034D01*
X-64533Y84028D01*
X-64612Y84019D01*
X-64690Y84006D01*
X-64767Y83988D01*
X-64843Y83968D01*
X-64918Y83943D01*
X-64992Y83915D01*
X-65065Y83884D01*
X-65136Y83848D01*
X-65205Y83810D01*
X-65272Y83768D01*
X-65337Y83723D01*
X-65400Y83675D01*
X-65461Y83624D01*
X-65518Y83570D01*
X-65574Y83514D01*
X-65626Y83455D01*
X-65676Y83393D01*
X-65722Y83329D01*
X-65766Y83263D01*
X-65806Y83195D01*
X-65842Y83125D01*
X-65876Y83053D01*
X-65906Y82979D01*
X-65932Y82905D01*
X-65955Y82829D01*
X-65973Y82752D01*
X-65989Y82675D01*
X-66000Y82596D01*
X-66008Y82518D01*
X-66012Y82439D01*
X-66012Y82359D01*
X-66008Y82280D01*
X-66000Y82202D01*
X-65989Y82123D01*
X-65973Y82046D01*
X-65955Y81969D01*
X-65932Y81893D01*
X-65906Y81819D01*
X-65876Y81745D01*
X-65842Y81673D01*
X-65806Y81603D01*
X-65766Y81535D01*
X-65722Y81469D01*
X-65676Y81405D01*
X-65626Y81343D01*
X-65574Y81284D01*
X-65518Y81228D01*
X-65461Y81174D01*
X-65400Y81123D01*
X-65337Y81075D01*
X-65272Y81030D01*
X-65205Y80988D01*
X-65136Y80950D01*
X-65065Y80914D01*
X-64992Y80883D01*
X-64918Y80855D01*
X-64843Y80830D01*
X-64767Y80810D01*
X-64690Y80792D01*
X-64612Y80779D01*
X-64533Y80770D01*
X-64454Y80764D01*
X-64375Y80762D01*
D13*
X-54102Y52388D02*
X-47752Y52388D01*
D12*
X-67320Y55817D02*
X-67320Y48451D01*
X-67320Y55817D02*
X-69366Y55817D01*
X-69366Y55816D02*
X-69455Y55814D01*
X-69544Y55808D01*
X-69633Y55798D01*
X-69721Y55785D01*
X-69809Y55768D01*
X-69896Y55746D01*
X-69981Y55721D01*
X-70066Y55693D01*
X-70149Y55660D01*
X-70231Y55624D01*
X-70311Y55585D01*
X-70389Y55542D01*
X-70465Y55496D01*
X-70540Y55446D01*
X-70612Y55393D01*
X-70681Y55337D01*
X-70748Y55278D01*
X-70813Y55217D01*
X-70874Y55152D01*
X-70933Y55085D01*
X-70989Y55016D01*
X-71042Y54944D01*
X-71092Y54869D01*
X-71138Y54793D01*
X-71181Y54715D01*
X-71220Y54635D01*
X-71256Y54553D01*
X-71289Y54470D01*
X-71317Y54385D01*
X-71342Y54300D01*
X-71364Y54213D01*
X-71381Y54125D01*
X-71394Y54037D01*
X-71404Y53948D01*
X-71410Y53859D01*
X-71412Y53770D01*
X-71410Y53681D01*
X-71404Y53592D01*
X-71394Y53503D01*
X-71381Y53415D01*
X-71364Y53327D01*
X-71342Y53240D01*
X-71317Y53155D01*
X-71289Y53070D01*
X-71256Y52987D01*
X-71220Y52905D01*
X-71181Y52825D01*
X-71138Y52747D01*
X-71092Y52671D01*
X-71042Y52596D01*
X-70989Y52524D01*
X-70933Y52455D01*
X-70874Y52388D01*
X-70813Y52323D01*
X-70748Y52262D01*
X-70681Y52203D01*
X-70612Y52147D01*
X-70540Y52094D01*
X-70465Y52044D01*
X-70389Y51998D01*
X-70311Y51955D01*
X-70231Y51916D01*
X-70149Y51880D01*
X-70066Y51847D01*
X-69981Y51819D01*
X-69896Y51794D01*
X-69809Y51772D01*
X-69721Y51755D01*
X-69633Y51742D01*
X-69544Y51732D01*
X-69455Y51726D01*
X-69366Y51724D01*
X-67320Y51724D01*
X-69776Y51724D02*
X-71412Y48451D01*
X-76221Y51724D02*
X-78677Y51724D01*
X-76221Y51724D02*
X-76143Y51726D01*
X-76065Y51731D01*
X-75988Y51741D01*
X-75911Y51754D01*
X-75835Y51770D01*
X-75760Y51790D01*
X-75686Y51814D01*
X-75613Y51841D01*
X-75541Y51872D01*
X-75471Y51906D01*
X-75402Y51943D01*
X-75336Y51984D01*
X-75271Y52028D01*
X-75209Y52074D01*
X-75149Y52124D01*
X-75091Y52176D01*
X-75036Y52231D01*
X-74984Y52289D01*
X-74934Y52349D01*
X-74888Y52411D01*
X-74844Y52476D01*
X-74803Y52543D01*
X-74766Y52611D01*
X-74732Y52681D01*
X-74701Y52753D01*
X-74674Y52826D01*
X-74650Y52900D01*
X-74630Y52975D01*
X-74614Y53051D01*
X-74601Y53128D01*
X-74591Y53205D01*
X-74586Y53283D01*
X-74584Y53361D01*
X-74584Y53770D01*
X-74586Y53859D01*
X-74592Y53948D01*
X-74602Y54037D01*
X-74615Y54125D01*
X-74632Y54213D01*
X-74654Y54300D01*
X-74679Y54385D01*
X-74707Y54470D01*
X-74740Y54553D01*
X-74776Y54635D01*
X-74815Y54715D01*
X-74858Y54793D01*
X-74904Y54869D01*
X-74954Y54944D01*
X-75007Y55016D01*
X-75063Y55085D01*
X-75122Y55152D01*
X-75183Y55217D01*
X-75248Y55278D01*
X-75315Y55337D01*
X-75384Y55393D01*
X-75456Y55446D01*
X-75531Y55496D01*
X-75607Y55542D01*
X-75685Y55585D01*
X-75765Y55624D01*
X-75847Y55660D01*
X-75930Y55693D01*
X-76015Y55721D01*
X-76100Y55746D01*
X-76187Y55768D01*
X-76275Y55785D01*
X-76363Y55798D01*
X-76452Y55808D01*
X-76541Y55814D01*
X-76630Y55816D01*
X-76719Y55814D01*
X-76808Y55808D01*
X-76897Y55798D01*
X-76985Y55785D01*
X-77073Y55768D01*
X-77160Y55746D01*
X-77245Y55721D01*
X-77330Y55693D01*
X-77413Y55660D01*
X-77495Y55624D01*
X-77575Y55585D01*
X-77653Y55542D01*
X-77729Y55496D01*
X-77804Y55446D01*
X-77876Y55393D01*
X-77945Y55337D01*
X-78012Y55278D01*
X-78077Y55217D01*
X-78138Y55152D01*
X-78197Y55085D01*
X-78253Y55016D01*
X-78306Y54944D01*
X-78356Y54869D01*
X-78402Y54793D01*
X-78445Y54715D01*
X-78484Y54635D01*
X-78520Y54553D01*
X-78553Y54470D01*
X-78581Y54385D01*
X-78606Y54300D01*
X-78628Y54213D01*
X-78645Y54125D01*
X-78658Y54037D01*
X-78668Y53948D01*
X-78674Y53859D01*
X-78676Y53770D01*
X-78677Y53770D02*
X-78677Y51724D01*
X-78675Y51612D01*
X-78669Y51501D01*
X-78660Y51389D01*
X-78647Y51278D01*
X-78629Y51168D01*
X-78609Y51058D01*
X-78584Y50949D01*
X-78556Y50841D01*
X-78524Y50734D01*
X-78488Y50628D01*
X-78449Y50523D01*
X-78406Y50420D01*
X-78360Y50318D01*
X-78310Y50218D01*
X-78257Y50119D01*
X-78200Y50023D01*
X-78141Y49928D01*
X-78078Y49836D01*
X-78012Y49746D01*
X-77943Y49658D01*
X-77871Y49572D01*
X-77796Y49489D01*
X-77718Y49409D01*
X-77638Y49331D01*
X-77555Y49256D01*
X-77469Y49184D01*
X-77381Y49115D01*
X-77291Y49049D01*
X-77199Y48986D01*
X-77104Y48927D01*
X-77008Y48870D01*
X-76909Y48817D01*
X-76809Y48767D01*
X-76707Y48721D01*
X-76604Y48678D01*
X-76499Y48639D01*
X-76393Y48603D01*
X-76286Y48571D01*
X-76178Y48543D01*
X-76069Y48518D01*
X-75959Y48498D01*
X-75849Y48480D01*
X-75738Y48467D01*
X-75626Y48458D01*
X-75515Y48452D01*
X-75403Y48450D01*
M02*
