G04 EAGLE Gerber RS-274X export*
G75*
%MOMM*%
%FSLAX34Y34*%
%LPD*%
%INSoldermask Bottom*%
%IPPOS*%
%AMOC8*
5,1,8,0,0,1.08239X$1,22.5*%
G01*
%ADD10C,1.101600*%
%ADD11R,2.601600X2.601600*%
%ADD12C,2.601600*%
%ADD13R,1.201600X1.101600*%
%ADD14R,1.101600X1.201600*%
%ADD15R,1.501597X0.501600*%
%ADD16R,0.651600X0.355600*%
%ADD17R,0.355600X0.651600*%
%ADD18R,5.701600X5.701600*%
%ADD19P,1.759533X8X112.500000*%
%ADD20R,1.401600X1.601600*%
%ADD21C,1.625600*%
%ADD22R,0.901600X0.601600*%

G36*
X17029Y319D02*
X17029Y319D01*
X17058Y317D01*
X17125Y339D01*
X17195Y353D01*
X17219Y369D01*
X17247Y378D01*
X17300Y425D01*
X17359Y465D01*
X17375Y490D01*
X17397Y509D01*
X17428Y573D01*
X17466Y633D01*
X17471Y662D01*
X17483Y688D01*
X17492Y787D01*
X17499Y829D01*
X17496Y840D01*
X17498Y854D01*
X17266Y3652D01*
X17256Y3685D01*
X17252Y3733D01*
X16563Y6455D01*
X16548Y6486D01*
X16536Y6533D01*
X15408Y9104D01*
X15388Y9132D01*
X15369Y9177D01*
X13833Y11527D01*
X13809Y11552D01*
X13783Y11592D01*
X11881Y13658D01*
X11853Y13678D01*
X11820Y13714D01*
X9605Y15438D01*
X9574Y15454D01*
X9536Y15483D01*
X7066Y16820D01*
X7033Y16830D01*
X6991Y16853D01*
X5805Y17260D01*
X4351Y17759D01*
X4335Y17765D01*
X4301Y17769D01*
X4255Y17785D01*
X1486Y18247D01*
X1451Y18246D01*
X1404Y18254D01*
X-1404Y18254D01*
X-1438Y18247D01*
X-1486Y18247D01*
X-4255Y17785D01*
X-4288Y17772D01*
X-4335Y17765D01*
X-6991Y16853D01*
X-7021Y16835D01*
X-7066Y16820D01*
X-9536Y15483D01*
X-9562Y15461D01*
X-9605Y15438D01*
X-11820Y13714D01*
X-11843Y13687D01*
X-11881Y13658D01*
X-13783Y11592D01*
X-13801Y11563D01*
X-13833Y11527D01*
X-15369Y9177D01*
X-15382Y9144D01*
X-15408Y9104D01*
X-16536Y6533D01*
X-16543Y6499D01*
X-16546Y6493D01*
X-16552Y6484D01*
X-16553Y6478D01*
X-16563Y6455D01*
X-17252Y3733D01*
X-17254Y3698D01*
X-17266Y3652D01*
X-17498Y854D01*
X-17494Y825D01*
X-17499Y796D01*
X-17483Y727D01*
X-17474Y656D01*
X-17460Y631D01*
X-17453Y603D01*
X-17411Y545D01*
X-17376Y484D01*
X-17352Y466D01*
X-17335Y442D01*
X-17274Y406D01*
X-17217Y363D01*
X-17189Y356D01*
X-17164Y341D01*
X-17066Y324D01*
X-17025Y314D01*
X-17014Y316D01*
X-17000Y313D01*
X17000Y313D01*
X17029Y319D01*
G37*
G36*
X-121393Y60622D02*
X-121393Y60622D01*
X-121322Y60619D01*
X-121295Y60630D01*
X-121266Y60632D01*
X-121176Y60674D01*
X-121136Y60689D01*
X-121128Y60697D01*
X-121115Y60702D01*
X-118812Y62302D01*
X-118788Y62327D01*
X-118748Y62354D01*
X-116739Y64311D01*
X-116720Y64340D01*
X-116685Y64374D01*
X-115026Y66634D01*
X-115011Y66666D01*
X-114982Y66705D01*
X-113718Y69208D01*
X-113709Y69241D01*
X-113687Y69284D01*
X-112851Y71961D01*
X-112848Y71996D01*
X-112833Y72042D01*
X-112450Y74820D01*
X-112452Y74855D01*
X-112446Y74902D01*
X-112525Y77706D01*
X-112533Y77740D01*
X-112534Y77788D01*
X-113073Y80540D01*
X-113087Y80572D01*
X-113096Y80619D01*
X-114081Y83245D01*
X-114096Y83270D01*
X-114101Y83289D01*
X-114109Y83300D01*
X-114116Y83319D01*
X-115520Y85747D01*
X-115543Y85773D01*
X-115567Y85815D01*
X-117351Y87979D01*
X-117378Y88000D01*
X-117409Y88038D01*
X-119525Y89878D01*
X-119555Y89895D01*
X-119591Y89927D01*
X-121982Y91394D01*
X-122014Y91406D01*
X-122055Y91431D01*
X-124654Y92485D01*
X-124688Y92491D01*
X-124733Y92509D01*
X-127470Y93121D01*
X-127505Y93122D01*
X-127552Y93132D01*
X-130352Y93285D01*
X-130386Y93280D01*
X-130434Y93283D01*
X-133222Y92972D01*
X-133255Y92962D01*
X-133303Y92956D01*
X-136001Y92191D01*
X-136031Y92176D01*
X-136078Y92162D01*
X-138613Y90964D01*
X-138637Y90946D01*
X-138664Y90936D01*
X-138716Y90887D01*
X-138773Y90845D01*
X-138787Y90820D01*
X-138809Y90800D01*
X-138837Y90734D01*
X-138873Y90673D01*
X-138876Y90644D01*
X-138888Y90617D01*
X-138889Y90546D01*
X-138898Y90476D01*
X-138890Y90448D01*
X-138890Y90418D01*
X-138856Y90326D01*
X-138844Y90284D01*
X-138837Y90276D01*
X-138832Y90263D01*
X-121832Y60863D01*
X-121813Y60841D01*
X-121800Y60814D01*
X-121747Y60767D01*
X-121700Y60714D01*
X-121674Y60701D01*
X-121652Y60682D01*
X-121585Y60659D01*
X-121521Y60628D01*
X-121492Y60627D01*
X-121464Y60617D01*
X-121393Y60622D01*
G37*
G36*
X130386Y208345D02*
X130386Y208345D01*
X130434Y208343D01*
X133222Y208653D01*
X133255Y208663D01*
X133303Y208669D01*
X136001Y209434D01*
X136031Y209450D01*
X136078Y209463D01*
X138613Y210661D01*
X138637Y210679D01*
X138664Y210689D01*
X138716Y210738D01*
X138773Y210780D01*
X138787Y210805D01*
X138809Y210825D01*
X138837Y210891D01*
X138873Y210952D01*
X138876Y210981D01*
X138888Y211008D01*
X138889Y211079D01*
X138898Y211149D01*
X138890Y211177D01*
X138890Y211207D01*
X138856Y211299D01*
X138844Y211341D01*
X138837Y211350D01*
X138832Y211362D01*
X121832Y240762D01*
X121813Y240784D01*
X121800Y240811D01*
X121747Y240858D01*
X121700Y240911D01*
X121674Y240924D01*
X121652Y240943D01*
X121585Y240966D01*
X121521Y240997D01*
X121492Y240998D01*
X121464Y241008D01*
X121393Y241003D01*
X121322Y241006D01*
X121295Y240995D01*
X121266Y240993D01*
X121176Y240951D01*
X121136Y240936D01*
X121128Y240929D01*
X121115Y240923D01*
X118812Y239323D01*
X118788Y239298D01*
X118748Y239271D01*
X116739Y237314D01*
X116720Y237285D01*
X116685Y237251D01*
X115026Y234991D01*
X115011Y234959D01*
X114982Y234920D01*
X113718Y232417D01*
X113709Y232384D01*
X113687Y232341D01*
X112851Y229664D01*
X112848Y229629D01*
X112833Y229583D01*
X112450Y226805D01*
X112452Y226770D01*
X112446Y226723D01*
X112525Y223919D01*
X112533Y223885D01*
X112534Y223837D01*
X113073Y221085D01*
X113087Y221053D01*
X113096Y221006D01*
X114081Y218380D01*
X114099Y218351D01*
X114116Y218306D01*
X115520Y215878D01*
X115543Y215852D01*
X115567Y215810D01*
X117351Y213646D01*
X117378Y213625D01*
X117409Y213587D01*
X119525Y211747D01*
X119555Y211730D01*
X119591Y211698D01*
X121982Y210231D01*
X122014Y210219D01*
X122055Y210194D01*
X124654Y209140D01*
X124688Y209134D01*
X124733Y209116D01*
X127470Y208504D01*
X127505Y208503D01*
X127552Y208493D01*
X130352Y208340D01*
X130386Y208345D01*
G37*
G36*
X121426Y60623D02*
X121426Y60623D01*
X121497Y60623D01*
X121524Y60634D01*
X121553Y60637D01*
X121615Y60672D01*
X121680Y60699D01*
X121701Y60720D01*
X121726Y60734D01*
X121789Y60811D01*
X121819Y60841D01*
X121823Y60852D01*
X121832Y60863D01*
X138832Y90263D01*
X138841Y90290D01*
X138858Y90314D01*
X138873Y90384D01*
X138895Y90451D01*
X138893Y90480D01*
X138899Y90509D01*
X138886Y90579D01*
X138880Y90649D01*
X138867Y90675D01*
X138861Y90704D01*
X138821Y90763D01*
X138789Y90826D01*
X138766Y90845D01*
X138750Y90869D01*
X138668Y90926D01*
X138635Y90953D01*
X138625Y90956D01*
X138613Y90964D01*
X136078Y92162D01*
X136044Y92171D01*
X136001Y92191D01*
X133303Y92956D01*
X133268Y92959D01*
X133222Y92972D01*
X130434Y93283D01*
X130400Y93279D01*
X130352Y93285D01*
X127552Y93132D01*
X127518Y93123D01*
X127470Y93121D01*
X124733Y92509D01*
X124701Y92495D01*
X124654Y92485D01*
X122055Y91431D01*
X122026Y91412D01*
X121982Y91394D01*
X119591Y89927D01*
X119566Y89903D01*
X119525Y89878D01*
X117409Y88038D01*
X117388Y88010D01*
X117351Y87979D01*
X115567Y85815D01*
X115551Y85784D01*
X115520Y85747D01*
X114116Y83319D01*
X114105Y83287D01*
X114098Y83274D01*
X114088Y83259D01*
X114088Y83257D01*
X114081Y83245D01*
X113096Y80619D01*
X113090Y80585D01*
X113073Y80540D01*
X112534Y77788D01*
X112534Y77753D01*
X112525Y77706D01*
X112446Y74902D01*
X112452Y74868D01*
X112450Y74820D01*
X112833Y72042D01*
X112845Y72009D01*
X112851Y71961D01*
X113687Y69284D01*
X113704Y69254D01*
X113718Y69208D01*
X114982Y66705D01*
X115004Y66677D01*
X115026Y66634D01*
X116685Y64374D01*
X116711Y64350D01*
X116739Y64311D01*
X118748Y62354D01*
X118777Y62336D01*
X118812Y62302D01*
X121115Y60702D01*
X121142Y60691D01*
X121165Y60672D01*
X121233Y60652D01*
X121298Y60624D01*
X121327Y60624D01*
X121355Y60615D01*
X121426Y60623D01*
G37*
G36*
X-127552Y208493D02*
X-127552Y208493D01*
X-127518Y208502D01*
X-127470Y208504D01*
X-124733Y209116D01*
X-124701Y209130D01*
X-124654Y209140D01*
X-122055Y210194D01*
X-122026Y210213D01*
X-121982Y210231D01*
X-119591Y211698D01*
X-119566Y211722D01*
X-119525Y211747D01*
X-117409Y213587D01*
X-117388Y213615D01*
X-117351Y213646D01*
X-115567Y215810D01*
X-115551Y215841D01*
X-115520Y215878D01*
X-114116Y218306D01*
X-114105Y218338D01*
X-114081Y218380D01*
X-113096Y221006D01*
X-113090Y221040D01*
X-113073Y221085D01*
X-112534Y223837D01*
X-112534Y223872D01*
X-112525Y223919D01*
X-112446Y226723D01*
X-112452Y226757D01*
X-112450Y226805D01*
X-112833Y229583D01*
X-112845Y229616D01*
X-112851Y229664D01*
X-113687Y232341D01*
X-113704Y232371D01*
X-113718Y232417D01*
X-114982Y234920D01*
X-115004Y234948D01*
X-115026Y234991D01*
X-116685Y237251D01*
X-116711Y237275D01*
X-116739Y237314D01*
X-118748Y239271D01*
X-118777Y239289D01*
X-118812Y239323D01*
X-121115Y240923D01*
X-121142Y240934D01*
X-121165Y240953D01*
X-121233Y240973D01*
X-121298Y241001D01*
X-121327Y241001D01*
X-121355Y241010D01*
X-121426Y241002D01*
X-121497Y241002D01*
X-121524Y240991D01*
X-121553Y240988D01*
X-121615Y240953D01*
X-121680Y240926D01*
X-121701Y240905D01*
X-121726Y240891D01*
X-121789Y240814D01*
X-121819Y240784D01*
X-121823Y240773D01*
X-121832Y240762D01*
X-138832Y211362D01*
X-138841Y211335D01*
X-138858Y211311D01*
X-138873Y211241D01*
X-138895Y211174D01*
X-138893Y211145D01*
X-138899Y211116D01*
X-138886Y211046D01*
X-138880Y210976D01*
X-138867Y210950D01*
X-138861Y210921D01*
X-138821Y210862D01*
X-138789Y210799D01*
X-138766Y210780D01*
X-138750Y210756D01*
X-138668Y210699D01*
X-138635Y210672D01*
X-138625Y210669D01*
X-138613Y210661D01*
X-136078Y209463D01*
X-136044Y209454D01*
X-136001Y209434D01*
X-133303Y208669D01*
X-133268Y208666D01*
X-133222Y208653D01*
X-130434Y208343D01*
X-130400Y208346D01*
X-130352Y208340D01*
X-127552Y208493D01*
G37*
G36*
X163727Y133823D02*
X163727Y133823D01*
X163798Y133823D01*
X163825Y133834D01*
X163854Y133837D01*
X163916Y133873D01*
X163981Y133900D01*
X164002Y133921D01*
X164027Y133935D01*
X164090Y134012D01*
X164120Y134043D01*
X164124Y134053D01*
X164133Y134063D01*
X173633Y150563D01*
X173643Y150595D01*
X173652Y150608D01*
X173656Y150633D01*
X173657Y150636D01*
X173688Y150707D01*
X173688Y150730D01*
X173696Y150752D01*
X173690Y150829D01*
X173691Y150906D01*
X173681Y150930D01*
X173680Y150950D01*
X173659Y150990D01*
X173633Y151062D01*
X164133Y167562D01*
X164114Y167583D01*
X164101Y167610D01*
X164048Y167657D01*
X164001Y167711D01*
X163975Y167723D01*
X163954Y167743D01*
X163886Y167766D01*
X163822Y167797D01*
X163793Y167798D01*
X163766Y167807D01*
X163694Y167803D01*
X163623Y167806D01*
X163596Y167796D01*
X163567Y167794D01*
X163477Y167751D01*
X163437Y167737D01*
X163429Y167729D01*
X163416Y167723D01*
X160893Y165982D01*
X160869Y165957D01*
X160831Y165931D01*
X158619Y163807D01*
X158600Y163779D01*
X158566Y163747D01*
X156724Y161295D01*
X156710Y161265D01*
X156681Y161227D01*
X155256Y158512D01*
X155247Y158481D01*
X155231Y158456D01*
X155230Y158448D01*
X155225Y158439D01*
X154254Y155530D01*
X154250Y155496D01*
X154235Y155452D01*
X153743Y152426D01*
X153744Y152392D01*
X153736Y152346D01*
X153736Y149279D01*
X153737Y149276D01*
X153737Y149273D01*
X153743Y149247D01*
X153743Y149246D01*
X153743Y149199D01*
X154235Y146173D01*
X154247Y146141D01*
X154254Y146095D01*
X155225Y143186D01*
X155242Y143157D01*
X155256Y143113D01*
X156681Y140398D01*
X156703Y140371D01*
X156724Y140330D01*
X158566Y137878D01*
X158591Y137856D01*
X158619Y137818D01*
X160831Y135694D01*
X160859Y135676D01*
X160893Y135643D01*
X163416Y133902D01*
X163443Y133890D01*
X163465Y133872D01*
X163534Y133852D01*
X163599Y133824D01*
X163628Y133823D01*
X163656Y133815D01*
X163727Y133823D01*
G37*
G36*
X-163694Y133822D02*
X-163694Y133822D01*
X-163623Y133819D01*
X-163596Y133829D01*
X-163567Y133831D01*
X-163477Y133874D01*
X-163437Y133888D01*
X-163429Y133896D01*
X-163416Y133902D01*
X-160893Y135643D01*
X-160869Y135668D01*
X-160831Y135694D01*
X-158619Y137818D01*
X-158600Y137846D01*
X-158566Y137878D01*
X-156724Y140330D01*
X-156710Y140360D01*
X-156681Y140398D01*
X-155256Y143113D01*
X-155247Y143145D01*
X-155225Y143186D01*
X-154254Y146095D01*
X-154250Y146129D01*
X-154235Y146173D01*
X-153743Y149199D01*
X-153744Y149233D01*
X-153736Y149279D01*
X-153736Y152346D01*
X-153743Y152379D01*
X-153743Y152426D01*
X-154235Y155452D01*
X-154247Y155484D01*
X-154254Y155530D01*
X-155225Y158439D01*
X-155238Y158462D01*
X-155244Y158486D01*
X-155251Y158495D01*
X-155256Y158512D01*
X-156681Y161227D01*
X-156703Y161254D01*
X-156724Y161295D01*
X-158566Y163747D01*
X-158591Y163769D01*
X-158619Y163807D01*
X-160831Y165931D01*
X-160859Y165949D01*
X-160893Y165982D01*
X-163416Y167723D01*
X-163443Y167735D01*
X-163465Y167753D01*
X-163534Y167774D01*
X-163599Y167801D01*
X-163628Y167802D01*
X-163656Y167810D01*
X-163727Y167802D01*
X-163798Y167802D01*
X-163825Y167791D01*
X-163854Y167788D01*
X-163916Y167753D01*
X-163981Y167725D01*
X-164002Y167704D01*
X-164027Y167690D01*
X-164090Y167613D01*
X-164120Y167582D01*
X-164124Y167572D01*
X-164133Y167562D01*
X-173633Y151062D01*
X-173657Y150989D01*
X-173688Y150918D01*
X-173688Y150895D01*
X-173696Y150873D01*
X-173690Y150796D01*
X-173691Y150719D01*
X-173681Y150695D01*
X-173680Y150675D01*
X-173659Y150635D01*
X-173640Y150583D01*
X-173639Y150578D01*
X-173637Y150576D01*
X-173633Y150563D01*
X-164133Y134063D01*
X-164114Y134042D01*
X-164101Y134015D01*
X-164048Y133968D01*
X-164001Y133914D01*
X-163975Y133902D01*
X-163954Y133882D01*
X-163886Y133859D01*
X-163822Y133828D01*
X-163793Y133827D01*
X-163766Y133818D01*
X-163694Y133822D01*
G37*
G36*
X86676Y329D02*
X86676Y329D01*
X86754Y337D01*
X86773Y348D01*
X86795Y353D01*
X86859Y397D01*
X86927Y435D01*
X86943Y454D01*
X86959Y465D01*
X86983Y503D01*
X87033Y563D01*
X96533Y17063D01*
X96542Y17091D01*
X96558Y17114D01*
X96573Y17184D01*
X96596Y17252D01*
X96593Y17281D01*
X96599Y17309D01*
X96586Y17379D01*
X96580Y17450D01*
X96567Y17476D01*
X96561Y17504D01*
X96521Y17563D01*
X96488Y17627D01*
X96466Y17645D01*
X96450Y17669D01*
X96367Y17726D01*
X96335Y17753D01*
X96324Y17756D01*
X96314Y17764D01*
X93548Y19072D01*
X93515Y19080D01*
X93472Y19101D01*
X90532Y19948D01*
X90498Y19951D01*
X90454Y19964D01*
X87416Y20330D01*
X87382Y20327D01*
X87335Y20333D01*
X84278Y20206D01*
X84245Y20198D01*
X84198Y20196D01*
X81201Y19580D01*
X81170Y19567D01*
X81124Y19558D01*
X78264Y18470D01*
X78236Y18451D01*
X78192Y18435D01*
X75544Y16902D01*
X75518Y16879D01*
X75478Y16856D01*
X73110Y14918D01*
X73088Y14892D01*
X73052Y14862D01*
X71025Y12570D01*
X71009Y12540D01*
X70977Y12505D01*
X69345Y9917D01*
X69333Y9886D01*
X69308Y9846D01*
X68112Y7030D01*
X68105Y6996D01*
X68102Y6990D01*
X68098Y6983D01*
X68097Y6978D01*
X68086Y6953D01*
X67358Y3982D01*
X67356Y3948D01*
X67345Y3902D01*
X67102Y852D01*
X67106Y824D01*
X67101Y796D01*
X67118Y726D01*
X67126Y655D01*
X67141Y630D01*
X67147Y603D01*
X67190Y545D01*
X67226Y482D01*
X67248Y465D01*
X67265Y442D01*
X67327Y406D01*
X67384Y362D01*
X67412Y355D01*
X67436Y341D01*
X67536Y324D01*
X67577Y314D01*
X67587Y315D01*
X67600Y313D01*
X86600Y313D01*
X86676Y329D01*
G37*
G36*
X87369Y281298D02*
X87369Y281298D01*
X87416Y281295D01*
X90454Y281661D01*
X90486Y281671D01*
X90532Y281677D01*
X93472Y282524D01*
X93502Y282540D01*
X93548Y282553D01*
X96314Y283861D01*
X96336Y283878D01*
X96363Y283888D01*
X96415Y283937D01*
X96473Y283980D01*
X96487Y284005D01*
X96508Y284025D01*
X96537Y284090D01*
X96573Y284152D01*
X96576Y284181D01*
X96588Y284207D01*
X96589Y284279D01*
X96598Y284349D01*
X96590Y284377D01*
X96591Y284406D01*
X96555Y284500D01*
X96544Y284541D01*
X96537Y284549D01*
X96533Y284562D01*
X87033Y301062D01*
X86981Y301120D01*
X86935Y301183D01*
X86916Y301194D01*
X86901Y301211D01*
X86831Y301244D01*
X86764Y301284D01*
X86740Y301288D01*
X86722Y301297D01*
X86677Y301299D01*
X86600Y301312D01*
X67600Y301312D01*
X67572Y301306D01*
X67544Y301309D01*
X67476Y301286D01*
X67405Y301272D01*
X67382Y301256D01*
X67355Y301247D01*
X67300Y301200D01*
X67241Y301160D01*
X67226Y301136D01*
X67205Y301117D01*
X67173Y301053D01*
X67134Y300992D01*
X67129Y300964D01*
X67117Y300939D01*
X67108Y300837D01*
X67101Y300796D01*
X67103Y300786D01*
X67102Y300773D01*
X67345Y297723D01*
X67354Y297690D01*
X67358Y297643D01*
X68086Y294672D01*
X68101Y294641D01*
X68112Y294595D01*
X69308Y291779D01*
X69327Y291751D01*
X69345Y291708D01*
X70977Y289120D01*
X71001Y289095D01*
X71025Y289055D01*
X73052Y286763D01*
X73079Y286742D01*
X73110Y286707D01*
X75478Y284769D01*
X75508Y284753D01*
X75544Y284723D01*
X78192Y283190D01*
X78224Y283179D01*
X78264Y283155D01*
X81124Y282067D01*
X81157Y282061D01*
X81201Y282045D01*
X84198Y281429D01*
X84232Y281429D01*
X84278Y281419D01*
X87335Y281292D01*
X87369Y281298D01*
G37*
G36*
X-67572Y319D02*
X-67572Y319D01*
X-67544Y316D01*
X-67476Y339D01*
X-67405Y353D01*
X-67382Y369D01*
X-67355Y378D01*
X-67300Y425D01*
X-67241Y465D01*
X-67226Y489D01*
X-67205Y508D01*
X-67173Y572D01*
X-67134Y633D01*
X-67129Y661D01*
X-67117Y686D01*
X-67108Y788D01*
X-67101Y829D01*
X-67103Y839D01*
X-67102Y852D01*
X-67345Y3902D01*
X-67354Y3935D01*
X-67358Y3982D01*
X-68086Y6953D01*
X-68101Y6984D01*
X-68112Y7030D01*
X-69308Y9846D01*
X-69327Y9874D01*
X-69345Y9917D01*
X-70977Y12505D01*
X-71001Y12530D01*
X-71025Y12570D01*
X-73052Y14862D01*
X-73079Y14883D01*
X-73110Y14918D01*
X-75478Y16856D01*
X-75508Y16872D01*
X-75544Y16902D01*
X-78192Y18435D01*
X-78224Y18446D01*
X-78264Y18470D01*
X-81124Y19558D01*
X-81157Y19564D01*
X-81201Y19580D01*
X-84198Y20196D01*
X-84232Y20196D01*
X-84278Y20206D01*
X-87335Y20333D01*
X-87369Y20327D01*
X-87416Y20330D01*
X-90454Y19964D01*
X-90486Y19954D01*
X-90532Y19948D01*
X-93472Y19101D01*
X-93502Y19085D01*
X-93548Y19072D01*
X-96314Y17764D01*
X-96336Y17747D01*
X-96363Y17737D01*
X-96415Y17688D01*
X-96473Y17645D01*
X-96487Y17620D01*
X-96508Y17600D01*
X-96537Y17535D01*
X-96573Y17473D01*
X-96576Y17445D01*
X-96588Y17418D01*
X-96589Y17346D01*
X-96598Y17276D01*
X-96590Y17248D01*
X-96591Y17219D01*
X-96555Y17125D01*
X-96544Y17084D01*
X-96537Y17076D01*
X-96533Y17063D01*
X-87033Y563D01*
X-86981Y505D01*
X-86935Y442D01*
X-86916Y431D01*
X-86901Y414D01*
X-86831Y381D01*
X-86764Y341D01*
X-86740Y337D01*
X-86722Y328D01*
X-86677Y326D01*
X-86600Y313D01*
X-67600Y313D01*
X-67572Y319D01*
G37*
G36*
X-84278Y281419D02*
X-84278Y281419D01*
X-84245Y281427D01*
X-84198Y281429D01*
X-81201Y282045D01*
X-81170Y282058D01*
X-81124Y282067D01*
X-78264Y283155D01*
X-78236Y283174D01*
X-78192Y283190D01*
X-75544Y284723D01*
X-75518Y284746D01*
X-75478Y284769D01*
X-73110Y286707D01*
X-73088Y286733D01*
X-73052Y286763D01*
X-71025Y289055D01*
X-71009Y289085D01*
X-70977Y289120D01*
X-69345Y291708D01*
X-69333Y291740D01*
X-69308Y291779D01*
X-68112Y294595D01*
X-68105Y294629D01*
X-68086Y294672D01*
X-67358Y297643D01*
X-67356Y297677D01*
X-67345Y297723D01*
X-67102Y300773D01*
X-67106Y300801D01*
X-67101Y300829D01*
X-67118Y300899D01*
X-67126Y300970D01*
X-67141Y300995D01*
X-67147Y301022D01*
X-67190Y301080D01*
X-67226Y301143D01*
X-67248Y301160D01*
X-67265Y301183D01*
X-67327Y301219D01*
X-67384Y301263D01*
X-67412Y301270D01*
X-67436Y301284D01*
X-67536Y301301D01*
X-67577Y301311D01*
X-67587Y301310D01*
X-67600Y301312D01*
X-86600Y301312D01*
X-86676Y301296D01*
X-86754Y301288D01*
X-86773Y301277D01*
X-86795Y301272D01*
X-86859Y301228D01*
X-86927Y301190D01*
X-86943Y301171D01*
X-86959Y301160D01*
X-86983Y301122D01*
X-87033Y301062D01*
X-96533Y284562D01*
X-96542Y284534D01*
X-96558Y284511D01*
X-96573Y284441D01*
X-96596Y284373D01*
X-96593Y284345D01*
X-96599Y284316D01*
X-96586Y284246D01*
X-96580Y284175D01*
X-96567Y284149D01*
X-96561Y284121D01*
X-96521Y284062D01*
X-96488Y283998D01*
X-96466Y283980D01*
X-96450Y283956D01*
X-96367Y283899D01*
X-96335Y283872D01*
X-96324Y283869D01*
X-96314Y283861D01*
X-93548Y282553D01*
X-93515Y282545D01*
X-93472Y282524D01*
X-90532Y281677D01*
X-90498Y281674D01*
X-90454Y281661D01*
X-87416Y281295D01*
X-87382Y281298D01*
X-87335Y281292D01*
X-84278Y281419D01*
G37*
D10*
X82600Y293913D03*
X165200Y150813D03*
X82600Y7713D03*
X-82600Y7713D03*
X-165200Y150813D03*
X-82600Y293913D03*
X123900Y222313D03*
X123900Y79313D03*
X0Y7713D03*
X-123900Y79313D03*
X-123900Y222313D03*
D11*
X-25400Y260350D03*
D12*
X25400Y260350D03*
D13*
X-33900Y236538D03*
X-16900Y236538D03*
D14*
X-16900Y227013D03*
X-33900Y227013D03*
X37075Y236538D03*
X20075Y236538D03*
X10088Y236538D03*
X-6913Y236538D03*
D13*
X47625Y158188D03*
X47625Y175188D03*
X66675Y175188D03*
X66675Y158188D03*
D15*
X53975Y70550D03*
X53975Y82550D03*
X53975Y94550D03*
D16*
X33800Y119582D03*
X33800Y114581D03*
X33800Y109579D03*
X33800Y104578D03*
X33800Y99577D03*
X33800Y94576D03*
X33800Y89574D03*
X33800Y84573D03*
X33800Y79572D03*
X33800Y74571D03*
X33800Y69569D03*
X33800Y64568D03*
D17*
X27507Y58275D03*
X22506Y58275D03*
X17504Y58275D03*
X12503Y58275D03*
X7502Y58275D03*
X2501Y58275D03*
X-2501Y58275D03*
X-7502Y58275D03*
X-12503Y58275D03*
X-17504Y58275D03*
X-22506Y58275D03*
X-27507Y58275D03*
D16*
X-33800Y64568D03*
X-33800Y69569D03*
X-33800Y74571D03*
X-33800Y79572D03*
X-33800Y84573D03*
X-33800Y89574D03*
X-33800Y94576D03*
X-33800Y99577D03*
X-33800Y104578D03*
X-33800Y109579D03*
X-33800Y114581D03*
X-33800Y119582D03*
D17*
X-27507Y125875D03*
X-22506Y125875D03*
X-17504Y125875D03*
X-12503Y125875D03*
X-7502Y125875D03*
X-2501Y125875D03*
X2501Y125875D03*
X7502Y125875D03*
X12503Y125875D03*
X17504Y125875D03*
X22506Y125875D03*
X27507Y125875D03*
D18*
X0Y92075D03*
D19*
X114300Y128588D03*
D13*
X-47625Y138675D03*
X-47625Y121675D03*
D14*
X-29600Y36513D03*
X-46600Y36513D03*
X114300Y143900D03*
X114300Y160900D03*
D13*
X48650Y111125D03*
X65650Y111125D03*
X48650Y120650D03*
X65650Y120650D03*
D20*
X47650Y131763D03*
X66650Y131763D03*
X47650Y146050D03*
X66650Y146050D03*
D21*
X-109538Y174625D03*
X-109538Y149225D03*
X-109538Y123825D03*
D22*
X66563Y188913D03*
X44563Y188913D03*
D13*
X-53975Y86288D03*
X-53975Y69288D03*
D14*
X-42300Y52388D03*
X-59300Y52388D03*
M02*
