G04 EAGLE Gerber RS-274X export*
G75*
%MOMM*%
%FSLAX34Y34*%
%LPD*%
%INSolderpaste Bottom*%
%IPPOS*%
%AMOC8*
5,1,8,0,0,1.08239X$1,22.5*%
G01*
%ADD10R,1.100000X1.000000*%
%ADD11R,1.000000X1.100000*%
%ADD12R,1.399997X0.400000*%
%ADD13R,0.550000X0.254000*%
%ADD14R,0.254000X0.550000*%
%ADD15R,1.300000X1.500000*%
%ADD16R,0.800000X0.500000*%

G36*
X-15222Y107174D02*
X-15222Y107174D01*
X-15220Y107173D01*
X-15177Y107193D01*
X-15133Y107211D01*
X-15133Y107213D01*
X-15131Y107214D01*
X-15098Y107299D01*
X-15098Y119523D01*
X-15099Y119525D01*
X-15098Y119527D01*
X-15118Y119570D01*
X-15136Y119614D01*
X-15138Y119614D01*
X-15139Y119616D01*
X-15224Y119649D01*
X-27448Y119649D01*
X-27450Y119648D01*
X-27452Y119649D01*
X-27495Y119629D01*
X-27539Y119611D01*
X-27539Y119609D01*
X-27541Y119608D01*
X-27574Y119523D01*
X-27574Y107299D01*
X-27573Y107297D01*
X-27574Y107295D01*
X-27554Y107252D01*
X-27536Y107208D01*
X-27534Y107208D01*
X-27533Y107206D01*
X-27448Y107173D01*
X-15224Y107173D01*
X-15222Y107174D01*
G37*
G36*
X13226Y107174D02*
X13226Y107174D01*
X13228Y107173D01*
X13271Y107193D01*
X13315Y107211D01*
X13315Y107213D01*
X13317Y107214D01*
X13350Y107299D01*
X13350Y119523D01*
X13349Y119525D01*
X13350Y119527D01*
X13330Y119570D01*
X13312Y119614D01*
X13310Y119614D01*
X13309Y119616D01*
X13224Y119649D01*
X1000Y119649D01*
X998Y119648D01*
X996Y119649D01*
X953Y119629D01*
X909Y119611D01*
X909Y119609D01*
X907Y119608D01*
X874Y119523D01*
X874Y107299D01*
X875Y107297D01*
X874Y107295D01*
X894Y107252D01*
X912Y107208D01*
X914Y107208D01*
X915Y107206D01*
X1000Y107173D01*
X13224Y107173D01*
X13226Y107174D01*
G37*
G36*
X-998Y107174D02*
X-998Y107174D01*
X-996Y107173D01*
X-953Y107193D01*
X-909Y107211D01*
X-909Y107213D01*
X-907Y107214D01*
X-874Y107299D01*
X-874Y119523D01*
X-875Y119525D01*
X-874Y119527D01*
X-894Y119570D01*
X-912Y119614D01*
X-914Y119614D01*
X-915Y119616D01*
X-1000Y119649D01*
X-13224Y119649D01*
X-13226Y119648D01*
X-13228Y119649D01*
X-13271Y119629D01*
X-13315Y119611D01*
X-13315Y119609D01*
X-13317Y119608D01*
X-13350Y119523D01*
X-13350Y107299D01*
X-13349Y107297D01*
X-13350Y107295D01*
X-13330Y107252D01*
X-13312Y107208D01*
X-13310Y107208D01*
X-13309Y107206D01*
X-13224Y107173D01*
X-1000Y107173D01*
X-998Y107174D01*
G37*
G36*
X27450Y107174D02*
X27450Y107174D01*
X27452Y107173D01*
X27495Y107193D01*
X27539Y107211D01*
X27539Y107213D01*
X27541Y107214D01*
X27574Y107299D01*
X27574Y119523D01*
X27573Y119525D01*
X27574Y119527D01*
X27554Y119570D01*
X27536Y119614D01*
X27534Y119614D01*
X27533Y119616D01*
X27448Y119649D01*
X15224Y119649D01*
X15222Y119648D01*
X15220Y119649D01*
X15177Y119629D01*
X15133Y119611D01*
X15133Y119609D01*
X15131Y119608D01*
X15098Y119523D01*
X15098Y107299D01*
X15099Y107297D01*
X15098Y107295D01*
X15118Y107252D01*
X15136Y107208D01*
X15138Y107208D01*
X15139Y107206D01*
X15224Y107173D01*
X27448Y107173D01*
X27450Y107174D01*
G37*
G36*
X13226Y92950D02*
X13226Y92950D01*
X13228Y92949D01*
X13271Y92969D01*
X13315Y92987D01*
X13315Y92989D01*
X13317Y92990D01*
X13350Y93075D01*
X13350Y105299D01*
X13349Y105301D01*
X13350Y105303D01*
X13330Y105346D01*
X13312Y105390D01*
X13310Y105390D01*
X13309Y105392D01*
X13224Y105425D01*
X1000Y105425D01*
X998Y105424D01*
X996Y105425D01*
X953Y105405D01*
X909Y105387D01*
X909Y105385D01*
X907Y105384D01*
X874Y105299D01*
X874Y93075D01*
X875Y93073D01*
X874Y93071D01*
X894Y93028D01*
X912Y92984D01*
X914Y92984D01*
X915Y92982D01*
X1000Y92949D01*
X13224Y92949D01*
X13226Y92950D01*
G37*
G36*
X-15222Y92950D02*
X-15222Y92950D01*
X-15220Y92949D01*
X-15177Y92969D01*
X-15133Y92987D01*
X-15133Y92989D01*
X-15131Y92990D01*
X-15098Y93075D01*
X-15098Y105299D01*
X-15099Y105301D01*
X-15098Y105303D01*
X-15118Y105346D01*
X-15136Y105390D01*
X-15138Y105390D01*
X-15139Y105392D01*
X-15224Y105425D01*
X-27448Y105425D01*
X-27450Y105424D01*
X-27452Y105425D01*
X-27495Y105405D01*
X-27539Y105387D01*
X-27539Y105385D01*
X-27541Y105384D01*
X-27574Y105299D01*
X-27574Y93075D01*
X-27573Y93073D01*
X-27574Y93071D01*
X-27554Y93028D01*
X-27536Y92984D01*
X-27534Y92984D01*
X-27533Y92982D01*
X-27448Y92949D01*
X-15224Y92949D01*
X-15222Y92950D01*
G37*
G36*
X-998Y92950D02*
X-998Y92950D01*
X-996Y92949D01*
X-953Y92969D01*
X-909Y92987D01*
X-909Y92989D01*
X-907Y92990D01*
X-874Y93075D01*
X-874Y105299D01*
X-875Y105301D01*
X-874Y105303D01*
X-894Y105346D01*
X-912Y105390D01*
X-914Y105390D01*
X-915Y105392D01*
X-1000Y105425D01*
X-13224Y105425D01*
X-13226Y105424D01*
X-13228Y105425D01*
X-13271Y105405D01*
X-13315Y105387D01*
X-13315Y105385D01*
X-13317Y105384D01*
X-13350Y105299D01*
X-13350Y93075D01*
X-13349Y93073D01*
X-13350Y93071D01*
X-13330Y93028D01*
X-13312Y92984D01*
X-13310Y92984D01*
X-13309Y92982D01*
X-13224Y92949D01*
X-1000Y92949D01*
X-998Y92950D01*
G37*
G36*
X27450Y92950D02*
X27450Y92950D01*
X27452Y92949D01*
X27495Y92969D01*
X27539Y92987D01*
X27539Y92989D01*
X27541Y92990D01*
X27574Y93075D01*
X27574Y105299D01*
X27573Y105301D01*
X27574Y105303D01*
X27554Y105346D01*
X27536Y105390D01*
X27534Y105390D01*
X27533Y105392D01*
X27448Y105425D01*
X15224Y105425D01*
X15222Y105424D01*
X15220Y105425D01*
X15177Y105405D01*
X15133Y105387D01*
X15133Y105385D01*
X15131Y105384D01*
X15098Y105299D01*
X15098Y93075D01*
X15099Y93073D01*
X15098Y93071D01*
X15118Y93028D01*
X15136Y92984D01*
X15138Y92984D01*
X15139Y92982D01*
X15224Y92949D01*
X27448Y92949D01*
X27450Y92950D01*
G37*
G36*
X-15222Y78726D02*
X-15222Y78726D01*
X-15220Y78725D01*
X-15177Y78745D01*
X-15133Y78763D01*
X-15133Y78765D01*
X-15131Y78766D01*
X-15098Y78851D01*
X-15098Y91075D01*
X-15099Y91077D01*
X-15098Y91079D01*
X-15118Y91122D01*
X-15136Y91166D01*
X-15138Y91166D01*
X-15139Y91168D01*
X-15224Y91201D01*
X-27448Y91201D01*
X-27450Y91200D01*
X-27452Y91201D01*
X-27495Y91181D01*
X-27539Y91163D01*
X-27539Y91161D01*
X-27541Y91160D01*
X-27574Y91075D01*
X-27574Y78851D01*
X-27573Y78849D01*
X-27574Y78847D01*
X-27554Y78804D01*
X-27536Y78760D01*
X-27534Y78760D01*
X-27533Y78758D01*
X-27448Y78725D01*
X-15224Y78725D01*
X-15222Y78726D01*
G37*
G36*
X13226Y78726D02*
X13226Y78726D01*
X13228Y78725D01*
X13271Y78745D01*
X13315Y78763D01*
X13315Y78765D01*
X13317Y78766D01*
X13350Y78851D01*
X13350Y91075D01*
X13349Y91077D01*
X13350Y91079D01*
X13330Y91122D01*
X13312Y91166D01*
X13310Y91166D01*
X13309Y91168D01*
X13224Y91201D01*
X1000Y91201D01*
X998Y91200D01*
X996Y91201D01*
X953Y91181D01*
X909Y91163D01*
X909Y91161D01*
X907Y91160D01*
X874Y91075D01*
X874Y78851D01*
X875Y78849D01*
X874Y78847D01*
X894Y78804D01*
X912Y78760D01*
X914Y78760D01*
X915Y78758D01*
X1000Y78725D01*
X13224Y78725D01*
X13226Y78726D01*
G37*
G36*
X-998Y78726D02*
X-998Y78726D01*
X-996Y78725D01*
X-953Y78745D01*
X-909Y78763D01*
X-909Y78765D01*
X-907Y78766D01*
X-874Y78851D01*
X-874Y91075D01*
X-875Y91077D01*
X-874Y91079D01*
X-894Y91122D01*
X-912Y91166D01*
X-914Y91166D01*
X-915Y91168D01*
X-1000Y91201D01*
X-13224Y91201D01*
X-13226Y91200D01*
X-13228Y91201D01*
X-13271Y91181D01*
X-13315Y91163D01*
X-13315Y91161D01*
X-13317Y91160D01*
X-13350Y91075D01*
X-13350Y78851D01*
X-13349Y78849D01*
X-13350Y78847D01*
X-13330Y78804D01*
X-13312Y78760D01*
X-13310Y78760D01*
X-13309Y78758D01*
X-13224Y78725D01*
X-1000Y78725D01*
X-998Y78726D01*
G37*
G36*
X27450Y78726D02*
X27450Y78726D01*
X27452Y78725D01*
X27495Y78745D01*
X27539Y78763D01*
X27539Y78765D01*
X27541Y78766D01*
X27574Y78851D01*
X27574Y91075D01*
X27573Y91077D01*
X27574Y91079D01*
X27554Y91122D01*
X27536Y91166D01*
X27534Y91166D01*
X27533Y91168D01*
X27448Y91201D01*
X15224Y91201D01*
X15222Y91200D01*
X15220Y91201D01*
X15177Y91181D01*
X15133Y91163D01*
X15133Y91161D01*
X15131Y91160D01*
X15098Y91075D01*
X15098Y78851D01*
X15099Y78849D01*
X15098Y78847D01*
X15118Y78804D01*
X15136Y78760D01*
X15138Y78760D01*
X15139Y78758D01*
X15224Y78725D01*
X27448Y78725D01*
X27450Y78726D01*
G37*
G36*
X-998Y64502D02*
X-998Y64502D01*
X-996Y64501D01*
X-953Y64521D01*
X-909Y64539D01*
X-909Y64541D01*
X-907Y64542D01*
X-874Y64627D01*
X-874Y76851D01*
X-875Y76853D01*
X-874Y76855D01*
X-894Y76898D01*
X-912Y76942D01*
X-914Y76942D01*
X-915Y76944D01*
X-1000Y76977D01*
X-13224Y76977D01*
X-13226Y76976D01*
X-13228Y76977D01*
X-13271Y76957D01*
X-13315Y76939D01*
X-13315Y76937D01*
X-13317Y76936D01*
X-13350Y76851D01*
X-13350Y64627D01*
X-13349Y64625D01*
X-13350Y64623D01*
X-13330Y64580D01*
X-13312Y64536D01*
X-13310Y64536D01*
X-13309Y64534D01*
X-13224Y64501D01*
X-1000Y64501D01*
X-998Y64502D01*
G37*
G36*
X13226Y64502D02*
X13226Y64502D01*
X13228Y64501D01*
X13271Y64521D01*
X13315Y64539D01*
X13315Y64541D01*
X13317Y64542D01*
X13350Y64627D01*
X13350Y76851D01*
X13349Y76853D01*
X13350Y76855D01*
X13330Y76898D01*
X13312Y76942D01*
X13310Y76942D01*
X13309Y76944D01*
X13224Y76977D01*
X1000Y76977D01*
X998Y76976D01*
X996Y76977D01*
X953Y76957D01*
X909Y76939D01*
X909Y76937D01*
X907Y76936D01*
X874Y76851D01*
X874Y64627D01*
X875Y64625D01*
X874Y64623D01*
X894Y64580D01*
X912Y64536D01*
X914Y64536D01*
X915Y64534D01*
X1000Y64501D01*
X13224Y64501D01*
X13226Y64502D01*
G37*
G36*
X27450Y64502D02*
X27450Y64502D01*
X27452Y64501D01*
X27495Y64521D01*
X27539Y64539D01*
X27539Y64541D01*
X27541Y64542D01*
X27574Y64627D01*
X27574Y76851D01*
X27573Y76853D01*
X27574Y76855D01*
X27554Y76898D01*
X27536Y76942D01*
X27534Y76942D01*
X27533Y76944D01*
X27448Y76977D01*
X15224Y76977D01*
X15222Y76976D01*
X15220Y76977D01*
X15177Y76957D01*
X15133Y76939D01*
X15133Y76937D01*
X15131Y76936D01*
X15098Y76851D01*
X15098Y64627D01*
X15099Y64625D01*
X15098Y64623D01*
X15118Y64580D01*
X15136Y64536D01*
X15138Y64536D01*
X15139Y64534D01*
X15224Y64501D01*
X27448Y64501D01*
X27450Y64502D01*
G37*
G36*
X-15222Y64502D02*
X-15222Y64502D01*
X-15220Y64501D01*
X-15177Y64521D01*
X-15133Y64539D01*
X-15133Y64541D01*
X-15131Y64542D01*
X-15098Y64627D01*
X-15098Y76851D01*
X-15099Y76853D01*
X-15098Y76855D01*
X-15118Y76898D01*
X-15136Y76942D01*
X-15138Y76942D01*
X-15139Y76944D01*
X-15224Y76977D01*
X-27448Y76977D01*
X-27450Y76976D01*
X-27452Y76977D01*
X-27495Y76957D01*
X-27539Y76939D01*
X-27539Y76937D01*
X-27541Y76936D01*
X-27574Y76851D01*
X-27574Y64627D01*
X-27573Y64625D01*
X-27574Y64623D01*
X-27554Y64580D01*
X-27536Y64536D01*
X-27534Y64536D01*
X-27533Y64534D01*
X-27448Y64501D01*
X-15224Y64501D01*
X-15222Y64502D01*
G37*
D10*
X-33900Y236538D03*
X-16900Y236538D03*
D11*
X-16900Y227013D03*
X-33900Y227013D03*
X37075Y236538D03*
X20075Y236538D03*
X10088Y236538D03*
X-6913Y236538D03*
D10*
X47625Y158188D03*
X47625Y175188D03*
X66675Y175188D03*
X66675Y158188D03*
D12*
X53975Y70550D03*
X53975Y82550D03*
X53975Y94550D03*
D13*
X33800Y119582D03*
X33800Y114581D03*
X33800Y109579D03*
X33800Y104578D03*
X33800Y99577D03*
X33800Y94576D03*
X33800Y89574D03*
X33800Y84573D03*
X33800Y79572D03*
X33800Y74571D03*
X33800Y69569D03*
X33800Y64568D03*
D14*
X27507Y58275D03*
X22506Y58275D03*
X17504Y58275D03*
X12503Y58275D03*
X7502Y58275D03*
X2501Y58275D03*
X-2501Y58275D03*
X-7502Y58275D03*
X-12503Y58275D03*
X-17504Y58275D03*
X-22506Y58275D03*
X-27507Y58275D03*
D13*
X-33800Y64568D03*
X-33800Y69569D03*
X-33800Y74571D03*
X-33800Y79572D03*
X-33800Y84573D03*
X-33800Y89574D03*
X-33800Y94576D03*
X-33800Y99577D03*
X-33800Y104578D03*
X-33800Y109579D03*
X-33800Y114581D03*
X-33800Y119582D03*
D14*
X-27507Y125875D03*
X-22506Y125875D03*
X-17504Y125875D03*
X-12503Y125875D03*
X-7502Y125875D03*
X-2501Y125875D03*
X2501Y125875D03*
X7502Y125875D03*
X12503Y125875D03*
X17504Y125875D03*
X22506Y125875D03*
X27507Y125875D03*
D10*
X-47625Y138675D03*
X-47625Y121675D03*
D11*
X-29600Y36513D03*
X-46600Y36513D03*
X114300Y143900D03*
X114300Y160900D03*
D10*
X48650Y111125D03*
X65650Y111125D03*
X48650Y120650D03*
X65650Y120650D03*
D15*
X47650Y131763D03*
X66650Y131763D03*
X47650Y146050D03*
X66650Y146050D03*
D16*
X66563Y188913D03*
X44563Y188913D03*
D10*
X-53975Y86288D03*
X-53975Y69288D03*
D11*
X-42300Y52388D03*
X-59300Y52388D03*
M02*
