G04 EAGLE Gerber RS-274X export*
G75*
%MOMM*%
%FSLAX34Y34*%
%LPD*%
%INSolderpaste Bottom*%
%IPPOS*%
%AMOC8*
5,1,8,0,0,1.08239X$1,22.5*%
G01*
%ADD10R,1.100000X1.000000*%
%ADD11R,1.300000X1.500000*%
%ADD12R,1.168400X1.600200*%
%ADD13R,1.000000X1.100000*%
%ADD14R,1.200000X0.550000*%


D10*
X320430Y707390D03*
X337430Y707390D03*
D11*
X319430Y684530D03*
X338430Y684530D03*
D10*
X281940Y743830D03*
X281940Y726830D03*
D12*
X297180Y707390D03*
X281940Y707390D03*
D13*
G36*
X399887Y642901D02*
X394887Y651561D01*
X404413Y657061D01*
X409413Y648401D01*
X399887Y642901D01*
G37*
G36*
X408387Y628179D02*
X403387Y636839D01*
X412913Y642339D01*
X417913Y633679D01*
X408387Y628179D01*
G37*
G36*
X257241Y635473D02*
X265901Y630473D01*
X260401Y620947D01*
X251741Y625947D01*
X257241Y635473D01*
G37*
G36*
X242519Y643973D02*
X251179Y638973D01*
X245679Y629447D01*
X237019Y634447D01*
X242519Y643973D01*
G37*
X373380Y687950D03*
X373380Y670950D03*
X302260Y621910D03*
X302260Y604910D03*
X397510Y687950D03*
X397510Y670950D03*
X276860Y621910D03*
X276860Y604910D03*
D11*
G36*
X217255Y645158D02*
X223755Y656416D01*
X236745Y648916D01*
X230245Y637658D01*
X217255Y645158D01*
G37*
G36*
X207755Y628704D02*
X214255Y639962D01*
X227245Y632462D01*
X220745Y621204D01*
X207755Y628704D01*
G37*
G36*
X196935Y656588D02*
X203435Y667846D01*
X216425Y660346D01*
X209925Y649088D01*
X196935Y656588D01*
G37*
G36*
X187435Y640134D02*
X193935Y651392D01*
X206925Y643892D01*
X200425Y632634D01*
X187435Y640134D01*
G37*
G36*
X443605Y638692D02*
X450105Y627434D01*
X437115Y619934D01*
X430615Y631192D01*
X443605Y638692D01*
G37*
G36*
X434105Y655146D02*
X440605Y643888D01*
X427615Y636388D01*
X421115Y647646D01*
X434105Y655146D01*
G37*
G36*
X465195Y651392D02*
X471695Y640134D01*
X458705Y632634D01*
X452205Y643892D01*
X465195Y651392D01*
G37*
G36*
X455695Y667846D02*
X462195Y656588D01*
X449205Y649088D01*
X442705Y660346D01*
X455695Y667846D01*
G37*
D14*
X376890Y579780D03*
X376890Y589280D03*
X376890Y598780D03*
X402890Y598780D03*
X402890Y579780D03*
D10*
X398390Y614680D03*
X381390Y614680D03*
D11*
X400660Y561340D03*
X381660Y561340D03*
D13*
X422910Y579510D03*
X422910Y596510D03*
D12*
X351790Y619760D03*
X336550Y619760D03*
M02*
