M48
;GenerationSoftware,Autodesk,EAGLE,9.6.2*%
;CreationDate,2020-08-23T14:10:31Z*%
FMAT,2
ICI,OFF
METRIC,TZ,000.000
T2C0.350
T1C1.100
%
G90
M71
T1
X34770Y75719
X34643Y23341
X31143Y23341
X22580Y68792
X24330Y71824
X41710Y71824
X43460Y68792
X31270Y75719
T2
X18796Y32512
X18796Y36576
X21336Y28067
X24130Y22987
X41783Y41275
X44450Y37973
X42164Y36195
X39370Y38862
X39370Y45339
X39243Y42672
X37846Y23368
X41910Y23114
X44577Y27559
X47244Y31750
X43307Y30353
X41148Y25781
X45085Y33147
X39878Y29718
X37465Y27686
X41148Y33020
X38227Y32512
X34925Y28829
X27178Y45720
X24511Y37973
X21717Y34671
X25908Y32766
X29337Y25781
X28067Y22098
X32766Y20955
X32893Y25781
X29464Y31623
X22987Y31115
X29591Y34290
X31496Y40513
X33909Y40513
X33909Y39243
X31496Y39243
X32639Y39878
X26289Y27559
X24003Y74422
X25781Y75057
X26670Y76835
X36957Y74168
X29845Y72771
X21971Y71120
X26289Y73152
X26416Y70739
X27432Y68199
X28321Y66929
X24384Y66167
X18923Y62103
X21336Y57150
X23876Y53594
X26543Y53467
X27305Y55499
X24003Y56388
X21336Y60833
X29972Y51181
X31242Y52197
X32512Y51181
X31242Y53594
X42672Y53467
X45085Y61722
X39497Y70612
X41656Y67056
X43815Y71120
X39243Y72898
X38862Y74930
X41656Y74295
X40005Y76708
X36830Y76962
X33020Y77597
X29845Y77597
X30353Y47752
X41783Y69850
X32131Y62357
X32131Y63754
X25273Y54864
X28448Y53594
X31242Y55118
X25400Y68072
X43942Y57658
X39243Y60960
X33528Y43561
X34329Y41910
X28194Y75311
X24384Y69850
X39269Y63964
X33655Y58293
X22580Y66421
X43460Y66548
X43307Y55245
X31496Y46863
X32639Y47752
X42418Y45339
X44831Y41402
X20828Y40259
X23368Y44704
X47625Y36830
X23507Y58848
M30