G04 EAGLE Gerber RS-274X export*
G75*
%MOMM*%
%FSLAX34Y34*%
%LPD*%
%INBottom Copper*%
%IPPOS*%
%AMOC8*
5,1,8,0,0,1.08239X$1,22.5*%
G01*
%ADD10C,1.000000*%
%ADD11C,1.700000*%
%ADD12R,1.100000X1.000000*%
%ADD13R,1.300000X1.500000*%
%ADD14R,1.168400X1.600200*%
%ADD15R,1.000000X1.100000*%
%ADD16R,1.200000X0.550000*%
%ADD17C,0.756400*%
%ADD18C,0.254000*%
%ADD19C,0.406400*%
%ADD20C,0.812800*%
%ADD21C,0.609600*%

G36*
X387206Y503044D02*
X387206Y503044D01*
X387224Y503041D01*
X387304Y503063D01*
X387385Y503080D01*
X387400Y503090D01*
X387417Y503094D01*
X387482Y503146D01*
X387551Y503192D01*
X387561Y503207D01*
X387575Y503218D01*
X387634Y503320D01*
X387660Y503360D01*
X387662Y503367D01*
X387666Y503374D01*
X390168Y510250D01*
X396843Y518204D01*
X405836Y523396D01*
X416062Y525199D01*
X426288Y523396D01*
X428326Y522220D01*
X428331Y522218D01*
X428335Y522215D01*
X428426Y522186D01*
X428516Y522156D01*
X428521Y522156D01*
X428526Y522155D01*
X428621Y522164D01*
X428716Y522170D01*
X428720Y522173D01*
X428726Y522173D01*
X428810Y522218D01*
X428894Y522261D01*
X428898Y522265D01*
X428902Y522268D01*
X429019Y522405D01*
X491120Y629972D01*
X493616Y628249D01*
X493643Y628238D01*
X493665Y628219D01*
X493734Y628199D01*
X493799Y628171D01*
X493828Y628171D01*
X493856Y628163D01*
X493927Y628171D01*
X493998Y628171D01*
X494025Y628182D01*
X494054Y628185D01*
X494116Y628220D01*
X494181Y628248D01*
X494202Y628268D01*
X494227Y628283D01*
X494290Y628360D01*
X494320Y628390D01*
X494324Y628400D01*
X494333Y628411D01*
X503833Y644911D01*
X503843Y644943D01*
X503852Y644956D01*
X503856Y644980D01*
X503857Y644984D01*
X503888Y645054D01*
X503888Y645078D01*
X503896Y645100D01*
X503890Y645176D01*
X503891Y645253D01*
X503881Y645277D01*
X503880Y645298D01*
X503859Y645337D01*
X503833Y645409D01*
X494333Y661909D01*
X494314Y661931D01*
X494301Y661957D01*
X494248Y662005D01*
X494201Y662058D01*
X494175Y662071D01*
X494154Y662090D01*
X494086Y662113D01*
X494022Y662144D01*
X493993Y662146D01*
X493966Y662155D01*
X493894Y662150D01*
X493823Y662153D01*
X493796Y662143D01*
X493767Y662141D01*
X493677Y662099D01*
X493637Y662084D01*
X493629Y662077D01*
X493616Y662071D01*
X491120Y660348D01*
X423815Y776928D01*
X426553Y778227D01*
X426577Y778245D01*
X426604Y778255D01*
X426656Y778304D01*
X426713Y778347D01*
X426727Y778372D01*
X426748Y778392D01*
X426777Y778457D01*
X426812Y778519D01*
X426816Y778547D01*
X426828Y778574D01*
X426828Y778645D01*
X426837Y778716D01*
X426829Y778744D01*
X426830Y778773D01*
X426795Y778866D01*
X426783Y778907D01*
X426776Y778916D01*
X426771Y778929D01*
X417232Y795406D01*
X417181Y795463D01*
X417136Y795525D01*
X417116Y795537D01*
X417100Y795555D01*
X417031Y795588D01*
X416965Y795627D01*
X416939Y795631D01*
X416921Y795640D01*
X416876Y795642D01*
X416801Y795655D01*
X397761Y795678D01*
X397733Y795672D01*
X397704Y795674D01*
X397636Y795652D01*
X397566Y795638D01*
X397542Y795622D01*
X397515Y795613D01*
X397461Y795566D01*
X397402Y795526D01*
X397387Y795502D01*
X397365Y795483D01*
X397333Y795418D01*
X397295Y795358D01*
X397290Y795330D01*
X397277Y795304D01*
X397269Y795204D01*
X397262Y795162D01*
X397264Y795152D01*
X397263Y795138D01*
X397507Y792119D01*
X262893Y792119D01*
X263137Y795138D01*
X263134Y795167D01*
X263138Y795195D01*
X263122Y795265D01*
X263113Y795336D01*
X263099Y795361D01*
X263092Y795389D01*
X263050Y795446D01*
X263014Y795508D01*
X262991Y795526D01*
X262974Y795549D01*
X262913Y795585D01*
X262856Y795628D01*
X262828Y795635D01*
X262803Y795650D01*
X262704Y795667D01*
X262663Y795677D01*
X262652Y795675D01*
X262639Y795678D01*
X243599Y795655D01*
X243524Y795639D01*
X243448Y795631D01*
X243427Y795620D01*
X243405Y795615D01*
X243341Y795571D01*
X243274Y795534D01*
X243258Y795514D01*
X243241Y795502D01*
X243217Y795465D01*
X243168Y795406D01*
X233629Y778929D01*
X233619Y778901D01*
X233603Y778877D01*
X233588Y778808D01*
X233565Y778740D01*
X233567Y778711D01*
X233561Y778683D01*
X233575Y778613D01*
X233580Y778542D01*
X233594Y778516D01*
X233599Y778488D01*
X233639Y778428D01*
X233672Y778365D01*
X233694Y778347D01*
X233710Y778323D01*
X233792Y778265D01*
X233825Y778238D01*
X233835Y778235D01*
X233847Y778227D01*
X236585Y776928D01*
X169280Y660348D01*
X166784Y662071D01*
X166757Y662082D01*
X166735Y662101D01*
X166666Y662121D01*
X166601Y662149D01*
X166572Y662149D01*
X166544Y662157D01*
X166473Y662149D01*
X166402Y662150D01*
X166375Y662138D01*
X166346Y662135D01*
X166284Y662100D01*
X166219Y662072D01*
X166198Y662052D01*
X166173Y662037D01*
X166110Y661960D01*
X166080Y661930D01*
X166076Y661920D01*
X166067Y661909D01*
X156567Y645409D01*
X156543Y645336D01*
X156512Y645266D01*
X156512Y645242D01*
X156504Y645220D01*
X156511Y645144D01*
X156510Y645067D01*
X156519Y645043D01*
X156520Y645022D01*
X156541Y644983D01*
X156560Y644931D01*
X156561Y644925D01*
X156563Y644923D01*
X156567Y644911D01*
X166067Y628411D01*
X166086Y628389D01*
X166099Y628363D01*
X166152Y628315D01*
X166199Y628262D01*
X166225Y628249D01*
X166247Y628230D01*
X166314Y628207D01*
X166378Y628176D01*
X166407Y628175D01*
X166434Y628165D01*
X166506Y628170D01*
X166577Y628167D01*
X166604Y628177D01*
X166633Y628179D01*
X166723Y628221D01*
X166763Y628236D01*
X166771Y628243D01*
X166784Y628249D01*
X169280Y629972D01*
X231381Y522405D01*
X231385Y522402D01*
X231387Y522397D01*
X231451Y522326D01*
X231514Y522255D01*
X231519Y522253D01*
X231522Y522249D01*
X231608Y522209D01*
X231694Y522168D01*
X231700Y522168D01*
X231704Y522165D01*
X231799Y522162D01*
X231895Y522157D01*
X231900Y522159D01*
X231905Y522159D01*
X232074Y522220D01*
X234112Y523396D01*
X244338Y525199D01*
X254564Y523396D01*
X263557Y518204D01*
X270232Y510250D01*
X272734Y503374D01*
X272744Y503359D01*
X272748Y503341D01*
X272796Y503274D01*
X272839Y503203D01*
X272853Y503192D01*
X272864Y503178D01*
X272934Y503134D01*
X273001Y503086D01*
X273019Y503082D01*
X273034Y503072D01*
X273150Y503051D01*
X273197Y503040D01*
X273204Y503042D01*
X273211Y503040D01*
X387189Y503040D01*
X387206Y503044D01*
G37*
G36*
X394556Y198210D02*
X394556Y198210D01*
X394601Y198209D01*
X394653Y198229D01*
X394708Y198240D01*
X394745Y198266D01*
X394788Y198282D01*
X394828Y198322D01*
X394874Y198353D01*
X394898Y198391D01*
X394931Y198423D01*
X394957Y198480D01*
X394983Y198521D01*
X394989Y198553D01*
X395004Y198587D01*
X395021Y198656D01*
X395023Y198693D01*
X395034Y198737D01*
X395111Y199707D01*
X395198Y199781D01*
X395240Y199834D01*
X395289Y199882D01*
X395303Y199915D01*
X395322Y199939D01*
X395335Y199987D01*
X395362Y200046D01*
X395545Y200794D01*
X395548Y200862D01*
X395560Y200929D01*
X395552Y200964D01*
X395554Y200994D01*
X395536Y201041D01*
X395523Y201105D01*
X395480Y201211D01*
X395861Y202107D01*
X395868Y202144D01*
X395886Y202184D01*
X396118Y203129D01*
X396216Y203189D01*
X396266Y203235D01*
X396321Y203274D01*
X396341Y203304D01*
X396363Y203325D01*
X396384Y203370D01*
X396420Y203424D01*
X396721Y204133D01*
X396735Y204199D01*
X396757Y204263D01*
X396755Y204300D01*
X396761Y204330D01*
X396752Y204378D01*
X396749Y204443D01*
X396723Y204555D01*
X397242Y205378D01*
X397256Y205413D01*
X397280Y205451D01*
X397661Y206346D01*
X397767Y206389D01*
X397824Y206426D01*
X397884Y206456D01*
X397909Y206483D01*
X397934Y206499D01*
X397962Y206541D01*
X398006Y206589D01*
X398417Y207240D01*
X398441Y207304D01*
X398473Y207363D01*
X398477Y207399D01*
X398488Y207428D01*
X398487Y207477D01*
X398494Y207542D01*
X398487Y207656D01*
X399131Y208386D01*
X399150Y208418D01*
X399180Y208451D01*
X399700Y209274D01*
X399811Y209299D01*
X399873Y209327D01*
X399938Y209346D01*
X399966Y209369D01*
X399994Y209381D01*
X400028Y209418D01*
X400079Y209458D01*
X400589Y210035D01*
X400623Y210094D01*
X400664Y210147D01*
X400672Y210174D01*
X400681Y210188D01*
X400683Y210196D01*
X400690Y210209D01*
X400696Y210258D01*
X400714Y210321D01*
X400725Y210435D01*
X401478Y211051D01*
X401502Y211080D01*
X401537Y211108D01*
X402182Y211837D01*
X402296Y211844D01*
X402361Y211861D01*
X402428Y211870D01*
X402460Y211887D01*
X402490Y211895D01*
X402529Y211926D01*
X402586Y211958D01*
X403182Y212445D01*
X403225Y212498D01*
X403274Y212544D01*
X403289Y212577D01*
X403309Y212600D01*
X403323Y212648D01*
X403351Y212707D01*
X403380Y212818D01*
X404222Y213305D01*
X404250Y213330D01*
X404289Y213352D01*
X405042Y213968D01*
X405157Y213957D01*
X405224Y213963D01*
X405292Y213961D01*
X405325Y213974D01*
X405356Y213977D01*
X405400Y214000D01*
X405461Y214023D01*
X406127Y214408D01*
X406178Y214453D01*
X406234Y214491D01*
X406255Y214521D01*
X406278Y214541D01*
X406299Y214586D01*
X406336Y214640D01*
X406383Y214744D01*
X407292Y215090D01*
X407324Y215110D01*
X407366Y215126D01*
X408208Y215613D01*
X408319Y215583D01*
X408387Y215579D01*
X408453Y215566D01*
X408489Y215573D01*
X408519Y215571D01*
X408566Y215588D01*
X408630Y215600D01*
X409350Y215873D01*
X409407Y215910D01*
X409469Y215938D01*
X409493Y215964D01*
X409519Y215980D01*
X409548Y216021D01*
X409593Y216068D01*
X409656Y216164D01*
X410609Y216360D01*
X410643Y216374D01*
X410688Y216383D01*
X411597Y216729D01*
X411701Y216682D01*
X411767Y216667D01*
X411831Y216643D01*
X411867Y216644D01*
X411897Y216638D01*
X411946Y216646D01*
X412011Y216648D01*
X412766Y216803D01*
X412828Y216829D01*
X412893Y216847D01*
X412922Y216869D01*
X412950Y216881D01*
X412985Y216917D01*
X413037Y216956D01*
X413114Y217040D01*
X414086Y217081D01*
X414123Y217090D01*
X414167Y217091D01*
X415121Y217286D01*
X415216Y217223D01*
X415279Y217198D01*
X415338Y217165D01*
X415374Y217160D01*
X415402Y217148D01*
X415452Y217149D01*
X415517Y217140D01*
X416286Y217172D01*
X416352Y217188D01*
X416419Y217196D01*
X416451Y217212D01*
X416481Y217220D01*
X416521Y217249D01*
X416578Y217280D01*
X416668Y217351D01*
X417635Y217235D01*
X417672Y217238D01*
X417716Y217231D01*
X418688Y217272D01*
X418773Y217194D01*
X418831Y217159D01*
X418883Y217117D01*
X418918Y217106D01*
X418944Y217090D01*
X418993Y217083D01*
X419056Y217064D01*
X419820Y216972D01*
X419847Y216974D01*
X419874Y216969D01*
X419882Y216969D01*
X419916Y216976D01*
X419955Y216974D01*
X419989Y216985D01*
X420020Y216988D01*
X420049Y217003D01*
X420079Y217009D01*
X420099Y217022D01*
X420126Y217031D01*
X420226Y217087D01*
X421161Y216817D01*
X421198Y216814D01*
X421241Y216801D01*
X422207Y216685D01*
X422278Y216595D01*
X422330Y216551D01*
X422375Y216501D01*
X422407Y216485D01*
X422431Y216465D01*
X422478Y216450D01*
X422537Y216421D01*
X423276Y216207D01*
X423344Y216202D01*
X423410Y216188D01*
X423446Y216193D01*
X423476Y216191D01*
X423523Y216206D01*
X423588Y216217D01*
X423696Y216256D01*
X424575Y215840D01*
X424612Y215831D01*
X424652Y215811D01*
X424750Y215782D01*
X424795Y215779D01*
X424837Y215765D01*
X424893Y215771D01*
X424950Y215766D01*
X424992Y215780D01*
X425037Y215784D01*
X425087Y215811D01*
X425140Y215828D01*
X425174Y215858D01*
X425214Y215879D01*
X425255Y215927D01*
X425292Y215960D01*
X425306Y215988D01*
X425330Y216016D01*
X489607Y327350D01*
X489621Y327393D01*
X489645Y327431D01*
X489653Y327487D01*
X489671Y327540D01*
X489668Y327585D01*
X489674Y327630D01*
X489660Y327684D01*
X489656Y327740D01*
X489636Y327780D01*
X489625Y327824D01*
X489587Y327875D01*
X489565Y327919D01*
X489541Y327939D01*
X489519Y327970D01*
X489477Y328010D01*
X489445Y328030D01*
X489413Y328062D01*
X488613Y328615D01*
X488592Y328728D01*
X488567Y328790D01*
X488550Y328856D01*
X488529Y328885D01*
X488518Y328914D01*
X488483Y328949D01*
X488444Y329002D01*
X487885Y329540D01*
X487827Y329576D01*
X487775Y329620D01*
X487741Y329631D01*
X487715Y329647D01*
X487666Y329656D01*
X487604Y329676D01*
X487491Y329692D01*
X486906Y330470D01*
X486879Y330495D01*
X486852Y330531D01*
X486150Y331205D01*
X486148Y331320D01*
X486133Y331386D01*
X486127Y331453D01*
X486111Y331486D01*
X486105Y331516D01*
X486076Y331556D01*
X486047Y331614D01*
X485580Y332235D01*
X485530Y332280D01*
X485485Y332331D01*
X485453Y332348D01*
X485430Y332368D01*
X485383Y332384D01*
X485326Y332415D01*
X485216Y332449D01*
X484764Y333310D01*
X484740Y333339D01*
X484720Y333379D01*
X484136Y334157D01*
X484152Y334271D01*
X484148Y334338D01*
X484153Y334406D01*
X484142Y334440D01*
X484140Y334471D01*
X484118Y334516D01*
X484099Y334578D01*
X483738Y335265D01*
X483695Y335318D01*
X483660Y335375D01*
X483631Y335397D01*
X483612Y335421D01*
X483568Y335444D01*
X483515Y335483D01*
X483413Y335534D01*
X483105Y336457D01*
X483086Y336490D01*
X483073Y336533D01*
X482621Y337394D01*
X482655Y337504D01*
X482662Y337571D01*
X482677Y337637D01*
X482672Y337672D01*
X482675Y337703D01*
X482661Y337751D01*
X482652Y337815D01*
X482406Y338552D01*
X482372Y338610D01*
X482346Y338673D01*
X482321Y338699D01*
X482306Y338725D01*
X482266Y338756D01*
X482221Y338803D01*
X482128Y338869D01*
X481972Y339830D01*
X481959Y339865D01*
X481952Y339909D01*
X481644Y340832D01*
X481695Y340935D01*
X481713Y341000D01*
X481739Y341063D01*
X481740Y341099D01*
X481748Y341128D01*
X481741Y341177D01*
X481742Y341243D01*
X481618Y342009D01*
X481594Y342073D01*
X481579Y342138D01*
X481558Y342168D01*
X481547Y342197D01*
X481513Y342233D01*
X481476Y342286D01*
X481395Y342367D01*
X481395Y343341D01*
X481387Y343377D01*
X481388Y343422D01*
X481232Y344382D01*
X481299Y344475D01*
X481327Y344537D01*
X481363Y344595D01*
X481369Y344630D01*
X481382Y344658D01*
X481383Y344708D01*
X481395Y344772D01*
X481395Y345548D01*
X481381Y345615D01*
X481377Y345682D01*
X481361Y345715D01*
X481355Y345745D01*
X481327Y345786D01*
X481299Y345845D01*
X481232Y345938D01*
X481388Y346898D01*
X481387Y346935D01*
X481395Y346979D01*
X481395Y347953D01*
X481476Y348034D01*
X481513Y348090D01*
X481558Y348141D01*
X481570Y348175D01*
X481587Y348201D01*
X481596Y348249D01*
X481618Y348311D01*
X481742Y349077D01*
X481740Y349145D01*
X481746Y349212D01*
X481736Y349247D01*
X481735Y349278D01*
X481714Y349323D01*
X481695Y349385D01*
X481644Y349488D01*
X481952Y350411D01*
X481957Y350448D01*
X481972Y350490D01*
X482128Y351451D01*
X482221Y351517D01*
X482267Y351567D01*
X482319Y351610D01*
X482336Y351642D01*
X482357Y351664D01*
X482374Y351711D01*
X482406Y351768D01*
X482652Y352505D01*
X482660Y352572D01*
X482677Y352638D01*
X482672Y352673D01*
X482676Y352704D01*
X482663Y352752D01*
X482655Y352816D01*
X482621Y352926D01*
X483073Y353787D01*
X483083Y353823D01*
X483105Y353863D01*
X483413Y354786D01*
X483515Y354837D01*
X483569Y354878D01*
X483627Y354913D01*
X483649Y354941D01*
X483674Y354960D01*
X483698Y355003D01*
X483738Y355055D01*
X484099Y355742D01*
X484104Y355760D01*
X484109Y355769D01*
X484114Y355794D01*
X484118Y355807D01*
X484145Y355869D01*
X484146Y355905D01*
X484155Y355935D01*
X484149Y355984D01*
X484152Y356049D01*
X484136Y356163D01*
X484720Y356941D01*
X484736Y356974D01*
X484764Y357010D01*
X485216Y357871D01*
X485326Y357905D01*
X485385Y357938D01*
X485448Y357962D01*
X485475Y357987D01*
X485501Y358002D01*
X485532Y358041D01*
X485580Y358085D01*
X486047Y358706D01*
X486076Y358767D01*
X486113Y358823D01*
X486120Y358859D01*
X486133Y358886D01*
X486135Y358936D01*
X486148Y359000D01*
X486150Y359115D01*
X486852Y359789D01*
X486873Y359819D01*
X486906Y359850D01*
X487491Y360628D01*
X487604Y360644D01*
X487668Y360666D01*
X487735Y360681D01*
X487764Y360700D01*
X487793Y360711D01*
X487830Y360744D01*
X487885Y360780D01*
X488444Y361318D01*
X488483Y361374D01*
X488529Y361424D01*
X488541Y361458D01*
X488559Y361483D01*
X488569Y361531D01*
X488592Y361592D01*
X488613Y361705D01*
X489413Y362258D01*
X489439Y362285D01*
X489477Y362310D01*
X489519Y362350D01*
X489544Y362387D01*
X489578Y362417D01*
X489601Y362469D01*
X489633Y362515D01*
X489643Y362559D01*
X489661Y362600D01*
X489663Y362656D01*
X489675Y362711D01*
X489666Y362755D01*
X489668Y362800D01*
X489646Y362860D01*
X489637Y362908D01*
X489620Y362934D01*
X489607Y362970D01*
X428897Y468125D01*
X428894Y468128D01*
X428892Y468133D01*
X428828Y468203D01*
X428765Y468275D01*
X428760Y468277D01*
X428757Y468281D01*
X428670Y468321D01*
X428584Y468362D01*
X428579Y468362D01*
X428574Y468365D01*
X428480Y468368D01*
X428384Y468373D01*
X428379Y468371D01*
X428374Y468371D01*
X428204Y468310D01*
X426288Y467204D01*
X416062Y465401D01*
X405836Y467204D01*
X396843Y472396D01*
X390168Y480350D01*
X387573Y487480D01*
X387564Y487495D01*
X387560Y487513D01*
X387512Y487580D01*
X387469Y487651D01*
X387454Y487662D01*
X387444Y487676D01*
X387373Y487720D01*
X387306Y487769D01*
X387289Y487773D01*
X387274Y487782D01*
X387158Y487803D01*
X387111Y487814D01*
X387104Y487813D01*
X387096Y487814D01*
X273304Y487814D01*
X273286Y487810D01*
X273269Y487813D01*
X273189Y487791D01*
X273107Y487774D01*
X273092Y487764D01*
X273075Y487760D01*
X273010Y487708D01*
X272941Y487662D01*
X272932Y487647D01*
X272918Y487636D01*
X272858Y487534D01*
X272832Y487494D01*
X272831Y487487D01*
X272827Y487480D01*
X270232Y480350D01*
X263557Y472396D01*
X254564Y467204D01*
X244338Y465401D01*
X234112Y467204D01*
X232196Y468310D01*
X232191Y468312D01*
X232187Y468315D01*
X232096Y468344D01*
X232006Y468374D01*
X232000Y468374D01*
X231995Y468375D01*
X231901Y468366D01*
X231806Y468360D01*
X231801Y468357D01*
X231796Y468357D01*
X231711Y468311D01*
X231627Y468269D01*
X231624Y468265D01*
X231619Y468262D01*
X231503Y468125D01*
X170793Y362970D01*
X170779Y362927D01*
X170755Y362888D01*
X170747Y362833D01*
X170729Y362780D01*
X170732Y362735D01*
X170726Y362690D01*
X170740Y362636D01*
X170744Y362580D01*
X170764Y362540D01*
X170775Y362496D01*
X170813Y362445D01*
X170835Y362401D01*
X170859Y362380D01*
X170881Y362350D01*
X170923Y362310D01*
X170955Y362290D01*
X170987Y362258D01*
X171787Y361705D01*
X171808Y361592D01*
X171833Y361530D01*
X171850Y361464D01*
X171871Y361435D01*
X171882Y361406D01*
X171917Y361371D01*
X171956Y361318D01*
X172515Y360780D01*
X172573Y360744D01*
X172625Y360700D01*
X172659Y360689D01*
X172685Y360673D01*
X172734Y360664D01*
X172796Y360644D01*
X172909Y360628D01*
X173494Y359850D01*
X173521Y359825D01*
X173548Y359789D01*
X174250Y359115D01*
X174252Y359000D01*
X174267Y358934D01*
X174273Y358867D01*
X174289Y358834D01*
X174295Y358804D01*
X174324Y358764D01*
X174353Y358706D01*
X174820Y358085D01*
X174870Y358040D01*
X174915Y357989D01*
X174947Y357972D01*
X174970Y357952D01*
X175017Y357936D01*
X175074Y357905D01*
X175184Y357871D01*
X175636Y357010D01*
X175660Y356981D01*
X175680Y356941D01*
X176264Y356163D01*
X176248Y356049D01*
X176252Y355982D01*
X176247Y355914D01*
X176258Y355880D01*
X176260Y355849D01*
X176282Y355804D01*
X176298Y355753D01*
X176299Y355750D01*
X176299Y355749D01*
X176301Y355742D01*
X176662Y355055D01*
X176705Y355002D01*
X176740Y354945D01*
X176769Y354923D01*
X176788Y354899D01*
X176832Y354876D01*
X176885Y354837D01*
X176987Y354786D01*
X177295Y353863D01*
X177314Y353830D01*
X177327Y353787D01*
X177779Y352926D01*
X177745Y352816D01*
X177738Y352749D01*
X177723Y352683D01*
X177728Y352648D01*
X177725Y352617D01*
X177739Y352569D01*
X177748Y352505D01*
X177994Y351768D01*
X178028Y351710D01*
X178054Y351647D01*
X178079Y351621D01*
X178094Y351595D01*
X178134Y351564D01*
X178179Y351517D01*
X178272Y351451D01*
X178428Y350490D01*
X178441Y350455D01*
X178448Y350411D01*
X178756Y349488D01*
X178705Y349385D01*
X178687Y349320D01*
X178661Y349257D01*
X178660Y349221D01*
X178652Y349192D01*
X178659Y349143D01*
X178658Y349077D01*
X178782Y348311D01*
X178806Y348247D01*
X178821Y348182D01*
X178842Y348152D01*
X178853Y348123D01*
X178887Y348087D01*
X178924Y348034D01*
X179005Y347953D01*
X179005Y346979D01*
X179013Y346943D01*
X179012Y346898D01*
X179168Y345938D01*
X179101Y345845D01*
X179073Y345783D01*
X179037Y345726D01*
X179031Y345690D01*
X179018Y345662D01*
X179017Y345612D01*
X179005Y345548D01*
X179005Y344772D01*
X179019Y344705D01*
X179023Y344638D01*
X179039Y344605D01*
X179045Y344575D01*
X179073Y344534D01*
X179101Y344475D01*
X179168Y344382D01*
X179012Y343422D01*
X179013Y343385D01*
X179005Y343341D01*
X179005Y342367D01*
X178924Y342286D01*
X178887Y342230D01*
X178842Y342179D01*
X178830Y342145D01*
X178813Y342119D01*
X178804Y342071D01*
X178782Y342009D01*
X178658Y341243D01*
X178660Y341175D01*
X178654Y341108D01*
X178664Y341073D01*
X178665Y341042D01*
X178686Y340997D01*
X178705Y340935D01*
X178756Y340832D01*
X178448Y339909D01*
X178443Y339872D01*
X178428Y339830D01*
X178272Y338869D01*
X178179Y338803D01*
X178133Y338753D01*
X178081Y338710D01*
X178064Y338678D01*
X178043Y338656D01*
X178026Y338609D01*
X177994Y338552D01*
X177748Y337815D01*
X177740Y337748D01*
X177723Y337682D01*
X177728Y337647D01*
X177724Y337616D01*
X177737Y337568D01*
X177745Y337504D01*
X177779Y337394D01*
X177327Y336533D01*
X177317Y336497D01*
X177295Y336457D01*
X176987Y335534D01*
X176885Y335483D01*
X176831Y335442D01*
X176773Y335407D01*
X176751Y335379D01*
X176726Y335360D01*
X176702Y335317D01*
X176662Y335265D01*
X176301Y334578D01*
X176282Y334513D01*
X176255Y334451D01*
X176254Y334415D01*
X176245Y334385D01*
X176251Y334336D01*
X176248Y334271D01*
X176264Y334157D01*
X175680Y333379D01*
X175664Y333346D01*
X175636Y333310D01*
X175184Y332449D01*
X175074Y332415D01*
X175015Y332382D01*
X174952Y332358D01*
X174925Y332333D01*
X174899Y332318D01*
X174868Y332279D01*
X174820Y332235D01*
X174353Y331614D01*
X174324Y331553D01*
X174287Y331497D01*
X174280Y331461D01*
X174267Y331434D01*
X174265Y331384D01*
X174252Y331320D01*
X174250Y331205D01*
X173548Y330531D01*
X173527Y330501D01*
X173494Y330470D01*
X172909Y329692D01*
X172796Y329676D01*
X172732Y329654D01*
X172665Y329639D01*
X172636Y329620D01*
X172607Y329609D01*
X172570Y329576D01*
X172515Y329540D01*
X171956Y329002D01*
X171917Y328946D01*
X171871Y328896D01*
X171859Y328862D01*
X171841Y328837D01*
X171831Y328789D01*
X171808Y328728D01*
X171787Y328615D01*
X170987Y328062D01*
X170961Y328035D01*
X170923Y328010D01*
X170881Y327970D01*
X170856Y327933D01*
X170822Y327903D01*
X170799Y327851D01*
X170767Y327805D01*
X170757Y327761D01*
X170739Y327720D01*
X170737Y327664D01*
X170725Y327609D01*
X170734Y327565D01*
X170732Y327520D01*
X170754Y327460D01*
X170763Y327412D01*
X170780Y327386D01*
X170793Y327350D01*
X235070Y216016D01*
X235100Y215983D01*
X235121Y215943D01*
X235165Y215908D01*
X235203Y215866D01*
X235243Y215846D01*
X235278Y215818D01*
X235332Y215803D01*
X235383Y215779D01*
X235428Y215776D01*
X235471Y215764D01*
X235534Y215771D01*
X235583Y215768D01*
X235613Y215779D01*
X235650Y215782D01*
X235748Y215811D01*
X235781Y215828D01*
X235825Y215840D01*
X236704Y216256D01*
X236812Y216217D01*
X236879Y216207D01*
X236944Y216189D01*
X236980Y216193D01*
X237011Y216188D01*
X237059Y216201D01*
X237124Y216207D01*
X237863Y216421D01*
X237924Y216452D01*
X237987Y216475D01*
X238014Y216499D01*
X238041Y216513D01*
X238073Y216551D01*
X238122Y216595D01*
X238193Y216685D01*
X239159Y216801D01*
X239194Y216813D01*
X239239Y216817D01*
X240174Y217087D01*
X240274Y217031D01*
X240310Y217020D01*
X240341Y217001D01*
X240373Y216995D01*
X240400Y216982D01*
X240436Y216980D01*
X240465Y216971D01*
X240492Y216974D01*
X240518Y216969D01*
X240526Y216969D01*
X240549Y216974D01*
X240580Y216972D01*
X241344Y217064D01*
X241409Y217085D01*
X241475Y217098D01*
X241506Y217117D01*
X241535Y217127D01*
X241572Y217159D01*
X241627Y217194D01*
X241712Y217272D01*
X242684Y217231D01*
X242721Y217237D01*
X242765Y217235D01*
X243732Y217351D01*
X243822Y217280D01*
X243882Y217249D01*
X243938Y217211D01*
X243973Y217203D01*
X244001Y217190D01*
X244050Y217186D01*
X244114Y217172D01*
X244883Y217140D01*
X244950Y217151D01*
X245018Y217153D01*
X245051Y217167D01*
X245081Y217172D01*
X245124Y217198D01*
X245184Y217223D01*
X245279Y217286D01*
X246233Y217091D01*
X246270Y217091D01*
X246314Y217081D01*
X247286Y217040D01*
X247363Y216956D01*
X247418Y216916D01*
X247467Y216870D01*
X247501Y216856D01*
X247525Y216838D01*
X247574Y216827D01*
X247635Y216803D01*
X248389Y216648D01*
X248457Y216648D01*
X248524Y216639D01*
X248559Y216647D01*
X248589Y216647D01*
X248635Y216666D01*
X248698Y216682D01*
X248803Y216729D01*
X249712Y216383D01*
X249749Y216377D01*
X249791Y216360D01*
X250744Y216164D01*
X250807Y216068D01*
X250855Y216020D01*
X250896Y215966D01*
X250927Y215948D01*
X250948Y215926D01*
X250994Y215907D01*
X251050Y215873D01*
X251770Y215600D01*
X251837Y215588D01*
X251901Y215569D01*
X251937Y215572D01*
X251968Y215567D01*
X252016Y215578D01*
X252081Y215584D01*
X252192Y215613D01*
X253034Y215126D01*
X253069Y215114D01*
X253108Y215090D01*
X254017Y214744D01*
X254064Y214640D01*
X254103Y214585D01*
X254135Y214525D01*
X254163Y214501D01*
X254180Y214477D01*
X254223Y214451D01*
X254273Y214408D01*
X254939Y214023D01*
X255003Y214001D01*
X255064Y213971D01*
X255100Y213968D01*
X255129Y213958D01*
X255178Y213962D01*
X255243Y213957D01*
X255358Y213968D01*
X256111Y213352D01*
X256143Y213334D01*
X256178Y213305D01*
X257020Y212818D01*
X257049Y212707D01*
X257079Y212646D01*
X257101Y212582D01*
X257125Y212555D01*
X257138Y212527D01*
X257176Y212495D01*
X257218Y212445D01*
X257814Y211958D01*
X257874Y211926D01*
X257929Y211887D01*
X257964Y211878D01*
X257991Y211864D01*
X258041Y211859D01*
X258104Y211844D01*
X258218Y211837D01*
X258863Y211108D01*
X258893Y211085D01*
X258922Y211051D01*
X259675Y210435D01*
X259686Y210321D01*
X259706Y210256D01*
X259717Y210189D01*
X259725Y210176D01*
X259727Y210169D01*
X259737Y210154D01*
X259745Y210129D01*
X259777Y210091D01*
X259811Y210035D01*
X260321Y209458D01*
X260375Y209417D01*
X260423Y209370D01*
X260456Y209356D01*
X260480Y209337D01*
X260529Y209325D01*
X260589Y209299D01*
X260700Y209274D01*
X261220Y208451D01*
X261245Y208424D01*
X261269Y208386D01*
X261913Y207656D01*
X261906Y207542D01*
X261915Y207475D01*
X261916Y207407D01*
X261929Y207374D01*
X261933Y207344D01*
X261959Y207301D01*
X261983Y207240D01*
X262394Y206589D01*
X262441Y206540D01*
X262481Y206485D01*
X262511Y206466D01*
X262532Y206444D01*
X262578Y206424D01*
X262633Y206389D01*
X262739Y206346D01*
X263120Y205451D01*
X263141Y205420D01*
X263158Y205378D01*
X263677Y204555D01*
X263651Y204443D01*
X263650Y204376D01*
X263639Y204309D01*
X263647Y204274D01*
X263646Y204243D01*
X263665Y204197D01*
X263679Y204133D01*
X263980Y203424D01*
X264018Y203368D01*
X264049Y203308D01*
X264076Y203284D01*
X264093Y203259D01*
X264135Y203232D01*
X264184Y203189D01*
X264282Y203129D01*
X264514Y202184D01*
X264530Y202151D01*
X264539Y202107D01*
X264920Y201211D01*
X264877Y201105D01*
X264865Y201038D01*
X264843Y200974D01*
X264846Y200938D01*
X264840Y200908D01*
X264851Y200859D01*
X264855Y200794D01*
X265038Y200046D01*
X265067Y199985D01*
X265087Y199921D01*
X265110Y199893D01*
X265123Y199865D01*
X265160Y199832D01*
X265202Y199781D01*
X265289Y199707D01*
X265366Y198737D01*
X265376Y198701D01*
X265379Y198656D01*
X265396Y198587D01*
X265415Y198546D01*
X265425Y198502D01*
X265457Y198456D01*
X265481Y198406D01*
X265515Y198375D01*
X265541Y198339D01*
X265588Y198309D01*
X265630Y198272D01*
X265673Y198257D01*
X265711Y198233D01*
X265773Y198222D01*
X265819Y198205D01*
X265851Y198207D01*
X265888Y198201D01*
X394512Y198201D01*
X394556Y198210D01*
G37*
%LPC*%
G36*
X325846Y543178D02*
X325846Y543178D01*
X324357Y544667D01*
X324357Y562773D01*
X325987Y564403D01*
X325991Y564409D01*
X325997Y564414D01*
X326046Y564493D01*
X326098Y564570D01*
X326099Y564578D01*
X326103Y564584D01*
X326135Y564762D01*
X326135Y580434D01*
X327141Y582861D01*
X329797Y585517D01*
X329801Y585524D01*
X329807Y585528D01*
X329856Y585607D01*
X329908Y585684D01*
X329909Y585692D01*
X329913Y585699D01*
X329945Y585876D01*
X329945Y637134D01*
X329944Y637142D01*
X329945Y637150D01*
X329924Y637239D01*
X329906Y637331D01*
X329901Y637337D01*
X329899Y637345D01*
X329797Y637493D01*
X291581Y675709D01*
X290575Y678136D01*
X290575Y696348D01*
X290574Y696356D01*
X290575Y696364D01*
X290554Y696454D01*
X290536Y696545D01*
X290531Y696552D01*
X290529Y696559D01*
X290427Y696707D01*
X289919Y697215D01*
X289914Y697218D01*
X289911Y697222D01*
X289831Y697274D01*
X289752Y697326D01*
X289747Y697327D01*
X289742Y697330D01*
X289648Y697346D01*
X289555Y697364D01*
X289550Y697363D01*
X289545Y697364D01*
X289452Y697342D01*
X289359Y697322D01*
X289355Y697319D01*
X289349Y697318D01*
X289201Y697215D01*
X288834Y696848D01*
X275046Y696848D01*
X273557Y698337D01*
X273557Y716443D01*
X275046Y717932D01*
X276860Y717932D01*
X276865Y717933D01*
X276870Y717932D01*
X276963Y717953D01*
X277057Y717971D01*
X277061Y717974D01*
X277066Y717975D01*
X277144Y718031D01*
X277222Y718084D01*
X277225Y718088D01*
X277229Y718091D01*
X277280Y718173D01*
X277332Y718252D01*
X277332Y718257D01*
X277335Y718262D01*
X277367Y718439D01*
X277367Y718782D01*
X277366Y718787D01*
X277367Y718792D01*
X277346Y718885D01*
X277328Y718979D01*
X277325Y718983D01*
X277324Y718988D01*
X277268Y719066D01*
X277215Y719144D01*
X277211Y719147D01*
X277208Y719151D01*
X277126Y719202D01*
X277047Y719254D01*
X277042Y719254D01*
X277037Y719257D01*
X276860Y719289D01*
X275388Y719289D01*
X273899Y720778D01*
X273899Y732882D01*
X275388Y734371D01*
X288492Y734371D01*
X289981Y732882D01*
X289981Y720778D01*
X288492Y719289D01*
X287020Y719289D01*
X287015Y719288D01*
X287010Y719289D01*
X286917Y719268D01*
X286823Y719250D01*
X286819Y719247D01*
X286814Y719246D01*
X286736Y719190D01*
X286658Y719137D01*
X286655Y719133D01*
X286651Y719130D01*
X286600Y719048D01*
X286548Y718969D01*
X286548Y718964D01*
X286545Y718959D01*
X286513Y718782D01*
X286513Y718439D01*
X286514Y718434D01*
X286513Y718429D01*
X286534Y718336D01*
X286552Y718242D01*
X286555Y718238D01*
X286556Y718233D01*
X286612Y718155D01*
X286665Y718077D01*
X286669Y718074D01*
X286672Y718070D01*
X286754Y718019D01*
X286833Y717967D01*
X286838Y717967D01*
X286843Y717964D01*
X287020Y717932D01*
X288834Y717932D01*
X289201Y717565D01*
X289206Y717562D01*
X289209Y717558D01*
X289289Y717507D01*
X289368Y717454D01*
X289373Y717453D01*
X289378Y717450D01*
X289472Y717434D01*
X289565Y717416D01*
X289570Y717417D01*
X289576Y717416D01*
X289668Y717438D01*
X289761Y717458D01*
X289766Y717461D01*
X289771Y717462D01*
X289919Y717565D01*
X290286Y717932D01*
X298171Y717932D01*
X298179Y717933D01*
X298187Y717932D01*
X298277Y717953D01*
X298368Y717971D01*
X298374Y717976D01*
X298382Y717978D01*
X298530Y718080D01*
X299789Y719339D01*
X300600Y719675D01*
X300601Y719675D01*
X300601Y719676D01*
X301825Y720183D01*
X302216Y720345D01*
X314858Y720345D01*
X314863Y720346D01*
X314868Y720345D01*
X314961Y720366D01*
X315055Y720384D01*
X315059Y720387D01*
X315064Y720388D01*
X315142Y720444D01*
X315220Y720497D01*
X315223Y720501D01*
X315227Y720504D01*
X315278Y720586D01*
X315330Y720665D01*
X315330Y720670D01*
X315333Y720675D01*
X315365Y720852D01*
X315365Y723512D01*
X315364Y723517D01*
X315365Y723522D01*
X315344Y723615D01*
X315326Y723709D01*
X315323Y723713D01*
X315322Y723718D01*
X315266Y723796D01*
X315213Y723874D01*
X315209Y723877D01*
X315206Y723881D01*
X315124Y723932D01*
X315045Y723984D01*
X315040Y723984D01*
X315035Y723987D01*
X314858Y724019D01*
X314418Y724019D01*
X312929Y725508D01*
X312929Y742612D01*
X314418Y744101D01*
X314858Y744101D01*
X314863Y744102D01*
X314868Y744101D01*
X314961Y744122D01*
X315055Y744140D01*
X315059Y744143D01*
X315064Y744144D01*
X315142Y744200D01*
X315220Y744253D01*
X315223Y744257D01*
X315227Y744260D01*
X315278Y744342D01*
X315330Y744421D01*
X315330Y744426D01*
X315333Y744431D01*
X315365Y744608D01*
X315365Y744974D01*
X315364Y744982D01*
X315365Y744990D01*
X315344Y745079D01*
X315326Y745171D01*
X315321Y745177D01*
X315319Y745185D01*
X315217Y745333D01*
X314549Y746001D01*
X314542Y746005D01*
X314538Y746011D01*
X314459Y746060D01*
X314382Y746112D01*
X314374Y746113D01*
X314367Y746117D01*
X314190Y746149D01*
X310504Y746149D01*
X306446Y747830D01*
X303340Y750936D01*
X301659Y754994D01*
X301659Y759386D01*
X303340Y763444D01*
X306446Y766550D01*
X307170Y766850D01*
X308394Y767357D01*
X308395Y767357D01*
X309619Y767864D01*
X310504Y768231D01*
X314896Y768231D01*
X318954Y766550D01*
X322060Y763444D01*
X323741Y759386D01*
X323741Y755700D01*
X323742Y755692D01*
X323741Y755684D01*
X323762Y755595D01*
X323780Y755503D01*
X323785Y755497D01*
X323787Y755489D01*
X323889Y755341D01*
X327569Y751661D01*
X328575Y749234D01*
X328575Y744608D01*
X328576Y744603D01*
X328575Y744598D01*
X328596Y744504D01*
X328614Y744411D01*
X328617Y744407D01*
X328618Y744402D01*
X328674Y744324D01*
X328727Y744246D01*
X328731Y744243D01*
X328734Y744239D01*
X328816Y744188D01*
X328895Y744136D01*
X328900Y744136D01*
X328905Y744133D01*
X329082Y744101D01*
X329522Y744101D01*
X331011Y742612D01*
X331011Y725508D01*
X329522Y724019D01*
X329082Y724019D01*
X329077Y724018D01*
X329072Y724019D01*
X328979Y723998D01*
X328885Y723980D01*
X328881Y723977D01*
X328876Y723976D01*
X328798Y723920D01*
X328720Y723867D01*
X328717Y723863D01*
X328713Y723860D01*
X328662Y723778D01*
X328610Y723699D01*
X328610Y723694D01*
X328607Y723689D01*
X328575Y723512D01*
X328575Y721788D01*
X328576Y721783D01*
X328575Y721778D01*
X328596Y721685D01*
X328614Y721591D01*
X328617Y721587D01*
X328618Y721582D01*
X328674Y721504D01*
X328727Y721426D01*
X328731Y721423D01*
X328734Y721419D01*
X328816Y721368D01*
X328895Y721316D01*
X328900Y721316D01*
X328905Y721313D01*
X329082Y721281D01*
X329522Y721281D01*
X331011Y719792D01*
X331011Y707688D01*
X329522Y706199D01*
X316418Y706199D01*
X315630Y706987D01*
X315624Y706991D01*
X315619Y706997D01*
X315540Y707046D01*
X315463Y707098D01*
X315455Y707099D01*
X315449Y707103D01*
X315271Y707135D01*
X306476Y707135D01*
X306468Y707134D01*
X306460Y707135D01*
X306371Y707114D01*
X306279Y707096D01*
X306273Y707091D01*
X306265Y707089D01*
X306117Y706987D01*
X305711Y706581D01*
X305707Y706574D01*
X305701Y706570D01*
X305652Y706491D01*
X305600Y706414D01*
X305599Y706406D01*
X305595Y706399D01*
X305563Y706222D01*
X305563Y698337D01*
X303933Y696707D01*
X303929Y696701D01*
X303923Y696696D01*
X303874Y696617D01*
X303822Y696540D01*
X303821Y696532D01*
X303817Y696526D01*
X303785Y696348D01*
X303785Y682396D01*
X303786Y682388D01*
X303785Y682380D01*
X303806Y682291D01*
X303824Y682199D01*
X303829Y682193D01*
X303831Y682185D01*
X303933Y682037D01*
X342149Y643821D01*
X343155Y641394D01*
X343155Y581616D01*
X342149Y579189D01*
X339493Y576533D01*
X339489Y576526D01*
X339483Y576522D01*
X339434Y576443D01*
X339382Y576366D01*
X339381Y576358D01*
X339377Y576351D01*
X339345Y576174D01*
X339345Y564762D01*
X339346Y564754D01*
X339345Y564746D01*
X339366Y564656D01*
X339384Y564565D01*
X339389Y564558D01*
X339391Y564551D01*
X339493Y564403D01*
X340001Y563895D01*
X340006Y563892D01*
X340009Y563888D01*
X340089Y563837D01*
X340168Y563784D01*
X340173Y563783D01*
X340178Y563780D01*
X340272Y563764D01*
X340365Y563746D01*
X340370Y563747D01*
X340376Y563746D01*
X340468Y563768D01*
X340561Y563788D01*
X340566Y563791D01*
X340571Y563792D01*
X340719Y563895D01*
X341086Y564262D01*
X350408Y564262D01*
X350416Y564263D01*
X350423Y564262D01*
X350513Y564283D01*
X350604Y564301D01*
X350611Y564306D01*
X350619Y564308D01*
X350767Y564410D01*
X355609Y569253D01*
X356048Y569435D01*
X356054Y569438D01*
X356060Y569440D01*
X356137Y569494D01*
X356215Y569546D01*
X356218Y569552D01*
X356223Y569556D01*
X356273Y569636D01*
X356325Y569714D01*
X356326Y569720D01*
X356329Y569726D01*
X356361Y569903D01*
X356361Y577692D01*
X357212Y579746D01*
X363204Y585738D01*
X363261Y585761D01*
X363261Y585762D01*
X364486Y586269D01*
X365258Y586589D01*
X375462Y586589D01*
X376088Y586329D01*
X376097Y586328D01*
X376105Y586323D01*
X376282Y586291D01*
X381402Y586291D01*
X382891Y584802D01*
X382891Y577198D01*
X381402Y575709D01*
X376282Y575709D01*
X376273Y575707D01*
X376264Y575709D01*
X376088Y575671D01*
X376086Y575670D01*
X376085Y575670D01*
X375766Y575537D01*
X375462Y575411D01*
X368895Y575411D01*
X368887Y575410D01*
X368880Y575411D01*
X368790Y575390D01*
X368699Y575372D01*
X368692Y575367D01*
X368684Y575365D01*
X368536Y575263D01*
X367687Y574414D01*
X367686Y574412D01*
X367684Y574410D01*
X367681Y574406D01*
X367677Y574403D01*
X367628Y574324D01*
X367576Y574247D01*
X367576Y574244D01*
X367575Y574242D01*
X367574Y574237D01*
X367571Y574232D01*
X367539Y574055D01*
X367539Y570215D01*
X367540Y570207D01*
X367539Y570200D01*
X367560Y570110D01*
X367578Y570019D01*
X367583Y570012D01*
X367585Y570004D01*
X367687Y569856D01*
X369806Y567737D01*
X369813Y567733D01*
X369817Y567727D01*
X369896Y567678D01*
X369973Y567626D01*
X369981Y567625D01*
X369988Y567621D01*
X370165Y567589D01*
X375462Y567589D01*
X376088Y567329D01*
X376097Y567328D01*
X376105Y567323D01*
X376282Y567291D01*
X381402Y567291D01*
X382891Y565802D01*
X382891Y558198D01*
X381402Y556709D01*
X376282Y556709D01*
X376273Y556707D01*
X376264Y556709D01*
X376088Y556671D01*
X376086Y556670D01*
X376085Y556670D01*
X375462Y556411D01*
X366528Y556411D01*
X364474Y557262D01*
X362959Y558778D01*
X362952Y558782D01*
X362948Y558788D01*
X362869Y558837D01*
X362792Y558889D01*
X362784Y558890D01*
X362777Y558894D01*
X362600Y558926D01*
X361300Y558926D01*
X361292Y558925D01*
X361285Y558926D01*
X361195Y558905D01*
X361104Y558887D01*
X361097Y558882D01*
X361089Y558880D01*
X360941Y558778D01*
X356511Y554348D01*
X356507Y554341D01*
X356501Y554337D01*
X356452Y554258D01*
X356400Y554181D01*
X356399Y554173D01*
X356395Y554166D01*
X356363Y553989D01*
X356363Y544667D01*
X354874Y543178D01*
X341086Y543178D01*
X340719Y543545D01*
X340714Y543548D01*
X340711Y543552D01*
X340631Y543604D01*
X340552Y543656D01*
X340547Y543657D01*
X340542Y543660D01*
X340448Y543676D01*
X340355Y543694D01*
X340350Y543693D01*
X340345Y543694D01*
X340252Y543672D01*
X340159Y543652D01*
X340155Y543649D01*
X340149Y543648D01*
X340001Y543545D01*
X339634Y543178D01*
X325846Y543178D01*
G37*
%LPD*%
%LPC*%
G36*
X228487Y623883D02*
X228487Y623883D01*
X227942Y625916D01*
X231076Y631344D01*
X231090Y631384D01*
X231112Y631420D01*
X231124Y631486D01*
X231140Y631534D01*
X231138Y631564D01*
X231144Y631598D01*
X231144Y633678D01*
X231130Y633748D01*
X231124Y633819D01*
X231110Y633845D01*
X231104Y633874D01*
X231064Y633933D01*
X231031Y633997D01*
X231008Y634016D01*
X230992Y634040D01*
X230932Y634079D01*
X230877Y634125D01*
X230849Y634133D01*
X230824Y634149D01*
X230753Y634162D01*
X230685Y634183D01*
X230653Y634180D01*
X230627Y634185D01*
X230576Y634174D01*
X230506Y634168D01*
X228616Y633662D01*
X213803Y642214D01*
X213258Y644247D01*
X213419Y644526D01*
X213422Y644533D01*
X213427Y644540D01*
X213453Y644628D01*
X213483Y644716D01*
X213483Y644724D01*
X213485Y644732D01*
X213475Y644823D01*
X213468Y644916D01*
X213465Y644923D01*
X213464Y644931D01*
X213420Y645012D01*
X213378Y645094D01*
X213371Y645099D01*
X213367Y645107D01*
X213229Y645221D01*
X210854Y646557D01*
X210849Y646558D01*
X210846Y646562D01*
X210754Y646589D01*
X210663Y646619D01*
X210658Y646618D01*
X210654Y646620D01*
X210474Y646605D01*
X209566Y646362D01*
X194753Y654914D01*
X194208Y656947D01*
X201761Y670028D01*
X203794Y670573D01*
X218430Y662122D01*
X218466Y662111D01*
X218497Y662090D01*
X218560Y662079D01*
X218620Y662058D01*
X218658Y662061D01*
X218694Y662055D01*
X218757Y662068D01*
X218820Y662073D01*
X218853Y662090D01*
X218890Y662098D01*
X218942Y662135D01*
X218999Y662164D01*
X219023Y662193D01*
X219053Y662214D01*
X219087Y662268D01*
X219128Y662317D01*
X219140Y662353D01*
X219159Y662384D01*
X219172Y662457D01*
X219188Y662508D01*
X219186Y662533D01*
X219191Y662562D01*
X219191Y665524D01*
X220197Y667951D01*
X222055Y669809D01*
X222431Y669965D01*
X223655Y670472D01*
X224482Y670815D01*
X227110Y670815D01*
X229537Y669809D01*
X231395Y667951D01*
X232401Y665524D01*
X232401Y652648D01*
X232415Y652575D01*
X232422Y652502D01*
X232435Y652478D01*
X232440Y652452D01*
X232482Y652390D01*
X232517Y652325D01*
X232539Y652306D01*
X232553Y652286D01*
X232598Y652257D01*
X232654Y652209D01*
X237657Y649321D01*
X238202Y647287D01*
X237878Y646727D01*
X237846Y646631D01*
X237814Y646537D01*
X237824Y646405D01*
X237829Y646337D01*
X237876Y646245D01*
X237920Y646158D01*
X238055Y646039D01*
X238520Y645758D01*
X238553Y645747D01*
X238588Y645724D01*
X239306Y645427D01*
X239623Y645109D01*
X239667Y645080D01*
X239720Y645034D01*
X240104Y644802D01*
X240565Y644176D01*
X240590Y644153D01*
X240614Y644118D01*
X243348Y641384D01*
X244354Y638957D01*
X244354Y633584D01*
X244368Y633512D01*
X244375Y633438D01*
X244388Y633414D01*
X244393Y633388D01*
X244435Y633327D01*
X244470Y633261D01*
X244492Y633243D01*
X244506Y633222D01*
X244551Y633193D01*
X244607Y633145D01*
X247011Y631757D01*
X247555Y629724D01*
X241003Y618375D01*
X238970Y617830D01*
X228487Y623883D01*
G37*
%LPD*%
%LPC*%
G36*
X410507Y629805D02*
X410507Y629805D01*
X403955Y641154D01*
X404499Y643187D01*
X414982Y649240D01*
X416651Y648793D01*
X416661Y648792D01*
X416670Y648788D01*
X416760Y648786D01*
X416851Y648780D01*
X416860Y648783D01*
X416870Y648783D01*
X417039Y648846D01*
X420696Y650999D01*
X420736Y651035D01*
X420797Y651077D01*
X421086Y651366D01*
X421841Y651679D01*
X421868Y651697D01*
X421904Y651711D01*
X422608Y652125D01*
X423013Y652182D01*
X423063Y652200D01*
X423136Y652216D01*
X423514Y652372D01*
X424082Y652372D01*
X424124Y652380D01*
X424166Y652379D01*
X424229Y652402D01*
X424279Y652412D01*
X424303Y652428D01*
X424336Y652440D01*
X427746Y654408D01*
X427801Y654457D01*
X427861Y654500D01*
X427876Y654523D01*
X427896Y654541D01*
X427928Y654608D01*
X427967Y654670D01*
X427972Y654699D01*
X427983Y654721D01*
X427986Y654775D01*
X427999Y654848D01*
X427999Y666794D01*
X429005Y669221D01*
X430863Y671079D01*
X431846Y671487D01*
X431847Y671487D01*
X433071Y671994D01*
X433290Y672085D01*
X435918Y672085D01*
X438345Y671079D01*
X440203Y669221D01*
X441209Y666794D01*
X441209Y663295D01*
X441216Y663258D01*
X441214Y663221D01*
X441236Y663161D01*
X441248Y663098D01*
X441269Y663068D01*
X441282Y663032D01*
X441325Y662985D01*
X441361Y662933D01*
X441392Y662912D01*
X441417Y662885D01*
X441476Y662858D01*
X441529Y662823D01*
X441566Y662817D01*
X441600Y662801D01*
X441663Y662799D01*
X441726Y662788D01*
X441763Y662796D01*
X441800Y662795D01*
X441870Y662820D01*
X441922Y662831D01*
X441942Y662846D01*
X441970Y662856D01*
X455336Y670573D01*
X457369Y670028D01*
X464922Y656947D01*
X464377Y654914D01*
X449564Y646362D01*
X447531Y646906D01*
X447353Y647213D01*
X447349Y647219D01*
X447346Y647226D01*
X447282Y647294D01*
X447221Y647364D01*
X447214Y647367D01*
X447209Y647372D01*
X447124Y647410D01*
X447040Y647451D01*
X447033Y647451D01*
X447026Y647454D01*
X446933Y647457D01*
X446840Y647461D01*
X446833Y647459D01*
X446826Y647459D01*
X446657Y647397D01*
X443251Y645393D01*
X443249Y645391D01*
X443246Y645390D01*
X443173Y645323D01*
X443102Y645260D01*
X443100Y645257D01*
X443098Y645255D01*
X443057Y645166D01*
X443016Y645078D01*
X443016Y645075D01*
X443014Y645072D01*
X443011Y644975D01*
X443007Y644878D01*
X443008Y644875D01*
X443008Y644872D01*
X443069Y644702D01*
X443332Y644247D01*
X442787Y642214D01*
X427974Y633662D01*
X425941Y634206D01*
X424358Y636948D01*
X424356Y636950D01*
X424355Y636952D01*
X424289Y637025D01*
X424225Y637098D01*
X424223Y637100D01*
X424221Y637101D01*
X424133Y637143D01*
X424045Y637186D01*
X424042Y637186D01*
X424040Y637187D01*
X423943Y637191D01*
X423845Y637196D01*
X423842Y637195D01*
X423839Y637195D01*
X423748Y637161D01*
X423656Y637128D01*
X423654Y637127D01*
X423652Y637126D01*
X423580Y637059D01*
X423508Y636993D01*
X423507Y636990D01*
X423505Y636989D01*
X423428Y636826D01*
X423023Y635313D01*
X412540Y629260D01*
X410507Y629805D01*
G37*
%LPD*%
%LPC*%
G36*
X419730Y579420D02*
X419730Y579420D01*
X413677Y589903D01*
X414149Y591662D01*
X414149Y591670D01*
X414152Y591677D01*
X414155Y591769D01*
X414161Y591862D01*
X414159Y591869D01*
X414159Y591877D01*
X414119Y591988D01*
X414113Y592015D01*
X414106Y592025D01*
X414098Y592047D01*
X409731Y599610D01*
X409726Y599616D01*
X409723Y599623D01*
X409660Y599691D01*
X409599Y599760D01*
X409592Y599764D01*
X409586Y599769D01*
X409423Y599846D01*
X407665Y600317D01*
X401612Y610800D01*
X402050Y612434D01*
X402051Y612445D01*
X402055Y612455D01*
X402057Y612544D01*
X402063Y612634D01*
X402059Y612644D01*
X402059Y612655D01*
X401999Y612816D01*
X401997Y612823D01*
X401996Y612824D01*
X397292Y620752D01*
X397289Y620755D01*
X397287Y620760D01*
X397221Y620830D01*
X397158Y620901D01*
X397153Y620903D01*
X397150Y620906D01*
X396987Y620983D01*
X395785Y621305D01*
X389232Y632654D01*
X389260Y632759D01*
X389262Y632791D01*
X389273Y632822D01*
X389269Y632884D01*
X389273Y632906D01*
X389270Y632919D01*
X389273Y632959D01*
X389262Y632990D01*
X389260Y633022D01*
X389236Y633073D01*
X389229Y633102D01*
X389217Y633120D01*
X389207Y633148D01*
X389193Y633164D01*
X389183Y633185D01*
X386551Y636870D01*
X385958Y639430D01*
X386390Y642022D01*
X387781Y644251D01*
X389919Y645778D01*
X392479Y646371D01*
X395071Y645939D01*
X397300Y644548D01*
X399857Y640967D01*
X399919Y640910D01*
X399976Y640849D01*
X399992Y640841D01*
X400004Y640830D01*
X400057Y640811D01*
X400139Y640772D01*
X402293Y640195D01*
X408845Y628846D01*
X408591Y627895D01*
X408590Y627884D01*
X408586Y627874D01*
X408584Y627785D01*
X408578Y627695D01*
X408582Y627685D01*
X408582Y627674D01*
X408642Y627513D01*
X408644Y627506D01*
X408645Y627505D01*
X413349Y619577D01*
X413352Y619574D01*
X413354Y619569D01*
X413419Y619499D01*
X413483Y619429D01*
X413488Y619427D01*
X413491Y619423D01*
X413654Y619346D01*
X415539Y618841D01*
X421592Y608358D01*
X421120Y606599D01*
X421120Y606592D01*
X421117Y606584D01*
X421114Y606492D01*
X421108Y606399D01*
X421110Y606392D01*
X421110Y606384D01*
X421171Y606215D01*
X425538Y598652D01*
X425543Y598646D01*
X425546Y598638D01*
X425594Y598587D01*
X425626Y598541D01*
X425646Y598529D01*
X425670Y598501D01*
X425677Y598498D01*
X425683Y598492D01*
X425776Y598448D01*
X425797Y598435D01*
X425807Y598433D01*
X425846Y598415D01*
X427604Y597944D01*
X433657Y587461D01*
X433112Y585428D01*
X421763Y578875D01*
X419730Y579420D01*
G37*
%LPD*%
%LPC*%
G36*
X390568Y533519D02*
X390568Y533519D01*
X389079Y535008D01*
X389079Y552112D01*
X390568Y553601D01*
X394254Y553601D01*
X394259Y553602D01*
X394264Y553601D01*
X394357Y553622D01*
X394451Y553640D01*
X394455Y553643D01*
X394460Y553644D01*
X394538Y553700D01*
X394616Y553753D01*
X394619Y553757D01*
X394623Y553760D01*
X394674Y553842D01*
X394726Y553921D01*
X394726Y553926D01*
X394729Y553931D01*
X394761Y554108D01*
X394761Y556202D01*
X394760Y556207D01*
X394761Y556212D01*
X394740Y556305D01*
X394722Y556399D01*
X394719Y556403D01*
X394718Y556408D01*
X394662Y556486D01*
X394609Y556564D01*
X394605Y556567D01*
X394602Y556571D01*
X394520Y556622D01*
X394441Y556674D01*
X394436Y556674D01*
X394431Y556677D01*
X394254Y556709D01*
X393298Y556709D01*
X391809Y558198D01*
X391809Y565802D01*
X393298Y567291D01*
X398418Y567291D01*
X398427Y567293D01*
X398436Y567291D01*
X398612Y567329D01*
X398614Y567330D01*
X398615Y567330D01*
X399025Y567500D01*
X399025Y567501D01*
X399238Y567589D01*
X401462Y567589D01*
X402088Y567329D01*
X402097Y567328D01*
X402105Y567323D01*
X402282Y567291D01*
X407402Y567291D01*
X408226Y566467D01*
X408232Y566463D01*
X408237Y566457D01*
X408316Y566408D01*
X408393Y566356D01*
X408401Y566355D01*
X408407Y566351D01*
X408585Y566319D01*
X412322Y566319D01*
X414376Y565468D01*
X418814Y561029D01*
X418821Y561025D01*
X418825Y561019D01*
X418904Y560970D01*
X418981Y560918D01*
X418989Y560917D01*
X418996Y560913D01*
X419173Y560881D01*
X425152Y560881D01*
X426702Y559331D01*
X426740Y559278D01*
X426793Y559200D01*
X426797Y559197D01*
X426800Y559193D01*
X426882Y559142D01*
X426961Y559090D01*
X426966Y559090D01*
X426971Y559087D01*
X427148Y559055D01*
X434384Y559055D01*
X436811Y558049D01*
X438669Y556191D01*
X439675Y553764D01*
X439675Y551136D01*
X438669Y548709D01*
X436811Y546851D01*
X436264Y546624D01*
X435039Y546117D01*
X434384Y545845D01*
X426409Y545845D01*
X426401Y545844D01*
X426393Y545845D01*
X426303Y545824D01*
X426212Y545806D01*
X426205Y545801D01*
X426198Y545799D01*
X426050Y545697D01*
X425152Y544799D01*
X413048Y544799D01*
X411559Y546288D01*
X411559Y552267D01*
X411558Y552275D01*
X411559Y552282D01*
X411538Y552372D01*
X411520Y552463D01*
X411515Y552470D01*
X411513Y552478D01*
X411411Y552626D01*
X409044Y554993D01*
X409037Y554997D01*
X409033Y555003D01*
X408954Y555052D01*
X408877Y555104D01*
X408869Y555105D01*
X408862Y555109D01*
X408685Y555141D01*
X406446Y555141D01*
X406441Y555140D01*
X406436Y555141D01*
X406343Y555120D01*
X406249Y555102D01*
X406245Y555099D01*
X406240Y555098D01*
X406162Y555042D01*
X406084Y554989D01*
X406081Y554985D01*
X406077Y554982D01*
X406026Y554900D01*
X405974Y554821D01*
X405974Y554816D01*
X405971Y554811D01*
X405939Y554634D01*
X405939Y553545D01*
X405940Y553537D01*
X405939Y553529D01*
X405960Y553439D01*
X405978Y553348D01*
X405983Y553341D01*
X405985Y553334D01*
X406087Y553186D01*
X407161Y552112D01*
X407161Y535008D01*
X405672Y533519D01*
X390568Y533519D01*
G37*
%LPD*%
%LPC*%
G36*
X218884Y574226D02*
X218884Y574226D01*
X218339Y576259D01*
X224392Y586742D01*
X226150Y587213D01*
X226157Y587217D01*
X226165Y587217D01*
X226247Y587261D01*
X226330Y587302D01*
X226335Y587308D01*
X226342Y587312D01*
X226458Y587449D01*
X228398Y590810D01*
X228412Y590850D01*
X228434Y590886D01*
X228446Y590952D01*
X228462Y590999D01*
X228460Y591029D01*
X228466Y591063D01*
X228466Y594871D01*
X229472Y597298D01*
X231825Y599652D01*
X231855Y599697D01*
X231906Y599757D01*
X237092Y608739D01*
X238845Y609209D01*
X238852Y609212D01*
X238860Y609213D01*
X238941Y609257D01*
X239024Y609298D01*
X239030Y609304D01*
X239037Y609308D01*
X239153Y609445D01*
X242904Y615950D01*
X242906Y615957D01*
X242911Y615963D01*
X242938Y616052D01*
X242968Y616140D01*
X242967Y616148D01*
X242969Y616155D01*
X242954Y616335D01*
X242665Y617416D01*
X249217Y628765D01*
X251250Y629310D01*
X261733Y623257D01*
X262278Y621224D01*
X255726Y609875D01*
X254655Y609588D01*
X254648Y609585D01*
X254640Y609584D01*
X254559Y609540D01*
X254476Y609499D01*
X254471Y609493D01*
X254464Y609489D01*
X254347Y609352D01*
X250596Y602847D01*
X250594Y602840D01*
X250589Y602834D01*
X250562Y602745D01*
X250533Y602657D01*
X250533Y602649D01*
X250531Y602642D01*
X250546Y602463D01*
X251019Y600698D01*
X244966Y590215D01*
X243208Y589744D01*
X243201Y589740D01*
X243193Y589740D01*
X243111Y589696D01*
X243028Y589655D01*
X243023Y589649D01*
X243016Y589645D01*
X242900Y589508D01*
X241744Y587505D01*
X241730Y587465D01*
X241708Y587429D01*
X241696Y587363D01*
X241680Y587315D01*
X241682Y587286D01*
X241676Y587252D01*
X241676Y587163D01*
X240670Y584736D01*
X239474Y583539D01*
X239443Y583493D01*
X239393Y583434D01*
X237898Y580845D01*
X237896Y580837D01*
X237891Y580831D01*
X237864Y580743D01*
X237834Y580655D01*
X237835Y580647D01*
X237832Y580639D01*
X237847Y580460D01*
X238319Y578701D01*
X232266Y568218D01*
X230233Y567673D01*
X218884Y574226D01*
G37*
%LPD*%
G36*
X417569Y475645D02*
X417569Y475645D01*
X417616Y475643D01*
X420654Y476008D01*
X420686Y476019D01*
X420732Y476024D01*
X423672Y476872D01*
X423702Y476888D01*
X423748Y476900D01*
X426514Y478209D01*
X426536Y478226D01*
X426563Y478236D01*
X426615Y478285D01*
X426673Y478328D01*
X426687Y478353D01*
X426708Y478372D01*
X426737Y478438D01*
X426773Y478500D01*
X426776Y478528D01*
X426788Y478554D01*
X426789Y478626D01*
X426798Y478697D01*
X426790Y478724D01*
X426791Y478753D01*
X426755Y478848D01*
X426744Y478888D01*
X426737Y478897D01*
X426733Y478909D01*
X417376Y495160D01*
X426733Y511411D01*
X426742Y511438D01*
X426758Y511462D01*
X426773Y511532D01*
X426796Y511600D01*
X426793Y511628D01*
X426799Y511656D01*
X426786Y511727D01*
X426780Y511798D01*
X426767Y511823D01*
X426761Y511851D01*
X426721Y511911D01*
X426688Y511974D01*
X426666Y511992D01*
X426650Y512016D01*
X426567Y512074D01*
X426535Y512101D01*
X426524Y512104D01*
X426514Y512111D01*
X423748Y513420D01*
X423715Y513428D01*
X423672Y513448D01*
X420732Y514296D01*
X420698Y514299D01*
X420654Y514312D01*
X417616Y514677D01*
X417582Y514674D01*
X417535Y514680D01*
X414478Y514553D01*
X414445Y514545D01*
X414398Y514544D01*
X411401Y513928D01*
X411370Y513915D01*
X411324Y513906D01*
X408464Y512817D01*
X408436Y512799D01*
X408392Y512783D01*
X405744Y511249D01*
X405718Y511227D01*
X405678Y511204D01*
X403310Y509266D01*
X403288Y509239D01*
X403252Y509210D01*
X401225Y506917D01*
X401209Y506888D01*
X401177Y506853D01*
X399545Y504265D01*
X399533Y504233D01*
X399508Y504194D01*
X398312Y501377D01*
X398305Y501344D01*
X398302Y501337D01*
X398298Y501331D01*
X398297Y501325D01*
X398286Y501301D01*
X397558Y498329D01*
X397556Y498295D01*
X397545Y498250D01*
X397302Y495200D01*
X397306Y495171D01*
X397301Y495143D01*
X397303Y495133D01*
X397302Y495120D01*
X397545Y492070D01*
X397554Y492038D01*
X397558Y491991D01*
X398286Y489019D01*
X398301Y488988D01*
X398312Y488943D01*
X399508Y486126D01*
X399527Y486098D01*
X399545Y486055D01*
X401177Y483467D01*
X401201Y483443D01*
X401225Y483403D01*
X403252Y481110D01*
X403279Y481090D01*
X403310Y481054D01*
X405678Y479116D01*
X405708Y479100D01*
X405744Y479071D01*
X408392Y477538D01*
X408424Y477527D01*
X408464Y477503D01*
X411324Y476415D01*
X411357Y476409D01*
X411401Y476392D01*
X414398Y475776D01*
X414432Y475776D01*
X414478Y475767D01*
X417535Y475640D01*
X417569Y475645D01*
G37*
G36*
X245922Y475767D02*
X245922Y475767D01*
X245955Y475775D01*
X246002Y475776D01*
X248999Y476392D01*
X249030Y476405D01*
X249076Y476415D01*
X251936Y477503D01*
X251965Y477521D01*
X252008Y477538D01*
X254656Y479071D01*
X254682Y479093D01*
X254723Y479116D01*
X257090Y481054D01*
X257112Y481081D01*
X257148Y481110D01*
X259175Y483403D01*
X259192Y483432D01*
X259223Y483467D01*
X260855Y486055D01*
X260867Y486087D01*
X260892Y486126D01*
X262088Y488943D01*
X262095Y488976D01*
X262114Y489019D01*
X262842Y491991D01*
X262844Y492025D01*
X262855Y492070D01*
X263098Y495120D01*
X263094Y495149D01*
X263099Y495177D01*
X263097Y495187D01*
X263098Y495200D01*
X262855Y498250D01*
X262846Y498282D01*
X262842Y498329D01*
X262114Y501301D01*
X262099Y501332D01*
X262088Y501377D01*
X260892Y504194D01*
X260873Y504222D01*
X260855Y504265D01*
X259223Y506853D01*
X259199Y506877D01*
X259175Y506917D01*
X257148Y509210D01*
X257121Y509230D01*
X257090Y509266D01*
X254723Y511204D01*
X254692Y511220D01*
X254656Y511249D01*
X252008Y512783D01*
X251976Y512793D01*
X251936Y512817D01*
X249076Y513906D01*
X249043Y513911D01*
X248999Y513928D01*
X246002Y514544D01*
X245968Y514544D01*
X245922Y514553D01*
X242865Y514680D01*
X242831Y514675D01*
X242784Y514677D01*
X239746Y514312D01*
X239714Y514301D01*
X239668Y514296D01*
X236728Y513448D01*
X236698Y513432D01*
X236653Y513420D01*
X233887Y512111D01*
X233864Y512094D01*
X233837Y512084D01*
X233785Y512035D01*
X233727Y511992D01*
X233713Y511967D01*
X233692Y511948D01*
X233663Y511882D01*
X233627Y511820D01*
X233624Y511792D01*
X233612Y511766D01*
X233611Y511694D01*
X233602Y511623D01*
X233610Y511596D01*
X233610Y511567D01*
X233645Y511472D01*
X233656Y511432D01*
X233663Y511423D01*
X233667Y511411D01*
X243024Y495160D01*
X233667Y478909D01*
X233658Y478882D01*
X233642Y478858D01*
X233627Y478788D01*
X233604Y478720D01*
X233607Y478692D01*
X233601Y478664D01*
X233615Y478594D01*
X233620Y478522D01*
X233633Y478497D01*
X233639Y478469D01*
X233679Y478409D01*
X233712Y478346D01*
X233734Y478328D01*
X233750Y478304D01*
X233833Y478246D01*
X233865Y478219D01*
X233876Y478216D01*
X233887Y478209D01*
X236653Y476900D01*
X236686Y476892D01*
X236728Y476872D01*
X239668Y476024D01*
X239702Y476021D01*
X239746Y476008D01*
X242784Y475643D01*
X242818Y475646D01*
X242865Y475640D01*
X245922Y475767D01*
G37*
%LPC*%
G36*
X399238Y575411D02*
X399238Y575411D01*
X398612Y575671D01*
X398603Y575672D01*
X398595Y575677D01*
X398418Y575709D01*
X393298Y575709D01*
X391809Y577198D01*
X391809Y584802D01*
X393298Y586291D01*
X394254Y586291D01*
X394259Y586292D01*
X394264Y586291D01*
X394357Y586312D01*
X394451Y586330D01*
X394455Y586333D01*
X394460Y586334D01*
X394538Y586390D01*
X394616Y586443D01*
X394619Y586447D01*
X394623Y586450D01*
X394674Y586532D01*
X394726Y586611D01*
X394726Y586616D01*
X394729Y586621D01*
X394761Y586798D01*
X394761Y588852D01*
X394760Y588857D01*
X394761Y588862D01*
X394740Y588955D01*
X394722Y589049D01*
X394719Y589053D01*
X394718Y589058D01*
X394662Y589136D01*
X394609Y589214D01*
X394605Y589217D01*
X394602Y589221D01*
X394520Y589272D01*
X394441Y589324D01*
X394436Y589324D01*
X394431Y589327D01*
X394254Y589359D01*
X389298Y589359D01*
X387809Y590848D01*
X387809Y602952D01*
X389298Y604441D01*
X402402Y604441D01*
X403891Y602952D01*
X403891Y596973D01*
X403892Y596965D01*
X403891Y596958D01*
X403912Y596868D01*
X403930Y596777D01*
X403935Y596770D01*
X403937Y596762D01*
X404039Y596614D01*
X405088Y595566D01*
X405939Y593512D01*
X405939Y586798D01*
X405940Y586793D01*
X405939Y586788D01*
X405960Y586695D01*
X405978Y586601D01*
X405981Y586597D01*
X405982Y586592D01*
X406038Y586514D01*
X406091Y586436D01*
X406095Y586433D01*
X406098Y586429D01*
X406180Y586378D01*
X406259Y586326D01*
X406264Y586326D01*
X406269Y586323D01*
X406446Y586291D01*
X407402Y586291D01*
X408891Y584802D01*
X408891Y577198D01*
X407402Y575709D01*
X402282Y575709D01*
X402273Y575707D01*
X402264Y575709D01*
X402088Y575671D01*
X402086Y575670D01*
X402085Y575670D01*
X401766Y575537D01*
X401462Y575411D01*
X399238Y575411D01*
G37*
%LPD*%
G36*
X493927Y328171D02*
X493927Y328171D01*
X493998Y328171D01*
X494025Y328182D01*
X494054Y328185D01*
X494116Y328220D01*
X494181Y328248D01*
X494202Y328268D01*
X494227Y328283D01*
X494290Y328360D01*
X494320Y328390D01*
X494324Y328400D01*
X494333Y328411D01*
X503833Y344911D01*
X503843Y344943D01*
X503852Y344956D01*
X503856Y344980D01*
X503857Y344984D01*
X503888Y345054D01*
X503888Y345078D01*
X503896Y345100D01*
X503890Y345176D01*
X503891Y345253D01*
X503881Y345277D01*
X503880Y345298D01*
X503859Y345337D01*
X503833Y345409D01*
X494333Y361909D01*
X494314Y361931D01*
X494301Y361957D01*
X494248Y362005D01*
X494201Y362058D01*
X494175Y362071D01*
X494154Y362090D01*
X494086Y362113D01*
X494022Y362144D01*
X493993Y362146D01*
X493966Y362155D01*
X493894Y362150D01*
X493823Y362153D01*
X493796Y362143D01*
X493767Y362141D01*
X493677Y362099D01*
X493637Y362084D01*
X493629Y362077D01*
X493616Y362071D01*
X491093Y360329D01*
X491069Y360305D01*
X491031Y360278D01*
X488819Y358154D01*
X488800Y358126D01*
X488766Y358094D01*
X486924Y355643D01*
X486910Y355612D01*
X486881Y355575D01*
X485456Y352860D01*
X485447Y352829D01*
X485431Y352804D01*
X485430Y352796D01*
X485425Y352786D01*
X484454Y349878D01*
X484450Y349844D01*
X484435Y349800D01*
X483943Y346773D01*
X483944Y346739D01*
X483936Y346693D01*
X483936Y343627D01*
X483937Y343623D01*
X483937Y343621D01*
X483943Y343594D01*
X483943Y343547D01*
X484435Y340520D01*
X484447Y340489D01*
X484454Y340442D01*
X485425Y337534D01*
X485442Y337505D01*
X485456Y337460D01*
X486881Y334745D01*
X486903Y334719D01*
X486924Y334677D01*
X488766Y332226D01*
X488791Y332203D01*
X488819Y332166D01*
X491031Y330042D01*
X491059Y330024D01*
X491093Y329991D01*
X493616Y328249D01*
X493643Y328238D01*
X493665Y328219D01*
X493734Y328199D01*
X493799Y328171D01*
X493828Y328171D01*
X493856Y328163D01*
X493927Y328171D01*
G37*
G36*
X166506Y328170D02*
X166506Y328170D01*
X166577Y328167D01*
X166604Y328177D01*
X166633Y328179D01*
X166723Y328221D01*
X166763Y328236D01*
X166771Y328243D01*
X166784Y328249D01*
X169307Y329991D01*
X169331Y330015D01*
X169369Y330042D01*
X171581Y332166D01*
X171600Y332194D01*
X171634Y332226D01*
X173476Y334677D01*
X173490Y334708D01*
X173519Y334745D01*
X174944Y337460D01*
X174953Y337493D01*
X174975Y337534D01*
X175946Y340442D01*
X175950Y340476D01*
X175965Y340520D01*
X176457Y343547D01*
X176456Y343581D01*
X176464Y343627D01*
X176464Y346693D01*
X176457Y346726D01*
X176457Y346773D01*
X175965Y349800D01*
X175953Y349831D01*
X175946Y349878D01*
X174975Y352786D01*
X174962Y352809D01*
X174956Y352834D01*
X174949Y352843D01*
X174944Y352860D01*
X173519Y355575D01*
X173497Y355601D01*
X173476Y355643D01*
X171634Y358094D01*
X171609Y358117D01*
X171581Y358154D01*
X169369Y360278D01*
X169341Y360296D01*
X169307Y360329D01*
X166784Y362071D01*
X166757Y362082D01*
X166735Y362101D01*
X166666Y362121D01*
X166601Y362149D01*
X166572Y362149D01*
X166544Y362157D01*
X166473Y362149D01*
X166402Y362150D01*
X166375Y362138D01*
X166346Y362135D01*
X166284Y362100D01*
X166219Y362072D01*
X166198Y362052D01*
X166173Y362037D01*
X166110Y361960D01*
X166080Y361930D01*
X166076Y361920D01*
X166067Y361909D01*
X156567Y345409D01*
X156543Y345336D01*
X156512Y345266D01*
X156512Y345242D01*
X156504Y345220D01*
X156511Y345144D01*
X156510Y345067D01*
X156519Y345043D01*
X156520Y345022D01*
X156541Y344983D01*
X156560Y344931D01*
X156561Y344925D01*
X156563Y344923D01*
X156567Y344911D01*
X166067Y328411D01*
X166086Y328389D01*
X166099Y328363D01*
X166152Y328315D01*
X166199Y328262D01*
X166225Y328249D01*
X166247Y328230D01*
X166314Y328207D01*
X166378Y328176D01*
X166407Y328175D01*
X166434Y328165D01*
X166506Y328170D01*
G37*
G36*
X416876Y194676D02*
X416876Y194676D01*
X416954Y194685D01*
X416973Y194696D01*
X416995Y194700D01*
X417059Y194744D01*
X417127Y194783D01*
X417143Y194802D01*
X417159Y194813D01*
X417183Y194851D01*
X417233Y194911D01*
X426733Y211411D01*
X426742Y211438D01*
X426758Y211462D01*
X426773Y211532D01*
X426796Y211600D01*
X426793Y211628D01*
X426799Y211656D01*
X426786Y211727D01*
X426780Y211798D01*
X426767Y211823D01*
X426761Y211851D01*
X426721Y211911D01*
X426688Y211974D01*
X426666Y211992D01*
X426650Y212016D01*
X426567Y212074D01*
X426535Y212101D01*
X426524Y212104D01*
X426514Y212111D01*
X423748Y213420D01*
X423715Y213428D01*
X423672Y213448D01*
X420732Y214296D01*
X420698Y214299D01*
X420654Y214312D01*
X417616Y214677D01*
X417582Y214674D01*
X417535Y214680D01*
X414478Y214553D01*
X414445Y214545D01*
X414398Y214544D01*
X411401Y213928D01*
X411370Y213915D01*
X411324Y213906D01*
X408464Y212817D01*
X408436Y212799D01*
X408392Y212783D01*
X405744Y211249D01*
X405718Y211227D01*
X405678Y211204D01*
X403310Y209266D01*
X403288Y209239D01*
X403252Y209210D01*
X401225Y206917D01*
X401209Y206888D01*
X401177Y206853D01*
X399545Y204265D01*
X399533Y204233D01*
X399508Y204194D01*
X398312Y201377D01*
X398305Y201344D01*
X398302Y201337D01*
X398298Y201331D01*
X398297Y201325D01*
X398286Y201301D01*
X397558Y198329D01*
X397556Y198295D01*
X397545Y198250D01*
X397302Y195200D01*
X397306Y195171D01*
X397301Y195143D01*
X397318Y195074D01*
X397326Y195002D01*
X397341Y194978D01*
X397347Y194950D01*
X397390Y194892D01*
X397426Y194830D01*
X397448Y194813D01*
X397465Y194790D01*
X397527Y194753D01*
X397584Y194710D01*
X397612Y194703D01*
X397636Y194688D01*
X397736Y194672D01*
X397777Y194661D01*
X397787Y194663D01*
X397800Y194661D01*
X416800Y194661D01*
X416876Y194676D01*
G37*
G36*
X262628Y194666D02*
X262628Y194666D01*
X262656Y194664D01*
X262724Y194686D01*
X262795Y194700D01*
X262818Y194716D01*
X262845Y194725D01*
X262900Y194772D01*
X262959Y194813D01*
X262974Y194837D01*
X262996Y194855D01*
X263027Y194920D01*
X263066Y194980D01*
X263071Y195008D01*
X263083Y195034D01*
X263092Y195135D01*
X263099Y195177D01*
X263097Y195187D01*
X263098Y195200D01*
X262855Y198250D01*
X262846Y198282D01*
X262842Y198329D01*
X262114Y201301D01*
X262099Y201332D01*
X262088Y201377D01*
X260892Y204194D01*
X260873Y204222D01*
X260855Y204265D01*
X259223Y206853D01*
X259199Y206877D01*
X259175Y206917D01*
X257148Y209210D01*
X257121Y209230D01*
X257090Y209266D01*
X254723Y211204D01*
X254692Y211220D01*
X254656Y211249D01*
X252008Y212783D01*
X251976Y212793D01*
X251936Y212817D01*
X249076Y213906D01*
X249043Y213911D01*
X248999Y213928D01*
X246002Y214544D01*
X245968Y214544D01*
X245922Y214553D01*
X242865Y214680D01*
X242831Y214675D01*
X242784Y214677D01*
X239746Y214312D01*
X239714Y214301D01*
X239668Y214296D01*
X236728Y213448D01*
X236698Y213432D01*
X236653Y213420D01*
X233887Y212111D01*
X233864Y212094D01*
X233837Y212084D01*
X233785Y212035D01*
X233727Y211992D01*
X233713Y211967D01*
X233692Y211948D01*
X233663Y211882D01*
X233627Y211820D01*
X233624Y211792D01*
X233612Y211766D01*
X233611Y211694D01*
X233602Y211623D01*
X233610Y211596D01*
X233610Y211567D01*
X233645Y211472D01*
X233656Y211432D01*
X233663Y211423D01*
X233667Y211411D01*
X243167Y194911D01*
X243219Y194853D01*
X243265Y194790D01*
X243284Y194779D01*
X243299Y194762D01*
X243369Y194728D01*
X243436Y194688D01*
X243461Y194684D01*
X243478Y194676D01*
X243523Y194674D01*
X243600Y194661D01*
X262600Y194661D01*
X262628Y194666D01*
G37*
%LPC*%
G36*
X309234Y222369D02*
X309234Y222369D01*
X305176Y224050D01*
X302070Y227156D01*
X300389Y231214D01*
X300389Y235606D01*
X302070Y239664D01*
X305176Y242770D01*
X305438Y242878D01*
X306662Y243386D01*
X307887Y243893D01*
X309111Y244400D01*
X309112Y244400D01*
X309234Y244451D01*
X313626Y244451D01*
X317684Y242770D01*
X320790Y239664D01*
X322471Y235606D01*
X322471Y231214D01*
X320790Y227156D01*
X317684Y224050D01*
X317638Y224031D01*
X316413Y223524D01*
X315189Y223016D01*
X315188Y223016D01*
X313964Y222509D01*
X313626Y222369D01*
X309234Y222369D01*
G37*
%LPD*%
%LPC*%
G36*
X223600Y676884D02*
X223600Y676884D01*
X219542Y678565D01*
X216436Y681670D01*
X214755Y685728D01*
X214755Y690121D01*
X216436Y694179D01*
X219542Y697284D01*
X219716Y697356D01*
X219716Y697357D01*
X220940Y697864D01*
X220941Y697864D01*
X222165Y698371D01*
X223390Y698878D01*
X223600Y698965D01*
X227992Y698965D01*
X232050Y697284D01*
X235156Y694179D01*
X236837Y690121D01*
X236837Y685728D01*
X235156Y681670D01*
X232050Y678565D01*
X231916Y678509D01*
X230691Y678002D01*
X229467Y677495D01*
X229467Y677494D01*
X228242Y676987D01*
X227992Y676884D01*
X223600Y676884D01*
G37*
%LPD*%
%LPC*%
G36*
X432408Y676884D02*
X432408Y676884D01*
X428350Y678565D01*
X425244Y681670D01*
X423563Y685728D01*
X423563Y690121D01*
X425244Y694179D01*
X428350Y697284D01*
X428524Y697356D01*
X428524Y697357D01*
X429748Y697864D01*
X429749Y697864D01*
X430973Y698371D01*
X432198Y698878D01*
X432408Y698965D01*
X436800Y698965D01*
X440858Y697284D01*
X443964Y694179D01*
X445645Y690121D01*
X445645Y685728D01*
X443964Y681670D01*
X440858Y678565D01*
X440724Y678509D01*
X439499Y678002D01*
X438275Y677495D01*
X438274Y677494D01*
X437050Y676987D01*
X436800Y676884D01*
X432408Y676884D01*
G37*
%LPD*%
%LPC*%
G36*
X275388Y736289D02*
X275388Y736289D01*
X273899Y737778D01*
X273899Y749882D01*
X275469Y751452D01*
X275473Y751458D01*
X275479Y751463D01*
X275528Y751542D01*
X275580Y751619D01*
X275581Y751627D01*
X275585Y751633D01*
X275617Y751811D01*
X275617Y754368D01*
X276580Y756692D01*
X278358Y758470D01*
X278995Y758734D01*
X280219Y759241D01*
X280682Y759433D01*
X283198Y759433D01*
X285522Y758470D01*
X287300Y756692D01*
X288263Y754368D01*
X288263Y751811D01*
X288264Y751803D01*
X288263Y751795D01*
X288284Y751705D01*
X288302Y751614D01*
X288307Y751607D01*
X288309Y751600D01*
X288411Y751452D01*
X289981Y749882D01*
X289981Y737778D01*
X288492Y736289D01*
X275388Y736289D01*
G37*
%LPD*%
%LPC*%
G36*
X342032Y412777D02*
X342032Y412777D01*
X339708Y413740D01*
X337930Y415518D01*
X336967Y417842D01*
X336967Y420358D01*
X337930Y422682D01*
X339331Y424082D01*
X339335Y424089D01*
X339341Y424093D01*
X339390Y424172D01*
X339442Y424249D01*
X339443Y424257D01*
X339447Y424264D01*
X339479Y424441D01*
X339479Y425811D01*
X339478Y425819D01*
X339479Y425827D01*
X339458Y425917D01*
X339440Y426008D01*
X339435Y426014D01*
X339433Y426022D01*
X339331Y426170D01*
X336362Y429139D01*
X336356Y429143D01*
X336351Y429149D01*
X336272Y429198D01*
X336195Y429250D01*
X336187Y429251D01*
X336181Y429255D01*
X336003Y429287D01*
X334022Y429287D01*
X331698Y430250D01*
X329920Y432028D01*
X328957Y434352D01*
X328957Y436868D01*
X329920Y439192D01*
X331698Y440970D01*
X332285Y441213D01*
X333509Y441720D01*
X333510Y441720D01*
X334022Y441933D01*
X336538Y441933D01*
X338862Y440970D01*
X340640Y439192D01*
X341603Y436868D01*
X341603Y434887D01*
X341604Y434879D01*
X341603Y434871D01*
X341624Y434781D01*
X341642Y434690D01*
X341647Y434684D01*
X341649Y434676D01*
X341751Y434528D01*
X347101Y429178D01*
X347101Y424441D01*
X347102Y424433D01*
X347101Y424426D01*
X347122Y424336D01*
X347140Y424245D01*
X347145Y424238D01*
X347147Y424230D01*
X347249Y424082D01*
X348650Y422682D01*
X349613Y420358D01*
X349613Y417842D01*
X348650Y415518D01*
X346872Y413740D01*
X345653Y413235D01*
X344548Y412777D01*
X342032Y412777D01*
G37*
%LPD*%
D10*
X495400Y645160D03*
X407720Y494440D03*
X252680Y494440D03*
X165000Y645160D03*
X495400Y345160D03*
X412800Y202060D03*
X247600Y202060D03*
X165000Y345160D03*
X412800Y788227D03*
X247600Y788227D03*
D11*
X346430Y233410D03*
X311430Y233410D03*
X225796Y687925D03*
X243296Y718235D03*
X417104Y718235D03*
X434604Y687925D03*
X312700Y757190D03*
X347700Y757190D03*
D12*
X322970Y713740D03*
X339970Y713740D03*
D13*
X321970Y734060D03*
X340970Y734060D03*
D12*
X281940Y743830D03*
X281940Y726830D03*
D14*
X297180Y707390D03*
X281940Y707390D03*
D15*
G36*
X406119Y628487D02*
X397459Y623487D01*
X391959Y633013D01*
X400619Y638013D01*
X406119Y628487D01*
G37*
G36*
X420841Y636987D02*
X412181Y631987D01*
X406681Y641513D01*
X415341Y646513D01*
X420841Y636987D01*
G37*
G36*
X250891Y626583D02*
X259551Y621583D01*
X254051Y612057D01*
X245391Y617057D01*
X250891Y626583D01*
G37*
G36*
X236169Y635083D02*
X244829Y630083D01*
X239329Y620557D01*
X230669Y625557D01*
X236169Y635083D01*
G37*
D12*
G36*
X419061Y619659D02*
X428587Y625159D01*
X433587Y616499D01*
X424061Y610999D01*
X419061Y619659D01*
G37*
G36*
X404339Y611159D02*
X413865Y616659D01*
X418865Y607999D01*
X409339Y602499D01*
X404339Y611159D01*
G37*
G36*
X226066Y584560D02*
X235592Y579060D01*
X230592Y570400D01*
X221066Y575900D01*
X226066Y584560D01*
G37*
G36*
X211344Y593060D02*
X220870Y587560D01*
X215870Y578900D01*
X206344Y584400D01*
X211344Y593060D01*
G37*
G36*
X431126Y598762D02*
X440652Y604262D01*
X445652Y595602D01*
X436126Y590102D01*
X431126Y598762D01*
G37*
G36*
X416404Y590262D02*
X425930Y595762D01*
X430930Y587102D01*
X421404Y581602D01*
X416404Y590262D01*
G37*
G36*
X238766Y606557D02*
X248292Y601057D01*
X243292Y592397D01*
X233766Y597897D01*
X238766Y606557D01*
G37*
G36*
X224044Y615057D02*
X233570Y609557D01*
X228570Y600897D01*
X219044Y606397D01*
X224044Y615057D01*
G37*
D13*
G36*
X215985Y643888D02*
X222485Y655146D01*
X235475Y647646D01*
X228975Y636388D01*
X215985Y643888D01*
G37*
G36*
X206485Y627434D02*
X212985Y638692D01*
X225975Y631192D01*
X219475Y619934D01*
X206485Y627434D01*
G37*
G36*
X196935Y656588D02*
X203435Y667846D01*
X216425Y660346D01*
X209925Y649088D01*
X196935Y656588D01*
G37*
G36*
X187435Y640134D02*
X193935Y651392D01*
X206925Y643892D01*
X200425Y632634D01*
X187435Y640134D01*
G37*
G36*
X443605Y638692D02*
X450105Y627434D01*
X437115Y619934D01*
X430615Y631192D01*
X443605Y638692D01*
G37*
G36*
X434105Y655146D02*
X440605Y643888D01*
X427615Y636388D01*
X421115Y647646D01*
X434105Y655146D01*
G37*
G36*
X465195Y651392D02*
X471695Y640134D01*
X458705Y632634D01*
X452205Y643892D01*
X465195Y651392D01*
G37*
G36*
X455695Y667846D02*
X462195Y656588D01*
X449205Y649088D01*
X442705Y660346D01*
X455695Y667846D01*
G37*
D16*
X374350Y562000D03*
X374350Y571500D03*
X374350Y581000D03*
X400350Y581000D03*
X400350Y562000D03*
D12*
X395850Y596900D03*
X378850Y596900D03*
D13*
X398120Y543560D03*
X379120Y543560D03*
D15*
X419100Y552840D03*
X419100Y569840D03*
D14*
X347980Y553720D03*
X332740Y553720D03*
D17*
X303530Y477520D03*
X314960Y468630D03*
X326390Y477520D03*
X424180Y453390D03*
X448310Y414020D03*
X208280Y402590D03*
X233680Y447040D03*
X476250Y368300D03*
X187960Y325120D03*
X187960Y365760D03*
X213360Y280670D03*
X241300Y229870D03*
X417830Y412750D03*
X444500Y379730D03*
X421640Y361950D03*
X393700Y388620D03*
X393700Y453390D03*
X392430Y426720D03*
X378460Y233680D03*
X419100Y231140D03*
X445770Y275590D03*
X472440Y317500D03*
X433070Y303530D03*
X411480Y257810D03*
X450850Y331470D03*
X398780Y297180D03*
X374650Y276860D03*
X411480Y330200D03*
X382270Y325120D03*
X349250Y288290D03*
X271780Y457200D03*
X245110Y379730D03*
X217170Y346710D03*
X259080Y327660D03*
X293370Y257810D03*
X280670Y220980D03*
X327660Y209550D03*
X328930Y257810D03*
X294640Y316230D03*
X229870Y311150D03*
X295910Y342900D03*
X314960Y405130D03*
X339090Y405130D03*
X339090Y392430D03*
X314960Y392430D03*
X326390Y398780D03*
X262890Y275590D03*
X240030Y744220D03*
X257810Y750570D03*
X266700Y768350D03*
X369570Y741680D03*
X298450Y727710D03*
X219710Y711200D03*
X262890Y731520D03*
X264160Y707390D03*
X274320Y681990D03*
X283210Y669290D03*
X243840Y661670D03*
X189230Y621030D03*
X213360Y571500D03*
X238760Y535940D03*
X265430Y534670D03*
X273050Y554990D03*
X240030Y563880D03*
X213360Y608330D03*
X299720Y511810D03*
X312420Y521970D03*
X325120Y511810D03*
X312420Y535940D03*
X426720Y534670D03*
X450850Y617220D03*
X394970Y706120D03*
X416560Y670560D03*
X438150Y711200D03*
X392430Y728980D03*
X388620Y749300D03*
X416560Y742950D03*
X400050Y767080D03*
X368300Y769620D03*
X330200Y775970D03*
X298450Y775970D03*
X243840Y698500D03*
X417830Y698500D03*
X321310Y623570D03*
X321310Y637540D03*
X252730Y548640D03*
X284480Y535940D03*
X312420Y551180D03*
X254000Y680720D03*
X439420Y576580D03*
X392430Y609600D03*
X335280Y435610D03*
D18*
X343290Y427600D01*
X343290Y419100D01*
D17*
X343290Y419100D03*
D19*
X281940Y707390D02*
X281940Y726830D01*
X281940Y743830D02*
X281940Y753110D01*
D17*
X281940Y753110D03*
D20*
X241081Y599567D02*
X228329Y577480D01*
X241029Y599477D02*
X241081Y599567D01*
X241029Y599477D02*
X252471Y619320D01*
D17*
X235071Y588477D03*
D20*
X240991Y599477D02*
X241029Y599477D01*
X240991Y599477D02*
X235071Y593557D01*
X235071Y588477D01*
D17*
X392689Y639640D03*
D20*
X411602Y609579D02*
X423667Y588682D01*
X411602Y609579D02*
X399039Y630750D01*
X392689Y639640D01*
X336550Y582930D02*
X332740Y579120D01*
X332740Y553720D01*
D17*
X336550Y582930D03*
D20*
X336550Y640080D01*
X297180Y679450D01*
X297180Y707390D01*
X303530Y713740D01*
X322970Y713740D01*
X321970Y714740D01*
X321970Y734060D01*
X321970Y747920D02*
X312700Y757190D01*
X321970Y747920D02*
X321970Y734060D01*
X211216Y653932D02*
X206680Y658467D01*
X211216Y653932D02*
X225730Y645767D01*
X235565Y639827D01*
X237749Y637643D01*
X237749Y627820D01*
X225730Y645767D02*
X225796Y645833D01*
X225796Y664210D01*
D17*
X225796Y664210D03*
D20*
X430860Y645767D02*
X452450Y658467D01*
X434604Y649511D02*
X434602Y649391D01*
X434596Y649271D01*
X434587Y649151D01*
X434573Y649032D01*
X434556Y648913D01*
X434535Y648795D01*
X434510Y648678D01*
X434482Y648561D01*
X434449Y648446D01*
X434413Y648331D01*
X434374Y648218D01*
X434330Y648106D01*
X434284Y647995D01*
X434233Y647887D01*
X434179Y647779D01*
X434122Y647674D01*
X434062Y647570D01*
X433998Y647469D01*
X433931Y647369D01*
X433860Y647272D01*
X433787Y647177D01*
X433711Y647084D01*
X433632Y646994D01*
X433549Y646906D01*
X433465Y646822D01*
X433377Y646739D01*
X433287Y646660D01*
X433194Y646584D01*
X433099Y646511D01*
X433002Y646440D01*
X432902Y646373D01*
X432801Y646309D01*
X432697Y646249D01*
X432592Y646192D01*
X432484Y646138D01*
X432376Y646087D01*
X432265Y646041D01*
X432153Y645997D01*
X432040Y645958D01*
X431925Y645922D01*
X431810Y645889D01*
X431693Y645861D01*
X431576Y645836D01*
X431458Y645815D01*
X431339Y645798D01*
X431220Y645784D01*
X431100Y645775D01*
X430980Y645769D01*
X430860Y645767D01*
X434604Y649511D02*
X434604Y665480D01*
D17*
X434604Y665480D03*
D20*
X424828Y645767D02*
X413761Y639250D01*
X424828Y645767D02*
X430860Y645767D01*
D21*
X400350Y545790D02*
X398120Y543560D01*
X400350Y545790D02*
X400350Y562000D01*
X401620Y560730D02*
X411210Y560730D01*
X401620Y560730D02*
X400350Y562000D01*
X411210Y560730D02*
X419100Y552840D01*
D17*
X433070Y552450D03*
D20*
X419490Y552450D02*
X419100Y552840D01*
X419490Y552450D02*
X433070Y552450D01*
D21*
X400350Y581000D02*
X400350Y592400D01*
X395850Y596900D01*
X374350Y581000D02*
X366370Y581000D01*
X361950Y576580D01*
X361950Y567690D01*
X365125Y564515D01*
X367640Y562000D01*
X374350Y562000D01*
X358775Y564515D02*
X347980Y553720D01*
X358775Y564515D02*
X365125Y564515D01*
M02*
